<svg xmlns="http://www.w3.org/2000/svg" xmlns:xlink="http://www.w3.org/1999/xlink" viewBox="0 0 685.68 184.42"><defs><style>.cls-1{isolation:isolate;}.cls-2{fill:url(#Degradado_sin_nombre_166);}.cls-3{opacity:0.5;mix-blend-mode:multiply;fill:url(#radial-gradient);}.cls-4{fill:#672f0f;}.cls-5{fill:url(#linear-gradient);}.cls-6{fill:url(#linear-gradient-2);}.cls-7{fill:#ffdc4d;}.cls-8{fill:url(#linear-gradient-3);}.cls-13,.cls-9{opacity:0.71;}.cls-13,.cls-15,.cls-9{mix-blend-mode:screen;}.cls-9{fill:url(#linear-gradient-4);}.cls-10{fill:url(#linear-gradient-5);}.cls-11{fill:url(#linear-gradient-6);}.cls-12{fill:#d28311;}.cls-13{fill:url(#linear-gradient-7);}.cls-14,.cls-15{opacity:0.39;}.cls-16{fill:url(#linear-gradient-8);}.cls-17,.cls-19,.cls-21{mix-blend-mode:color-dodge;}.cls-18{fill:url(#radial-gradient-2);}.cls-19{opacity:0.2;}.cls-20{fill:url(#radial-gradient-3);}.cls-21{opacity:0.8;}.cls-22{fill:url(#radial-gradient-4);}.cls-23{fill:url(#radial-gradient-5);}.cls-24{fill:url(#radial-gradient-6);}.cls-25{fill:url(#radial-gradient-7);}.cls-26{fill:url(#radial-gradient-8);}.cls-27{fill:url(#radial-gradient-9);}.cls-28{fill:url(#radial-gradient-10);}.cls-29{fill:url(#radial-gradient-11);}.cls-30{fill:url(#radial-gradient-12);}.cls-31{fill:url(#radial-gradient-13);}.cls-32{fill:url(#radial-gradient-14);}.cls-33{fill:url(#radial-gradient-15);}</style><linearGradient id="Degradado_sin_nombre_166" x1="129.68" y1="305.37" x2="556" y2="-120.96" gradientUnits="userSpaceOnUse"><stop offset="0" stop-color="#14002a"/><stop offset="1" stop-color="#4c1755"/></linearGradient><radialGradient id="radial-gradient" cx="605.54" cy="-2039.62" r="47.65" gradientTransform="translate(0 356.86) scale(1 0.1)" gradientUnits="userSpaceOnUse"><stop offset="0.15" stop-color="#783710"/><stop offset="0.24" stop-color="#7b3b15"/><stop offset="0.35" stop-color="#834824"/><stop offset="0.47" stop-color="#915c3c"/><stop offset="0.6" stop-color="#a4795f"/><stop offset="0.73" stop-color="#bd9e8b"/><stop offset="0.86" stop-color="#dccbc0"/><stop offset="1" stop-color="#fff"/></radialGradient><linearGradient id="linear-gradient" x1="494.3" y1="527.12" x2="570.37" y2="603.18" gradientTransform="translate(629.18 -681.17) rotate(45)" gradientUnits="userSpaceOnUse"><stop offset="0" stop-color="#af6017"/><stop offset="1" stop-color="#7e3711"/></linearGradient><linearGradient id="linear-gradient-2" x1="1550.51" y1="-790.8" x2="1495.25" y2="-695.1" gradientTransform="translate(-440.04 1422.08) rotate(-25.74)" gradientUnits="userSpaceOnUse"><stop offset="0" stop-color="#ffdc4d"/><stop offset="0.24" stop-color="#fdd849"/><stop offset="0.48" stop-color="#f7cb3d"/><stop offset="0.74" stop-color="#ecb62a"/><stop offset="0.99" stop-color="#de990e"/><stop offset="1" stop-color="#dd980d"/></linearGradient><linearGradient id="linear-gradient-3" x1="1551.53" y1="-790.79" x2="1496.35" y2="-695.22" gradientTransform="translate(-462.61 1403.85) rotate(-24.77)" gradientUnits="userSpaceOnUse"><stop offset="0" stop-color="#d28311"/><stop offset="0.29" stop-color="#cf8011"/><stop offset="0.52" stop-color="#c57712"/><stop offset="0.72" stop-color="#b56813"/><stop offset="0.91" stop-color="#9e5314"/><stop offset="1" stop-color="#904615"/></linearGradient><linearGradient id="linear-gradient-4" x1="1551.53" y1="-790.79" x2="1496.35" y2="-695.22" gradientTransform="translate(-462.61 1403.85) rotate(-24.77)" gradientUnits="userSpaceOnUse"><stop offset="0" stop-color="#fdc712"/><stop offset="0.03" stop-color="#e7b610"/><stop offset="0.09" stop-color="#b7900d"/><stop offset="0.17" stop-color="#8b6e0a"/><stop offset="0.24" stop-color="#665007"/><stop offset="0.33" stop-color="#463705"/><stop offset="0.41" stop-color="#2c2303"/><stop offset="0.51" stop-color="#191302"/><stop offset="0.62" stop-color="#0b0801"/><stop offset="0.76" stop-color="#020200"/><stop offset="1"/></linearGradient><linearGradient id="linear-gradient-5" x1="1549.93" y1="-787.28" x2="1498.83" y2="-698.77" gradientTransform="translate(-496.15 1375.69) rotate(-23.3)" xlink:href="#linear-gradient-2"/><linearGradient id="linear-gradient-6" x1="1480.18" y1="-743.06" x2="1569.96" y2="-743.06" gradientTransform="translate(-542.14 1334.56) rotate(-21.22)" gradientUnits="userSpaceOnUse"><stop offset="0" stop-color="#af6017"/><stop offset="0.62" stop-color="#7e3711"/><stop offset="1" stop-color="#af6017"/></linearGradient><linearGradient id="linear-gradient-7" x1="1547.51" y1="-788.35" x2="1501.33" y2="-697.71" gradientTransform="translate(57.56 1693.64) rotate(-45)" gradientUnits="userSpaceOnUse"><stop offset="0" stop-color="#fdc712"/><stop offset="0.06" stop-color="#d7a90f"/><stop offset="0.16" stop-color="#a5820c"/><stop offset="0.26" stop-color="#795f09"/><stop offset="0.36" stop-color="#534206"/><stop offset="0.47" stop-color="#352a04"/><stop offset="0.58" stop-color="#1e1702"/><stop offset="0.7" stop-color="#0d0a01"/><stop offset="0.83" stop-color="#030200"/><stop offset="1"/></linearGradient><linearGradient id="linear-gradient-8" x1="845.49" y1="-239.07" x2="845.49" y2="-182.06" gradientTransform="matrix(1.03, -0.21, 0.2, 0.98, -219.7, 452.03)" gradientUnits="userSpaceOnUse"><stop offset="0" stop-color="#ffdc4d"/><stop offset="0.1" stop-color="#e1c244"/><stop offset="0.44" stop-color="#827027"/><stop offset="0.71" stop-color="#3c3412"/><stop offset="0.9" stop-color="#110e05"/><stop offset="1"/></linearGradient><radialGradient id="radial-gradient-2" cx="543.24" cy="104.14" r="9.64" gradientUnits="userSpaceOnUse"><stop offset="0" stop-color="#fff"/><stop offset="1"/></radialGradient><radialGradient id="radial-gradient-3" cx="533.63" cy="147.12" r="34.13" gradientUnits="userSpaceOnUse"><stop offset="0.52"/><stop offset="0.6" stop-color="#fff"/><stop offset="0.74"/></radialGradient><radialGradient id="radial-gradient-4" cx="515.26" cy="136.26" r="19.15" xlink:href="#radial-gradient-3"/><radialGradient id="radial-gradient-5" cx="474.98" cy="152.85" r="7.95" xlink:href="#radial-gradient-2"/><radialGradient id="radial-gradient-6" cx="603.77" cy="72.84" r="3.98" xlink:href="#radial-gradient-2"/><radialGradient id="radial-gradient-7" cx="485.77" cy="17.6" r="11.08" gradientTransform="translate(390.92 -459.15) rotate(76.67)" xlink:href="#radial-gradient-2"/><radialGradient id="radial-gradient-8" cx="449.56" cy="156.34" r="5.46" xlink:href="#radial-gradient-2"/><radialGradient id="radial-gradient-9" cx="437.25" cy="117" r="7.6" xlink:href="#radial-gradient-2"/><radialGradient id="radial-gradient-10" cx="431.34" cy="61.39" r="5.62" xlink:href="#radial-gradient-2"/><radialGradient id="radial-gradient-11" cx="429.83" cy="8.73" r="7.6" xlink:href="#radial-gradient-2"/><radialGradient id="radial-gradient-12" cx="294.28" cy="271.99" r="3.8" gradientTransform="translate(617.58 -332.93) rotate(45)" xlink:href="#radial-gradient-2"/><radialGradient id="radial-gradient-13" cx="238.14" cy="300.84" r="7.94" gradientTransform="translate(617.58 -332.93) rotate(45)" xlink:href="#radial-gradient-2"/><radialGradient id="radial-gradient-14" cx="271.59" cy="320.93" r="3.97" gradientTransform="translate(617.58 -332.93) rotate(45)" xlink:href="#radial-gradient-2"/><radialGradient id="radial-gradient-15" cx="104.81" cy="454.31" r="4.6" gradientTransform="translate(617.58 -332.93) rotate(45)" xlink:href="#radial-gradient-2"/></defs><g class="cls-1"><g id="Capa_2" data-name="Capa 2"><g id="Capa_1-2" data-name="Capa 1"><rect id="Box" class="cls-2" width="685.68" height="184.42" rx="14.89"/><g id="Money"><path class="cls-3" d="M653.19,148c0,2.7-21.33,4.88-47.65,4.88S557.9,150.7,557.9,148s21.33-4.88,47.64-4.88S653.19,145.31,653.19,148Z"/><ellipse class="cls-4" cx="604.76" cy="96.21" rx="47.2" ry="55" transform="translate(13.22 254.55) rotate(-24.02)"/><path class="cls-5" d="M649.11,127.37l-.82-.91c11-20,7.4-48.17-10-67.41s-42.79-23.23-60.88-11l-.82-.92-6.78,7.51-.11.12c-17.86,19.77-16.11,53.78,3.91,75.94s50.72,24.1,68.59,4.33l.1-.12Z"/><ellipse class="cls-6" cx="609.04" cy="91.47" rx="48.52" ry="55.28" transform="matrix(0.94, -0.33, 0.33, 0.94, 3.91, 206)"/><ellipse class="cls-7" cx="612.21" cy="87.97" rx="46.46" ry="54.89" transform="translate(23.53 277.68) rotate(-26.04)"/><ellipse class="cls-8" cx="609.76" cy="90.68" rx="48.29" ry="55.22" transform="translate(6.25 216.42) rotate(-20.23)"/><ellipse class="cls-9" cx="609.76" cy="90.68" rx="48.29" ry="55.22" transform="translate(6.25 216.42) rotate(-20.23)"/><ellipse class="cls-10" cx="610.05" cy="90.35" rx="44.46" ry="51.18" transform="translate(9.83 231.99) rotate(-21.7)"/><ellipse class="cls-11" cx="610.51" cy="89.84" rx="43.88" ry="51.07" transform="translate(15.6 253.78) rotate(-23.78)"/><ellipse class="cls-12" cx="610.08" cy="90.33" rx="43.32" ry="50.98" transform="translate(20.53 271.4) rotate(-25.5)"/><path class="cls-7" d="M613.79,94.18a2.81,2.81,0,0,0,1-.6,4,4,0,0,0,1.14-2.73,5.69,5.69,0,0,0-.92-3.34,3.53,3.53,0,0,0-4-1.79,2.58,2.58,0,0,0-1,.6A3.93,3.93,0,0,0,608.89,89a5.63,5.63,0,0,0,.92,3.35A3.54,3.54,0,0,0,613.79,94.18Zm-2.6-4.37a1.46,1.46,0,0,1,.44-1,.94.94,0,0,1,.39-.24,1.12,1.12,0,0,1,1.31.52,1.68,1.68,0,0,1-.17,2.06,1.08,1.08,0,0,1-1.71-.29A1.69,1.69,0,0,1,611.19,89.81Z"/><path class="cls-7" d="M638.14,65.19c-6-6.16-12.78-10.14-19.54-11.52a25.44,25.44,0,0,0-13.49.88A26,26,0,0,0,598.48,58c-5.75,4.12-10.17,10.88-12.42,19a44.34,44.34,0,0,0-1.66,12.93,31.47,31.47,0,0,0,3.5,13.85c3.87,7.52,10.19,13.36,17.36,16a22.07,22.07,0,0,0,10.51,1.36,14.46,14.46,0,0,0,2.92-.68,13.42,13.42,0,0,0,2.51-1.18,20.63,20.63,0,0,0,4.72-4.23,34.23,34.23,0,0,0,8.27-22.64c-.07-9.12-3.68-17.89-9.42-22.88a18.33,18.33,0,0,0-8.07-4.2,12.18,12.18,0,0,1,6.48,1.52A16.72,16.72,0,0,1,627.75,71a1.57,1.57,0,0,0,1.71.67l.14,0,1-.53-.48,2.25a2.65,2.65,0,0,0,.3,1.79l.12.21c1.19,2.16,2.19,4.42,3.1,6.55l.37.85c.79,1.84,1.54,3.59,2.14,5.39a17.77,17.77,0,0,1,1,5.77A22.71,22.71,0,0,1,637,96.7a2.61,2.61,0,0,0,.32,1.56,2.13,2.13,0,0,0,1.07,1l.46.18-1.9.87a1.46,1.46,0,0,0-.78,1.07c-2,9.35-5.16,15.28-9.56,18.12a13.08,13.08,0,0,1-2.76,1.34l-1,.31-.08,0a1.77,1.77,0,0,0-.85,2.18l0,.14-1.06-1.13a1.6,1.6,0,0,0-1.35-.58c-.76.09-1.57.16-2.55.22-1.36.09-2.75.16-4.1.22l-1.57.07-1.51.09c-1.36.08-2.76.16-4.13.14a12.17,12.17,0,0,1-3.07-.43,1.17,1.17,0,0,0-.74,0,1.38,1.38,0,0,0-.82.89l-.47-1.09a2.37,2.37,0,0,0-.93-1.12,19.48,19.48,0,0,1-2.47-1.78A50.61,50.61,0,0,1,590,111.1,81.47,81.47,0,0,1,585,104a1.8,1.8,0,0,0-1.64-1l.1-.28a2.59,2.59,0,0,0-.18-1.86c-.1-.2-.19-.4-.29-.61a26.66,26.66,0,0,1-2.36-11.09,45.27,45.27,0,0,1,1.45-11c.12-.51.26-1,.4-1.54a29,29,0,0,0,.95-4.42,17.76,17.76,0,0,0-.62-6.73,37.06,37.06,0,0,0-2.33-6,1.76,1.76,0,0,0-2-1.17.11.11,0,0,0-.08,0,1.88,1.88,0,0,0-.73,2.36,19.33,19.33,0,0,1-.14,10.63c-.47,1.83-1.08,3.57-1.72,5.41a59.75,59.75,0,0,0-2.06,6.78c-2.07,9.26.62,19,3.24,25.54a54.21,54.21,0,0,0,7.26,13,41.24,41.24,0,0,0,8.19,8,35.56,35.56,0,0,0,19.44,7.08,33.17,33.17,0,0,0,12.36-1.88,39.91,39.91,0,0,0,7.94-3.83,48.17,48.17,0,0,0,8.57-6.88,33.54,33.54,0,0,0,7.44-10.39,47.67,47.67,0,0,0,3.2-12.79,40.24,40.24,0,0,0-.52-13.63A47.69,47.69,0,0,0,638.14,65.19ZM649.28,87.9a37.75,37.75,0,0,1,.46,12.78,45.85,45.85,0,0,1-3,12.25,32.07,32.07,0,0,1-7.12,9.92,46.91,46.91,0,0,1-8.36,6.7,39,39,0,0,1-7.7,3.72,32,32,0,0,1-11.93,1.81A34.2,34.2,0,0,1,593,128.33a39,39,0,0,1-7.75-7.56,51.47,51.47,0,0,1-6.89-12.36c-3.06-7.64-4.83-16.31-3.1-24.06.94-4.23,2.7-8,3.76-12.13a21.94,21.94,0,0,0,.09-12,33.88,33.88,0,0,1,2.15,5.58,15.31,15.31,0,0,1,.55,5.76,48.19,48.19,0,0,1-1.31,5.7A47.66,47.66,0,0,0,579,88.83,29.52,29.52,0,0,0,581.6,101l.32.66-2.52,5,4.37-1.66a84,84,0,0,0,5.21,7.32,51.64,51.64,0,0,0,7.5,8.26,20.07,20.07,0,0,0,2.72,2l2.74,6.42.62-4.94a13.24,13.24,0,0,0,3.41.48c1.91,0,3.81-.13,5.71-.22s3.8-.17,5.7-.29c.87-.06,1.74-.13,2.61-.24l4.83,5.18-1.35-5.84q.54-.15,1.08-.33a14.4,14.4,0,0,0,3-1.46c5.7-3.68,8.54-11.49,10.19-19.11l5.74-4.13-4.87-.76a28.06,28.06,0,0,0,.18-3,20.91,20.91,0,0,0-1.12-6.62c-.74-2.2-1.69-4.33-2.6-6.45-1-2.31-2-4.61-3.22-6.79a2.53,2.53,0,0,0-.13-.22l1-8-3.93,3.5a18.74,18.74,0,0,0-5.16-4.66,14.57,14.57,0,0,0-9.23-1.6L610,57l.92,7.17q-.9.24-1.77.54a22,22,0,0,0-10.53,7.66l-5.19-2.52,3.92,4.44c-.25.43-.5.88-.73,1.34a27.4,27.4,0,0,0-1.84,18.93L589.12,96,596,98c2,4.58,5.41,8.45,9.27,10.33l2.82,6.69.12-5.68a10.73,10.73,0,0,0,1.4.2,12.85,12.85,0,0,0,1.86,0,10.74,10.74,0,0,0,2.78-.58,13.35,13.35,0,0,0,4.32-2.56l4.78,2.42-1.92-5.44A37.73,37.73,0,0,0,625,97.74a16,16,0,0,0,2-8.42l3.8-3.55-4.3.55a20.31,20.31,0,0,0-5.8-9.34,9.25,9.25,0,0,0-3.25-2l-.87-5-1.29,4.71a6.51,6.51,0,0,0-1.57.36,12.87,12.87,0,0,0-2,.94c-3,1.7-6.32,3.67-7.5,7.81a17.16,17.16,0,0,0-.58,4.68l-3.89-1.06,4,3.39c.17,1.79.63,3.78,2,4.65a2.06,2.06,0,0,0,1.73.3,1.27,1.27,0,0,0,.5-.31,2.8,2.8,0,0,0,.4-2.52c-.17-.84-.45-1.64-.63-2.48a14.23,14.23,0,0,1-.31-2.51c-.12-3.44,1-6.74,3.11-8.69a7.6,7.6,0,0,1,8-1.51,0,0,0,0,1,0,.06,10.38,10.38,0,0,0-.65,1.44.52.52,0,0,0,0,.47,2.3,2.3,0,0,0,.23.37l.41.67,1.79,2.89s0,0,0,0a8.25,8.25,0,0,1-1.86-1.46,2,2,0,0,0-1.26-.51.61.61,0,0,0-.24,0,1.21,1.21,0,0,0-.67,1,16,16,0,0,0-.17,5,20.73,20.73,0,0,0,.38,2.34c.11.46.24.93.38,1.38a3.22,3.22,0,0,0,.18.55c.06.12,0,.16.15.15a1.92,1.92,0,0,0,.2-.23,64.06,64.06,0,0,0,6.19-8.16c.47,3.77-.9,7.06-2.28,10-1.75,3.77-3.56,7.73-6.46,10.26a9.92,9.92,0,0,1-3.22,1.91,7.21,7.21,0,0,1-5.3-.15c-2.71-1.15-5-3.83-6.47-6.86a22,22,0,0,1-2.16-10.47,25,25,0,0,1,8.49-17.95,14.57,14.57,0,0,1,4.67-2.79,10.49,10.49,0,0,1,4.48-.55,15.72,15.72,0,0,1,8.61,4c5.58,4.86,8.49,13.14,8.55,20.93a32.53,32.53,0,0,1-7.87,21.39,19.25,19.25,0,0,1-4.42,4,11.86,11.86,0,0,1-2.28,1.08,13.83,13.83,0,0,1-2.69.63,20.76,20.76,0,0,1-9.87-1.29,31.06,31.06,0,0,1-16.24-14.95A29.17,29.17,0,0,1,586,90.26,42.51,42.51,0,0,1,587.59,78c2.12-7.66,6.28-14.16,11.87-18.17a24.79,24.79,0,0,1,6.33-3.29,24.09,24.09,0,0,1,12.85-.84c6.7,1.37,13.19,5.43,18.63,11S647.44,79.6,649.28,87.9Zm-35.6-22.8c-.43,0-.85.06-1.27.12a2.21,2.21,0,0,0,.1-1l-.11-.81.84,1.24A2.33,2.33,0,0,0,613.68,65.1ZM598.34,99.17a20.1,20.1,0,0,1-1-1.91A2.18,2.18,0,0,0,596.08,96a2.22,2.22,0,0,0,.22-1.8A25,25,0,0,1,598,76.88c.21-.42.44-.84.68-1.24a2.16,2.16,0,0,0,.24-1.28,1.36,1.36,0,0,0,.35-.07,1.14,1.14,0,0,0,.59-.44,20.32,20.32,0,0,1,4.78-4.61A26.93,26.93,0,0,0,596.17,88,24.77,24.77,0,0,0,598.34,99.17Zm22.13,6.14-1.55-.78a1.32,1.32,0,0,0-1-.1,1.34,1.34,0,0,0-.38.22,14.3,14.3,0,0,1-1.59,1.19l.09-.08c3.06-2.66,4.92-6.64,6.71-10.49l.11-.25a24.72,24.72,0,0,0,2.5-7.76,2.25,2.25,0,0,0,.45.59,2,2,0,0,0-.29,1.23,13.89,13.89,0,0,1-1.83,7.33,36.21,36.21,0,0,1-3.47,5.41,2.2,2.2,0,0,0-.21,2.07Zm2.37-23.45a1.34,1.34,0,0,0-.49.46c-.17.26-.34.53-.52.79a2.92,2.92,0,0,0-.23-.47l-1.79-2.89,0-.08,0-.06c.09-.18.18-.35.26-.53a2.29,2.29,0,0,0,.12-.37A16.93,16.93,0,0,1,622.84,81.86Zm-17.78,8a2,2,0,0,0,.25-1,14.62,14.62,0,0,1,.49-4.06,7.4,7.4,0,0,1,.56-1.45,16.1,16.1,0,0,0-.43,4.32,17.34,17.34,0,0,0,.37,3c.1.48.22.92.34,1.35s.21.75.28,1.09a1.68,1.68,0,0,1,0,.69l-.06,0a.76.76,0,0,1-.56-.12c-.59-.36-.83-1.7-.93-2.75A2.7,2.7,0,0,0,605.06,89.9Zm15-4.27c-.71,1-1.45,1.93-2.21,2.84,0-.21-.05-.42-.08-.63a14.22,14.22,0,0,1,.08-3.9l.44.4A6.33,6.33,0,0,0,620.07,85.63Z"/><path class="cls-4" d="M613.33,92.87a2.71,2.71,0,0,0,1-.6,4,4,0,0,0,1.13-2.72,5.63,5.63,0,0,0-.92-3.35,3.53,3.53,0,0,0-4-1.79,2.75,2.75,0,0,0-1,.6,3.91,3.91,0,0,0-1.13,2.72,5.62,5.62,0,0,0,.91,3.35A3.53,3.53,0,0,0,613.33,92.87Zm-2.6-4.37a1.53,1.53,0,0,1,.44-1,1.15,1.15,0,0,1,.39-.24,1.13,1.13,0,0,1,1.32.52,1.68,1.68,0,0,1-.18,2.06,1,1,0,0,1-.39.24,1.12,1.12,0,0,1-1.31-.52A1.75,1.75,0,0,1,610.73,88.5Z"/><path class="cls-4" d="M637.69,63.88c-6-6.15-12.78-10.14-19.54-11.52A25.5,25.5,0,0,0,598,56.69c-5.76,4.12-10.17,10.87-12.43,19a45.12,45.12,0,0,0-1.66,12.93,31.62,31.62,0,0,0,3.51,13.85c3.86,7.52,10.19,13.37,17.36,16a22.19,22.19,0,0,0,10.51,1.37,15.18,15.18,0,0,0,2.92-.69,13.33,13.33,0,0,0,2.5-1.18,20,20,0,0,0,4.72-4.23,34.29,34.29,0,0,0,8.28-22.64c-.07-9.12-3.68-17.88-9.43-22.88a18.23,18.23,0,0,0-8.07-4.2,12.21,12.21,0,0,1,6.49,1.52,16.58,16.58,0,0,1,4.56,4.15,1.61,1.61,0,0,0,1.72.67l.14-.06,1.05-.53-.48,2.25a2.62,2.62,0,0,0,.3,1.8l.11.21c1.19,2.15,2.2,4.42,3.11,6.54l.36.85c.8,1.85,1.55,3.59,2.15,5.39a18.37,18.37,0,0,1,1,5.77,24.76,24.76,0,0,1-.17,2.77,2.68,2.68,0,0,0,.31,1.56A2.21,2.21,0,0,0,638,98l.46.17-1.9.87a1.48,1.48,0,0,0-.78,1.07c-2,9.35-5.16,15.28-9.57,18.13a12.83,12.83,0,0,1-2.76,1.33c-.32.11-.66.22-1,.31l-.07,0a1.8,1.8,0,0,0-.86,2.19l0,.14-1.06-1.14a1.62,1.62,0,0,0-1.35-.58c-.75.09-1.56.16-2.54.23-1.36.08-2.76.15-4.1.21l-1.58.08-1.5.08c-1.36.08-2.77.16-4.13.14a12.17,12.17,0,0,1-3.07-.43,1.27,1.27,0,0,0-.75,0,1.37,1.37,0,0,0-.82.9l-.47-1.1a2.36,2.36,0,0,0-.93-1.12,18.53,18.53,0,0,1-2.47-1.78,50.61,50.61,0,0,1-7.16-7.91,81.29,81.29,0,0,1-5.05-7.09,1.82,1.82,0,0,0-1.64-1l.09-.28a2.59,2.59,0,0,0-.17-1.86c-.1-.2-.2-.4-.29-.6a26.74,26.74,0,0,1-2.37-11.1,45.75,45.75,0,0,1,1.45-11c.13-.51.26-1,.41-1.55a31.27,31.27,0,0,0,1-4.42,17.73,17.73,0,0,0-.63-6.72,36.26,36.26,0,0,0-2.32-6A1.78,1.78,0,0,0,578,57l-.08,0a1.88,1.88,0,0,0-.72,2.36A19.43,19.43,0,0,1,577,70c-.47,1.84-1.07,3.58-1.72,5.42a61.68,61.68,0,0,0-2.06,6.77c-2.06,9.26.63,19,3.25,25.55a53.79,53.79,0,0,0,7.26,13,41.3,41.3,0,0,0,8.19,8,35.54,35.54,0,0,0,19.43,7.07,33.25,33.25,0,0,0,12.37-1.88,39.57,39.57,0,0,0,7.93-3.83,47.79,47.79,0,0,0,8.58-6.88,33.43,33.43,0,0,0,7.43-10.38,47.49,47.49,0,0,0,3.2-12.79,40,40,0,0,0-.51-13.64A47.82,47.82,0,0,0,637.69,63.88ZM648.82,86.6a37.75,37.75,0,0,1,.47,12.78,46,46,0,0,1-3.06,12.25,32,32,0,0,1-7.12,9.91,46.84,46.84,0,0,1-8.35,6.7,38.27,38.27,0,0,1-7.71,3.72,32,32,0,0,1-11.92,1.82A34.14,34.14,0,0,1,592.54,127a38.87,38.87,0,0,1-7.74-7.55,51.57,51.57,0,0,1-6.9-12.37c-3-7.63-4.83-16.3-3.1-24.06.94-4.22,2.71-8,3.77-12.13a21.85,21.85,0,0,0,.08-12,34.23,34.23,0,0,1,2.15,5.58,15.1,15.1,0,0,1,.55,5.76A44.15,44.15,0,0,1,580,76a47.72,47.72,0,0,0-1.51,11.55,29.53,29.53,0,0,0,2.62,12.21l.31.66-2.06,6.32,3.91-3a86.79,86.79,0,0,0,5.21,7.32,52.23,52.23,0,0,0,7.5,8.27,20.9,20.9,0,0,0,2.72,2l2.74,6.42.62-4.93a13.75,13.75,0,0,0,3.41.48c1.91,0,3.82-.14,5.72-.23s3.8-.17,5.69-.29c.87-.06,1.75-.13,2.62-.23l4.82,5.17L623,121.84l1.08-.34a13.9,13.9,0,0,0,3-1.45c5.7-3.68,8.55-11.5,10.2-19.12l6.19-2.82L638.16,96a25.61,25.61,0,0,0,.19-3.05,21.15,21.15,0,0,0-1.13-6.61c-.73-2.21-1.68-4.34-2.59-6.46-1-2.31-2-4.61-3.23-6.79l-.12-.22,1.43-6.67-4.38,2.2a18.66,18.66,0,0,0-5.17-4.67,14.56,14.56,0,0,0-9.23-1.6l-4.38-6.52.91,7.17c-.59.16-1.18.34-1.76.54A21.91,21.91,0,0,0,598.17,71l-4.74-1.22,3.47,3.13c-.26.43-.5.88-.73,1.34a27.42,27.42,0,0,0-1.85,18.94L589.12,96l6.42.66c2,4.57,5.41,8.44,9.28,10.32l2.82,6.69.11-5.68a10.88,10.88,0,0,0,1.41.2,10.4,10.4,0,0,0,1.85,0,11.07,11.07,0,0,0,2.78-.57,13.46,13.46,0,0,0,4.32-2.57l4.78,2.42L621,102.07a38,38,0,0,0,3.62-5.63,16,16,0,0,0,2-8.43l4.25-2.24L626.13,85a20.31,20.31,0,0,0-5.8-9.33,9.22,9.22,0,0,0-3.25-2L616.66,70l-1.74,3.4a6.51,6.51,0,0,0-1.57.36,12.08,12.08,0,0,0-2,.95c-3,1.69-6.33,3.67-7.51,7.8a16.78,16.78,0,0,0-.57,4.68l-3.44.25,3.55,2.08c.18,1.79.64,3.78,2,4.66a2.11,2.11,0,0,0,1.74.29,1.33,1.33,0,0,0,.49-.3,2.77,2.77,0,0,0,.4-2.53c-.16-.84-.45-1.64-.63-2.47a14.44,14.44,0,0,1-.3-2.52,11.42,11.42,0,0,1,3.1-8.69,7.59,7.59,0,0,1,7.95-1.5,0,0,0,0,1,0,.05,11.85,11.85,0,0,0-.65,1.45.55.55,0,0,0,0,.47c.06.12.17.26.23.37l.42.66c.59,1,1.19,1.93,1.78,2.89,0,0,0,.05,0,.05A8.5,8.5,0,0,1,618.07,81a1.94,1.94,0,0,0-1.25-.52,1,1,0,0,0-.25,0,1.21,1.21,0,0,0-.67,1,16.34,16.34,0,0,0-.17,5,18.42,18.42,0,0,0,.39,2.34c.11.47.23.93.37,1.39a4.88,4.88,0,0,0,.18.54c.06.12,0,.16.15.15a1.28,1.28,0,0,0,.2-.22,65.92,65.92,0,0,0,6.2-8.17c.46,3.77-.9,7.06-2.28,10-1.75,3.76-3.56,7.72-6.47,10.25a9.92,9.92,0,0,1-3.22,1.91,7.19,7.19,0,0,1-5.29-.15c-2.71-1.15-5-3.83-6.48-6.86a22,22,0,0,1-2.15-10.47,25,25,0,0,1,8.48-18,14.65,14.65,0,0,1,4.67-2.78,10.41,10.41,0,0,1,4.49-.56,15.69,15.69,0,0,1,8.6,4c5.59,4.86,8.5,13.14,8.56,20.93a32.62,32.62,0,0,1-7.87,21.39,19.29,19.29,0,0,1-4.43,4,11.59,11.59,0,0,1-2.28,1.08,13.67,13.67,0,0,1-2.69.63,20.77,20.77,0,0,1-9.87-1.28,31,31,0,0,1-16.23-15A29,29,0,0,1,585.55,89a42.79,42.79,0,0,1,1.59-12.28C589.26,69,593.41,62.5,599,58.49a24.89,24.89,0,0,1,6.32-3.29,24.2,24.2,0,0,1,12.85-.84c6.7,1.37,13.19,5.44,18.64,11A45,45,0,0,1,648.82,86.6Zm-35.6-22.8a9.24,9.24,0,0,0-1.27.12,2.26,2.26,0,0,0,.1-1.05l-.1-.81.84,1.24A2.1,2.1,0,0,0,613.22,63.8ZM597.88,97.87q-.52-.93-1-1.92a2.18,2.18,0,0,0-1.3-1.25,2.18,2.18,0,0,0,.22-1.8,25.07,25.07,0,0,1,1.74-17.33c.21-.42.43-.83.67-1.24a2.07,2.07,0,0,0,.24-1.28,1,1,0,0,0,.36-.06,1.22,1.22,0,0,0,.59-.45,19.94,19.94,0,0,1,4.78-4.61,26.89,26.89,0,0,0-8.5,18.76A24.83,24.83,0,0,0,597.88,97.87ZM620,104l-1.56-.79a1.3,1.3,0,0,0-1-.1,1.11,1.11,0,0,0-.38.22,14.94,14.94,0,0,1-1.59,1.19l.08-.07c3.07-2.67,4.92-6.65,6.71-10.5l.12-.25A24.71,24.71,0,0,0,624.86,86a2.51,2.51,0,0,0,.46.6,2,2,0,0,0-.3,1.22,13.91,13.91,0,0,1-1.82,7.34,37.43,37.43,0,0,1-3.47,5.4,2.23,2.23,0,0,0-.21,2.08Zm2.37-23.46a1.2,1.2,0,0,0-.49.46l-.52.79a4.09,4.09,0,0,0-.23-.47l-1.79-2.89-.05-.07,0-.06c.09-.18.18-.36.26-.54a2,2,0,0,0,.13-.37A17.32,17.32,0,0,1,622.39,80.55Zm-17.78,8a2.12,2.12,0,0,0,.24-1,14.62,14.62,0,0,1,.49-4.06,8.46,8.46,0,0,1,.56-1.44,15.63,15.63,0,0,0-.42,4.32,16.4,16.4,0,0,0,.36,3c.1.48.23.92.35,1.35s.21.76.28,1.09a1.38,1.38,0,0,1,0,.69.09.09,0,0,1-.06,0,.72.72,0,0,1-.56-.12c-.58-.36-.83-1.69-.93-2.75A2.85,2.85,0,0,0,604.61,88.59Zm15-4.27c-.72,1-1.46,1.93-2.21,2.85,0-.21-.06-.43-.08-.64a14.57,14.57,0,0,1,.07-3.89,5,5,0,0,1,.45.4A6,6,0,0,0,619.62,84.32Z"/><path class="cls-13" d="M643.72,127.58a37.33,37.33,0,0,1-12.13,9c-16.08,7.42-36.61,2.7-51.16-13.4-18.58-20.58-20.37-51.95-4-70.08s44.71-16.14,63.29,4.43S660.09,109.45,643.72,127.58Z"/><g class="cls-14"><path class="cls-7" d="M586.86,138.07l3.58-4.62-2-3,53.52-70.31a41.44,41.44,0,0,1,6.58,10.18l-50.14,65.94,2.78,2.24-3.5,4.91A43,43,0,0,1,586.86,138.07Z"/></g><g class="cls-14"><path class="cls-7" d="M643.77,60.39,647,56.32a59.77,59.77,0,0,1,7.84,13l-3.5,4.26A55.48,55.48,0,0,0,643.77,60.39Z"/></g><g class="cls-14"><path class="cls-7" d="M650.63,74.93l-47.69,63a5.57,5.57,0,0,0,2.75,1.82l-3.59,4.93a30,30,0,0,0,4.93.94l3.05-5.22a16,16,0,0,1-3.32-1.44l45.17-60.54S650.85,75.43,650.63,74.93Z"/></g><g class="cls-14"><path class="cls-7" d="M652.86,77.89l3.34-5.2s.57,1.39,1.66,4.9l-3.59,5.51A42.34,42.34,0,0,0,652.86,77.89Z"/></g><g class="cls-15"><path class="cls-16" d="M604.52,76.25c-22,4.91-30.69,45-34.51,24.08-4.87-26.74,2.16-51.17,28.93-57.34,18.75-4.31,44.83,14.94,50.74,38.48C656.27,107.76,634.08,69.65,604.52,76.25Z"/></g></g><g id="ligths"><g class="cls-17"><circle class="cls-18" cx="543.24" cy="104.14" r="9.64"/></g><g class="cls-19"><circle class="cls-20" cx="533.63" cy="147.12" r="34.13"/></g><g class="cls-21"><circle class="cls-22" cx="515.26" cy="136.26" r="19.15"/></g><g class="cls-17"><path class="cls-23" d="M482.93,152.85A7.95,7.95,0,1,1,475,144.9,8,8,0,0,1,482.93,152.85Z"/></g><g class="cls-17"><circle class="cls-24" cx="603.77" cy="72.84" r="3.98"/></g><g class="cls-17"><circle class="cls-25" cx="485.77" cy="17.6" r="11.08" transform="translate(356.67 486.23) rotate(-76.67)"/></g><g class="cls-17"><path class="cls-26" d="M455,156.34a5.46,5.46,0,1,1-5.46-5.46A5.46,5.46,0,0,1,455,156.34Z"/></g><g class="cls-17"><circle class="cls-27" cx="437.25" cy="117" r="7.6"/></g><g class="cls-17"><path class="cls-28" d="M437,61.39a5.62,5.62,0,1,1-5.62-5.62A5.61,5.61,0,0,1,437,61.39Z"/></g><g class="cls-17"><circle class="cls-29" cx="429.83" cy="8.73" r="7.6"/></g><g class="cls-17"><circle class="cls-30" cx="633.34" cy="67.49" r="3.8"/></g><g class="cls-17"><path class="cls-31" d="M578.86,53.8a7.94,7.94,0,1,1,0-11.23A7.93,7.93,0,0,1,578.86,53.8Z"/></g><g class="cls-17"><circle class="cls-32" cx="582.69" cy="86.05" r="3.97"/></g><g class="cls-17"><path class="cls-33" d="M373.7,65.68a4.6,4.6,0,1,1,0-6.5A4.59,4.59,0,0,1,373.7,65.68Z"/></g></g></g></g></g></svg>