<svg xmlns="http://www.w3.org/2000/svg" xmlns:xlink="http://www.w3.org/1999/xlink" viewBox="0 0 675.33 572.88"><defs><style>.cls-1{fill:#fff;}.cls-2{fill:url(#Degradado_sin_nombre_13);}.cls-3{fill:url(#Degradado_sin_nombre_12);}.cls-4{fill:url(#Degradado_sin_nombre_12-2);}.cls-5{fill:url(#Degradado_sin_nombre_12-3);}.cls-6{fill:url(#Degradado_sin_nombre_12-4);}.cls-7{fill:url(#Degradado_sin_nombre_12-5);}.cls-8{fill:url(#Degradado_sin_nombre_13-2);}.cls-9{fill:url(#Degradado_sin_nombre_12-6);}.cls-10{fill:url(#Degradado_sin_nombre_12-7);}.cls-11{fill:url(#Degradado_sin_nombre_12-8);}.cls-12{fill:url(#Degradado_sin_nombre_12-9);}.cls-13{fill:url(#Degradado_sin_nombre_12-10);}.cls-14{fill:url(#Degradado_sin_nombre_13-3);}.cls-15{fill:url(#Degradado_sin_nombre_18);}.cls-16{fill:url(#Degradado_sin_nombre_18-2);}.cls-17{fill:url(#Degradado_sin_nombre_18-3);}.cls-18{fill:url(#Degradado_sin_nombre_18-4);}.cls-19{fill:url(#Degradado_sin_nombre_18-5);}</style><linearGradient id="Degradado_sin_nombre_13" x1="1502.51" y1="1040.18" x2="1582.75" y2="876.87" gradientTransform="matrix(0.75, 0.66, 0.66, -0.75, -1232.52, 157.9)" gradientUnits="userSpaceOnUse"><stop offset="0" stop-color="#fff"/><stop offset="1" stop-color="#e6e7e8"/></linearGradient><linearGradient id="Degradado_sin_nombre_12" x1="1535.23" y1="1003.8" x2="1549.47" y2="943.17" gradientTransform="matrix(0.75, 0.66, 0.66, -0.75, -1232.52, 157.9)" gradientUnits="userSpaceOnUse"><stop offset="0.01" stop-color="#f40846"/><stop offset="1" stop-color="#c6003d"/></linearGradient><linearGradient id="Degradado_sin_nombre_12-2" x1="1487.74" y1="1039.99" x2="1490.29" y2="1029.11" xlink:href="#Degradado_sin_nombre_12"/><linearGradient id="Degradado_sin_nombre_12-3" x1="1483.4" y1="1057.56" x2="1489.61" y2="1037.09" xlink:href="#Degradado_sin_nombre_12"/><linearGradient id="Degradado_sin_nombre_12-4" x1="654.32" y1="1267.87" x2="657.25" y2="1255.37" gradientTransform="matrix(-0.75, -0.66, -0.66, 0.75, 1870.64, 34.13)" xlink:href="#Degradado_sin_nombre_12"/><linearGradient id="Degradado_sin_nombre_12-5" x1="651.36" y1="1287.19" x2="658.63" y2="1263.18" gradientTransform="matrix(-0.75, -0.66, -0.66, 0.75, 1870.64, 34.13)" xlink:href="#Degradado_sin_nombre_12"/><linearGradient id="Degradado_sin_nombre_13-2" x1="70.85" y1="485.99" x2="131.59" y2="362.37" gradientTransform="matrix(1, 0, 0, -1, -52.91, 505.64)" xlink:href="#Degradado_sin_nombre_13"/><linearGradient id="Degradado_sin_nombre_12-6" x1="41.89" y1="528.51" x2="62.42" y2="426.27" gradientTransform="matrix(1, 0, 0, -1, 0, 579.97)" xlink:href="#Degradado_sin_nombre_12"/><linearGradient id="Degradado_sin_nombre_12-7" x1="63.55" y1="501.72" x2="69.1" y2="483.43" gradientTransform="matrix(1, 0, 0, -1, -52.91, 505.64)" xlink:href="#Degradado_sin_nombre_12"/><linearGradient id="Degradado_sin_nombre_12-8" x1="62.83" y1="480.6" x2="70.14" y2="480.6" gradientTransform="matrix(1, 0, 0, -1, -52.91, 505.64)" xlink:href="#Degradado_sin_nombre_12"/><linearGradient id="Degradado_sin_nombre_12-9" x1="2099.17" y1="1795.41" x2="2103.82" y2="1780.06" gradientTransform="matrix(-1, 0, 0, 1, 2195.96, -1637.26)" xlink:href="#Degradado_sin_nombre_12"/><linearGradient id="Degradado_sin_nombre_12-10" x1="136.73" y1="371.95" x2="144.04" y2="371.95" gradientTransform="matrix(1, 0, 0, -1, -52.91, 505.64)" xlink:href="#Degradado_sin_nombre_12"/><linearGradient id="Degradado_sin_nombre_13-3" x1="-1123.78" y1="681.9" x2="-1077.07" y2="586.83" gradientTransform="matrix(0.67, -0.74, -0.74, -0.67, 1290.08, -169.54)" xlink:href="#Degradado_sin_nombre_13"/><linearGradient id="Degradado_sin_nombre_18" x1="-1110.93" y1="649.62" x2="-1095.12" y2="621.17" gradientTransform="matrix(0.67, -0.74, -0.74, -0.67, 1290.08, -169.54)" gradientUnits="userSpaceOnUse"><stop offset="0" stop-color="#414042"/><stop offset="1" stop-color="#231f20"/></linearGradient><linearGradient id="Degradado_sin_nombre_18-2" x1="-1133.69" y1="680.2" x2="-1130.75" y2="674.91" xlink:href="#Degradado_sin_nombre_18"/><linearGradient id="Degradado_sin_nombre_18-3" x1="-1133.98" y1="687.99" x2="-1131.52" y2="681.12" xlink:href="#Degradado_sin_nombre_18"/><linearGradient id="Degradado_sin_nombre_18-4" x1="2820.48" y1="1517.52" x2="2823.42" y2="1512.23" gradientTransform="matrix(-0.67, 0.74, 0.74, 0.67, 908.2, -2884.46)" xlink:href="#Degradado_sin_nombre_18"/><linearGradient id="Degradado_sin_nombre_18-5" x1="2820.18" y1="1525.31" x2="2822.64" y2="1518.44" gradientTransform="matrix(-0.67, 0.74, 0.74, 0.67, 908.2, -2884.46)" xlink:href="#Degradado_sin_nombre_18"/></defs><g id="Capa_2" data-name="Capa 2"><g id="Capa_1-2" data-name="Capa 1"><path class="cls-1" d="M526.65,570.89Q489,527.53,451.73,483.83a6.63,6.63,0,0,1,.78-9.28,671.52,671.52,0,0,0,115.15-129.5,6.61,6.61,0,0,1,9.1-1.83q47.82,31.8,95.93,63.16c3,2,3.54,6.48,1.11,10.05A799.22,799.22,0,0,1,536.88,570.68C533.61,573.54,529,573.61,526.65,570.89Z"/><path class="cls-2" d="M526.46,570.67q-37.67-43.36-74.92-87.06a6.62,6.62,0,0,1,.78-9.27A671.55,671.55,0,0,0,567.42,344.9a6.6,6.6,0,0,1,9.1-1.82q47.82,31.8,95.93,63.16c3,2,3.54,6.47,1.11,10.05a799.3,799.3,0,0,1-136.87,154.2C533.42,573.32,528.82,573.39,526.46,570.67Z"/><path class="cls-3" d="M596.39,453c-.32-10-8.81-16.7-18.6-15.29l-.13,0a.57.57,0,0,0,0-.13c-.47-9.87-8.94-16.54-18.57-15.32h0a19.3,19.3,0,0,0-16.76,19.41v.13h0q.43,17.57-.05,35.43h0q17.93-1.26,36.09-3.5h0l.13,0c10.06-1.21,18.23-10.69,17.9-20.73Z"/><path class="cls-4" d="M573.78,369.36a3.2,3.2,0,0,0-3.76-2.68h0v0a3.21,3.21,0,0,0-3.76-2.68h0a3.39,3.39,0,0,0-2.75,3.82v0h0c.32,2.17.64,4.35.94,6.53h0l6.54-1.11h0a3.46,3.46,0,0,0,2.79-3.88Z"/><path class="cls-5" d="M573.46,363.88l.28-.4,1,.71.93-3.64-2.95-2.05-3.07,2.11.77.54a.64.64,0,0,1,.15.13c.11.13.09.3-.07.53L567.86,360l.28-.4.93.65q4.59-3.12,9.15-6.33l.91.62q-1.23,5.49-2.56,11l.45.32a.69.69,0,0,1,.15.13c.11.13.09.3-.07.53Zm3.46-8.33q-1.86,1.31-3.73,2.6L575.8,360C576.18,358.5,576.56,357,576.92,355.55Z"/><path class="cls-6" d="M538.3,543.7a2.93,2.93,0,0,0,3.14,3.38h0v0a2.92,2.92,0,0,0,3.14,3.38h0a4.37,4.37,0,0,0,4-3.71v0h0c.28-2.36.56-4.72.82-7.07h0q-3.59.2-7.15.35h0a4.33,4.33,0,0,0-4,3.67Z"/><path class="cls-7" d="M537,549.51l-.42.38-.83-.9c-.7,1.22-1.39,2.45-2.1,3.67l2.41,2.66,3.89-1.74-.64-.69a.61.61,0,0,1-.12-.16c-.08-.15,0-.33.24-.55l2.19,2.38-.42.38-.77-.84q-5.82,2.61-11.65,5.1l-.73-.82q3.15-5.5,6.19-11l-.37-.41a.74.74,0,0,1-.12-.16c-.08-.15,0-.33.23-.55Zm-6.29,8.16,4.75-2.08-2.14-2.36Q532.05,555.45,530.73,557.67Z"/><path class="cls-1" d="M96.49,154.65Q53.9,161.3,11.32,167.9c-2.67.42-5.26-1.89-5.73-5.18A541.84,541.84,0,0,1,5.92,5.23C6.41,2,9-.35,11.67.09q42.54,6.86,85.1,13.68a5,5,0,0,1,4.08,5.65,446.35,446.35,0,0,0-.26,129.6A5,5,0,0,1,96.49,154.65Z"/><path class="cls-8" d="M96.84,154.68q-42.58,6.65-85.17,13.25c-2.67.42-5.26-1.9-5.73-5.18A542.32,542.32,0,0,1,6.27,5.19C6.76,1.91,9.35-.39,12,.05q42.54,6.86,85.1,13.68a5,5,0,0,1,4.08,5.65A446.07,446.07,0,0,0,100.94,149,5,5,0,0,1,96.84,154.68Z"/><path class="cls-9" d="M32.23,84Q40.32,96.34,49,107.85,56.53,95.6,64.66,84.12q-8.08-11.52-15.6-23.8Q40.39,71.78,32.23,84Z"/><path class="cls-10" d="M16.5,17.6c0-.14,0-.28.05-.43l.91.12c-.2-1.05-.4-2.11-.59-3.16l-2.67-.36c-.46,1-.92,2-1.37,2.93l.7.09.14,0c.12.05.16.19.13.44L11.39,17l.06-.43.85.11q2-4.38,4.16-8.7l.82.12c.59,3.17,1.2,6.32,1.85,9.46l.41,0,.14,0c.12.05.16.19.13.43Zm-.39-7.83C15.54,11,15,12.13,14.42,13.32l2.37.32C16.55,12.35,16.33,11.06,16.11,9.77Z"/><path class="cls-11" d="M11,24.77c1,2.07,2,4.14,3,6.19,1.42-1.8,2.84-3.58,4.28-5.35q-1.5-3.08-3-6.18C13.91,21.19,12.47,23,11,24.77Z"/><path class="cls-12" d="M88.2,141.51c0,.12,0,.25,0,.37l-.91.11c.44.84.88,1.67,1.33,2.5l2.67-.35.63-2.73-.7.09h-.15c-.13,0-.2-.12-.23-.33l2.41-.3c0,.12,0,.24,0,.36l-.85.11q-1,4.07-1.87,8.16l-.82.12c-1.4-2.46-2.78-4.93-4.14-7.43l-.41.05h-.15c-.13,0-.2-.12-.23-.33Zm2.3,6.39c.24-1.12.49-2.23.75-3.34l-2.37.31Q89.68,146.4,90.5,147.9Z"/><path class="cls-13" d="M84.68,134.41c1.4,1.54,2.8,3.06,4.22,4.57,1-1.8,2-3.58,3.09-5.36-1.4-1.51-2.78-3-4.16-4.57Q86.24,131.7,84.68,134.41Z"/><path class="cls-1" d="M146.1,230,98,283a4.07,4.07,0,0,1-5.75.27L12.63,210.88a4.07,4.07,0,0,1-.27-5.75l48.14-53a4.07,4.07,0,0,1,5.75-.27l79.58,72.34A4.08,4.08,0,0,1,146.1,230Z"/><path class="cls-14" d="M146,230.12l-48.14,53a4.07,4.07,0,0,1-5.75.27L12.5,211a4.07,4.07,0,0,1-.27-5.75l48.14-53a4.07,4.07,0,0,1,5.75-.27l79.58,72.34A4.08,4.08,0,0,1,146,230.12Z"/><path class="cls-15" d="M86.41,205h-.07l-20,1h0l1,20h0v.07a10,10,0,0,0,10.48,9.52h0a10,10,0,0,0,9.29-7.81,16.59,16.59,0,0,1,2.14,4.57L91,230.41,93,228.15l1.75-1.92a16.46,16.46,0,0,1-4.75-1.7,10,10,0,0,0,6.89-10h0A10,10,0,0,0,86.41,205Z"/><path class="cls-16" d="M28.72,209.92h0L25,210.1h0l.18,3.72h0a1.86,1.86,0,0,0,1.95,1.77h0a1.86,1.86,0,0,0,1.73-1.45,3,3,0,0,1,.4.85l.32-.36.38-.42.32-.36a3.1,3.1,0,0,1-.88-.32,1.86,1.86,0,0,0,1.28-1.86h0A1.86,1.86,0,0,0,28.72,209.92Z"/><path class="cls-17" d="M24.64,208.77l-.22-.2.51-.57-2.13-.82-1.5,1.66,1,2,.39-.43.09-.08c.09-.06.19,0,.32.08l-1.36,1.49-.22-.2.48-.52L19,205.14l.46-.51L25.87,207l.23-.25a.22.22,0,0,1,.09-.08c.09-.06.19,0,.32.08Zm-4.76-2.71,1.26,2.47,1.33-1.47Z"/><path class="cls-18" d="M129.6,225.35h0l3.72-.18h0l-.18-3.72h0a1.86,1.86,0,0,0-2-1.77h0a1.86,1.86,0,0,0-1.73,1.45,3,3,0,0,1-.4-.85l-.32.36-.38.42-.32.36a3.1,3.1,0,0,1,.88.32,1.86,1.86,0,0,0-1.28,1.86h0A1.87,1.87,0,0,0,129.6,225.35Z"/><path class="cls-19" d="M133.68,226.49l.22.2-.51.57,2.13.82,1.51-1.66-1-2-.39.43-.09.08c-.09.06-.19,0-.32-.08l1.36-1.49.22.2-.48.52,3.06,6.07-.46.51-6.44-2.35-.23.25a.22.22,0,0,1-.09.08c-.09.06-.19,0-.32-.08Zm4.76,2.71-1.26-2.47-1.33,1.47Z"/></g></g></svg>