<svg xmlns="http://www.w3.org/2000/svg" xmlns:xlink="http://www.w3.org/1999/xlink" viewBox="0 0 104.23 115.41"><defs><style>.cls-1{isolation:isolate;}.cls-2{fill:#672f0f;}.cls-3{fill:url(#linear-gradient);}.cls-4{fill:url(#linear-gradient-2);}.cls-5{fill:#ffdc4d;}.cls-6{fill:url(#linear-gradient-3);}.cls-11,.cls-7{opacity:0.71;}.cls-11,.cls-13,.cls-7{mix-blend-mode:screen;}.cls-7{fill:url(#linear-gradient-4);}.cls-8{fill:url(#linear-gradient-5);}.cls-9{fill:url(#linear-gradient-6);}.cls-10{fill:#d28311;}.cls-11{fill:url(#linear-gradient-7);}.cls-12,.cls-13{opacity:0.39;}.cls-14{fill:url(#linear-gradient-8);}</style><linearGradient id="linear-gradient" x1="-58.13" y1="489.43" x2="17.94" y2="565.5" gradientTransform="translate(436.98 -298.49) rotate(45)" gradientUnits="userSpaceOnUse"><stop offset="0" stop-color="#af6017"/><stop offset="1" stop-color="#7e3711"/></linearGradient><linearGradient id="linear-gradient-2" x1="989.49" y1="-825.86" x2="934.23" y2="-730.16" gradientTransform="translate(-475.65 1175.41) rotate(-25.74)" gradientUnits="userSpaceOnUse"><stop offset="0" stop-color="#ffdc4d"/><stop offset="0.24" stop-color="#fdd849"/><stop offset="0.48" stop-color="#f7cb3d"/><stop offset="0.74" stop-color="#ecb62a"/><stop offset="0.99" stop-color="#de990e"/><stop offset="1" stop-color="#dd980d"/></linearGradient><linearGradient id="linear-gradient-3" x1="990.51" y1="-825.85" x2="935.33" y2="-730.28" gradientTransform="translate(-494.71 1166.02) rotate(-24.77)" gradientUnits="userSpaceOnUse"><stop offset="0" stop-color="#d28311"/><stop offset="0.29" stop-color="#cf8011"/><stop offset="0.52" stop-color="#c57712"/><stop offset="0.72" stop-color="#b56813"/><stop offset="0.91" stop-color="#9e5314"/><stop offset="1" stop-color="#904615"/></linearGradient><linearGradient id="linear-gradient-4" x1="990.51" y1="-825.85" x2="935.33" y2="-730.28" gradientTransform="translate(-494.71 1166.02) rotate(-24.77)" gradientUnits="userSpaceOnUse"><stop offset="0" stop-color="#fdc712"/><stop offset="0.03" stop-color="#e7b610"/><stop offset="0.09" stop-color="#b7900d"/><stop offset="0.17" stop-color="#8b6e0a"/><stop offset="0.24" stop-color="#665007"/><stop offset="0.33" stop-color="#463705"/><stop offset="0.41" stop-color="#2c2303"/><stop offset="0.51" stop-color="#191302"/><stop offset="0.62" stop-color="#0b0801"/><stop offset="0.76" stop-color="#020200"/><stop offset="1"/></linearGradient><linearGradient id="linear-gradient-5" x1="988.91" y1="-822.34" x2="937.81" y2="-733.83" gradientTransform="translate(-523.19 1151.41) rotate(-23.3)" xlink:href="#linear-gradient-2"/><linearGradient id="linear-gradient-6" x1="919.16" y1="-778.12" x2="1008.94" y2="-778.12" gradientTransform="translate(-562.66 1129.57) rotate(-21.22)" gradientUnits="userSpaceOnUse"><stop offset="0" stop-color="#af6017"/><stop offset="0.62" stop-color="#7e3711"/><stop offset="1" stop-color="#af6017"/></linearGradient><linearGradient id="linear-gradient-7" x1="986.49" y1="-823.41" x2="940.3" y2="-732.76" gradientTransform="translate(-77.14 1287.14) rotate(-45)" gradientUnits="userSpaceOnUse"><stop offset="0" stop-color="#fdc712"/><stop offset="0.06" stop-color="#d7a90f"/><stop offset="0.16" stop-color="#a5820c"/><stop offset="0.26" stop-color="#795f09"/><stop offset="0.36" stop-color="#534206"/><stop offset="0.47" stop-color="#352a04"/><stop offset="0.58" stop-color="#1e1702"/><stop offset="0.7" stop-color="#0d0a01"/><stop offset="0.83" stop-color="#030200"/><stop offset="1"/></linearGradient><linearGradient id="linear-gradient-8" x1="288.04" y1="-273.41" x2="288.04" y2="-216.4" gradientTransform="matrix(1.03, -0.21, 0.2, 0.98, -197.37, 335.77)" gradientUnits="userSpaceOnUse"><stop offset="0" stop-color="#ffdc4d"/><stop offset="0.1" stop-color="#e1c244"/><stop offset="0.44" stop-color="#827027"/><stop offset="0.71" stop-color="#3c3412"/><stop offset="0.9" stop-color="#110e05"/><stop offset="1"/></linearGradient></defs><g class="cls-1"><g id="Capa_2" data-name="Capa 2"><g id="Capa_1-2" data-name="Capa 1"><g id="Money"><ellipse class="cls-2" cx="48.58" cy="61.62" rx="47.2" ry="55" transform="translate(-20.88 25.12) rotate(-24.02)"/><path class="cls-3" d="M92.93,92.78l-.82-.92c11-20,7.4-48.17-10-67.4s-42.79-23.23-60.88-11l-.82-.91L13.66,20l-.11.11c-17.86,19.78-16.11,53.78,3.91,76s50.72,24.1,68.59,4.32a1,1,0,0,1,.1-.11Z"/><ellipse class="cls-4" cx="52.86" cy="56.87" rx="48.52" ry="55.28" transform="matrix(0.94, -0.33, 0.33, 0.94, -15.8, 20.62)"/><ellipse class="cls-5" cx="56.03" cy="53.37" rx="46.46" ry="54.89" transform="translate(-17.74 30.01) rotate(-26.04)"/><ellipse class="cls-6" cx="53.58" cy="56.09" rx="48.29" ry="55.22" transform="translate(-16.09 21.98) rotate(-20.23)"/><ellipse class="cls-7" cx="53.58" cy="56.09" rx="48.29" ry="55.22" transform="translate(-16.09 21.98) rotate(-20.23)"/><ellipse class="cls-8" cx="53.87" cy="55.76" rx="44.46" ry="51.18" transform="translate(-16.8 23.87) rotate(-21.7)"/><ellipse class="cls-9" cx="54.33" cy="55.25" rx="43.88" ry="51.07" transform="translate(-17.66 26.6) rotate(-23.78)"/><ellipse class="cls-10" cx="53.89" cy="55.73" rx="43.32" ry="50.98" transform="translate(-18.74 28.63) rotate(-25.5)"/><path class="cls-5" d="M57.61,59.58a2.73,2.73,0,0,0,1-.59,3.93,3.93,0,0,0,1.13-2.73,5.71,5.71,0,0,0-.91-3.35,3.54,3.54,0,0,0-4-1.78,2.68,2.68,0,0,0-1,.59,3.93,3.93,0,0,0-1.13,2.73,5.66,5.66,0,0,0,.91,3.34C54.64,59.34,56.23,60.06,57.61,59.58ZM55,55.22a1.5,1.5,0,0,1,.45-1,1,1,0,0,1,.39-.24,1.14,1.14,0,0,1,1.31.53A1.69,1.69,0,0,1,57,56.53a1.08,1.08,0,0,1-1.71-.29A1.72,1.72,0,0,1,55,55.22Z"/><path class="cls-5" d="M82,30.59c-6-6.15-12.78-10.13-19.54-11.52A25.54,25.54,0,0,0,48.93,20,26.17,26.17,0,0,0,42.3,23.4c-5.75,4.12-10.17,10.87-12.42,19a44.34,44.34,0,0,0-1.66,12.93,31.47,31.47,0,0,0,3.5,13.85c3.87,7.52,10.19,13.36,17.36,16a22.07,22.07,0,0,0,10.51,1.36,16,16,0,0,0,2.92-.68A12.85,12.85,0,0,0,65,84.72a20.34,20.34,0,0,0,4.71-4.22A34.22,34.22,0,0,0,78,57.86C77.94,48.74,74.33,40,68.59,35a18.13,18.13,0,0,0-8.07-4.2A12.09,12.09,0,0,1,67,32.3a16.72,16.72,0,0,1,4.57,4.14,1.57,1.57,0,0,0,1.71.67.35.35,0,0,0,.14-.06l1-.52L74,38.78a2.66,2.66,0,0,0,.3,1.79l.12.21c1.19,2.16,2.19,4.42,3.1,6.54l.37.86c.79,1.84,1.54,3.58,2.14,5.38a18.15,18.15,0,0,1,1,5.78,25.05,25.05,0,0,1-.17,2.77,2.71,2.71,0,0,0,.31,1.56,2.23,2.23,0,0,0,1.08,1l.46.18-1.9.87A1.45,1.45,0,0,0,80,66.8c-2,9.35-5.16,15.28-9.56,18.12a12.59,12.59,0,0,1-2.76,1.33l-1,.32-.08,0a1.78,1.78,0,0,0-.86,2.18l0,.14-1.06-1.14a1.66,1.66,0,0,0-1.35-.58c-.76.1-1.57.17-2.55.23-1.36.09-2.75.15-4.1.22l-1.57.07-1.51.08c-1.36.08-2.76.17-4.13.14a11.73,11.73,0,0,1-3.07-.43,1.24,1.24,0,0,0-.74,0,1.36,1.36,0,0,0-.82.89l-.47-1.1a2.39,2.39,0,0,0-.93-1.11A21.43,21.43,0,0,1,41,84.42a51.05,51.05,0,0,1-7.15-7.91,84.62,84.62,0,0,1-5.06-7.09,1.78,1.78,0,0,0-1.64-1l.1-.29a2.57,2.57,0,0,0-.18-1.85c-.1-.2-.19-.41-.29-.61a26.7,26.7,0,0,1-2.36-11.1,44.77,44.77,0,0,1,1.45-11c.12-.51.26-1,.4-1.54a29.22,29.22,0,0,0,.95-4.42,17.76,17.76,0,0,0-.63-6.73,36.93,36.93,0,0,0-2.32-6,1.79,1.79,0,0,0-2-1.18l-.07,0a1.89,1.89,0,0,0-.73,2.37A19.39,19.39,0,0,1,21.3,36.7c-.47,1.84-1.08,3.58-1.72,5.42a60.2,60.2,0,0,0-2.06,6.77c-2.07,9.27.62,19,3.24,25.55a53.94,53.94,0,0,0,7.26,13,41,41,0,0,0,8.19,8,35.55,35.55,0,0,0,19.43,7.08A33.2,33.2,0,0,0,68,100.63,39.86,39.86,0,0,0,76,96.81a48.53,48.53,0,0,0,8.57-6.88A33.54,33.54,0,0,0,92,79.54a47.41,47.41,0,0,0,3.19-12.79,40,40,0,0,0-.51-13.63A47.72,47.72,0,0,0,82,30.59ZM93.09,53.31a37.5,37.5,0,0,1,.47,12.78A45.48,45.48,0,0,1,90.5,78.34a31.89,31.89,0,0,1-7.11,9.92A47.82,47.82,0,0,1,75,95a38.43,38.43,0,0,1-7.7,3.71,31.88,31.88,0,0,1-11.93,1.82,34.11,34.11,0,0,1-18.58-6.76,38.38,38.38,0,0,1-7.75-7.55,51,51,0,0,1-6.89-12.37c-3.06-7.63-4.83-16.3-3.1-24.05.94-4.23,2.7-8,3.76-12.13a22,22,0,0,0,.09-12,35.27,35.27,0,0,1,2.15,5.59A15.25,15.25,0,0,1,25.63,37a48.36,48.36,0,0,1-1.31,5.71A48.08,48.08,0,0,0,22.8,54.23a29.58,29.58,0,0,0,2.62,12.22c.1.22.21.44.32.66l-2.52,5,4.36-1.66a86.62,86.62,0,0,0,5.21,7.31A52.23,52.23,0,0,0,40.29,86,21.78,21.78,0,0,0,43,88l2.73,6.42.63-4.94a13.22,13.22,0,0,0,3.4.48c1.92,0,3.82-.13,5.72-.22s3.8-.17,5.7-.29c.87-.06,1.74-.13,2.61-.24l4.83,5.17-1.35-5.83c.36-.1.72-.21,1.08-.34a13.88,13.88,0,0,0,3-1.45c5.69-3.68,8.54-11.5,10.19-19.11l5.74-4.13-4.87-.77a27.72,27.72,0,0,0,.18-3,20.65,20.65,0,0,0-1.13-6.62c-.73-2.21-1.68-4.33-2.59-6.46-1-2.31-2-4.6-3.22-6.78l-.13-.23,1-8L72.6,35.15a18.92,18.92,0,0,0-5.16-4.67,14.64,14.64,0,0,0-9.23-1.59l-4.39-6.53.92,7.18a18.07,18.07,0,0,0-1.77.54,21.94,21.94,0,0,0-10.53,7.66l-5.19-2.52,3.92,4.44c-.25.43-.5.87-.73,1.33A27.37,27.37,0,0,0,38.6,59.93l-5.66,1.49,6.87,2c2,4.58,5.42,8.45,9.28,10.33l2.82,6.68L52,74.72a12.49,12.49,0,0,0,3.26.22,10.58,10.58,0,0,0,2.77-.58,13.43,13.43,0,0,0,4.32-2.56l4.79,2.42-1.93-5.44a37.51,37.51,0,0,0,3.62-5.63,16,16,0,0,0,2-8.43l3.8-3.54-4.3.54a20.23,20.23,0,0,0-5.8-9.33,9.43,9.43,0,0,0-3.25-2l-.87-5-1.29,4.71a7,7,0,0,0-1.57.35,13.88,13.88,0,0,0-2,1c-3,1.7-6.33,3.67-7.5,7.81a17.06,17.06,0,0,0-.58,4.68l-3.89-1.06,4,3.38c.18,1.8.64,3.79,2.05,4.66a2.09,2.09,0,0,0,1.73.3,1.41,1.41,0,0,0,.49-.31,2.8,2.8,0,0,0,.41-2.53c-.17-.83-.45-1.64-.63-2.47a14.35,14.35,0,0,1-.31-2.51c-.12-3.44,1-6.74,3.11-8.69a7.55,7.55,0,0,1,2.67-1.62,7.74,7.74,0,0,1,5.28.11,0,0,0,0,1,0,.06,11.76,11.76,0,0,0-.66,1.44.55.55,0,0,0,0,.47,2.85,2.85,0,0,0,.23.37l.41.67,1.79,2.89a0,0,0,0,1,0,0,8,8,0,0,1-1.86-1.46,2.08,2.08,0,0,0-1.26-.52.85.85,0,0,0-.24,0,1.19,1.19,0,0,0-.67,1,16.33,16.33,0,0,0-.18,5,21.15,21.15,0,0,0,.39,2.34c.11.46.23.92.38,1.38a2.72,2.72,0,0,0,.18.55c.06.12,0,.15.15.14s.19-.21.2-.22a64.77,64.77,0,0,0,6.19-8.16c.47,3.77-.9,7-2.28,10-1.75,3.76-3.56,7.73-6.46,10.26a10.1,10.1,0,0,1-3.22,1.91,7.21,7.21,0,0,1-5.3-.15c-2.71-1.15-5-3.83-6.47-6.87A22,22,0,0,1,41.6,53.86a25,25,0,0,1,8.49-18,14.5,14.5,0,0,1,4.66-2.78,10.56,10.56,0,0,1,4.49-.56,15.79,15.79,0,0,1,8.61,4c5.58,4.86,8.49,13.14,8.55,20.94A32.53,32.53,0,0,1,68.53,78.9a19.46,19.46,0,0,1-4.42,4,11.82,11.82,0,0,1-2.28,1.07,13.14,13.14,0,0,1-2.69.63,20.62,20.62,0,0,1-9.87-1.28A31,31,0,0,1,33,68.33a29,29,0,0,1-3.2-12.67,42.44,42.44,0,0,1,1.58-12.28c2.12-7.66,6.28-14.17,11.87-18.17a24.79,24.79,0,0,1,6.33-3.29,24.19,24.19,0,0,1,12.85-.85c6.7,1.37,13.19,5.44,18.63,11S91.25,45,93.09,53.31ZM57.5,30.51c-.43,0-.85.06-1.27.12a2.37,2.37,0,0,0,.1-1.05l-.11-.8L57.06,30A2.33,2.33,0,0,0,57.5,30.51ZM42.15,64.58c-.35-.62-.67-1.26-1-1.91a2.15,2.15,0,0,0-1.29-1.26,2.22,2.22,0,0,0,.22-1.8,25,25,0,0,1,1.73-17.32c.21-.42.44-.84.68-1.25a2.13,2.13,0,0,0,.24-1.27,1.36,1.36,0,0,0,.35-.07,1.26,1.26,0,0,0,.59-.44,20.37,20.37,0,0,1,4.78-4.62A26.93,26.93,0,0,0,40,53.41,24.79,24.79,0,0,0,42.15,64.58Zm22.14,6.14-1.55-.79a1.37,1.37,0,0,0-1-.09,1,1,0,0,0-.38.22,15.66,15.66,0,0,1-1.59,1.19l.09-.08c3.06-2.67,4.91-6.64,6.71-10.49l.11-.25a24.51,24.51,0,0,0,2.49-7.77,2.57,2.57,0,0,0,.46.6,2,2,0,0,0-.29,1.23,14,14,0,0,1-1.83,7.33A36.21,36.21,0,0,1,64,67.23a2.2,2.2,0,0,0-.21,2.07Zm2.37-23.45a1.34,1.34,0,0,0-.49.46l-.52.79a2.56,2.56,0,0,0-.23-.47l-1.79-2.89-.05-.08,0-.06c.1-.18.19-.36.27-.53a2.11,2.11,0,0,0,.12-.38A17,17,0,0,1,66.66,47.27Zm-17.78,8a2,2,0,0,0,.24-1,14.72,14.72,0,0,1,.5-4.07,8.25,8.25,0,0,1,.55-1.44,16.51,16.51,0,0,0-.42,4.32,17.58,17.58,0,0,0,.36,3c.11.48.23.92.35,1.34s.21.76.28,1.1a1.68,1.68,0,0,1,0,.69s0,0-.06,0a.78.78,0,0,1-.57-.11c-.58-.37-.82-1.7-.93-2.75A2.73,2.73,0,0,0,48.88,55.3Zm15-4.26c-.72,1-1.45,1.93-2.21,2.84,0-.21-.06-.42-.08-.63a14.21,14.21,0,0,1,.08-3.9l.44.4A6.38,6.38,0,0,0,63.89,51Z"/><path class="cls-2" d="M57.15,58.28a2.85,2.85,0,0,0,1-.6A4,4,0,0,0,59.26,55a5.62,5.62,0,0,0-.92-3.34,3.53,3.53,0,0,0-4-1.79,2.54,2.54,0,0,0-1,.6,3.94,3.94,0,0,0-1.14,2.72,5.7,5.7,0,0,0,.92,3.35A3.54,3.54,0,0,0,57.15,58.28Zm-2.6-4.37a1.51,1.51,0,0,1,.44-1,1,1,0,0,1,.39-.25,1.16,1.16,0,0,1,1.32.53,1.68,1.68,0,0,1-.18,2.06,1.07,1.07,0,0,1-1.7-.29A1.72,1.72,0,0,1,54.55,53.91Z"/><path class="cls-2" d="M81.5,29.29c-6-6.16-12.77-10.14-19.53-11.52a25.48,25.48,0,0,0-13.5.88,26.15,26.15,0,0,0-6.63,3.44c-5.75,4.12-10.16,10.88-12.42,19A44.68,44.68,0,0,0,27.76,54a31.62,31.62,0,0,0,3.51,13.85c3.86,7.52,10.19,13.36,17.36,16a22,22,0,0,0,10.5,1.36,14.15,14.15,0,0,0,2.92-.68,13.42,13.42,0,0,0,2.51-1.18,20.23,20.23,0,0,0,4.72-4.23,34.29,34.29,0,0,0,8.28-22.64c-.07-9.12-3.68-17.89-9.43-22.88a18.28,18.28,0,0,0-8.07-4.2A12.18,12.18,0,0,1,66.54,31a16.58,16.58,0,0,1,4.57,4.14,1.58,1.58,0,0,0,1.72.67l.14,0,1-.53-.48,2.25a2.59,2.59,0,0,0,.29,1.79l.12.21c1.19,2.16,2.2,4.42,3.11,6.55l.36.85c.8,1.84,1.55,3.59,2.15,5.39a18,18,0,0,1,1,5.77,22.71,22.71,0,0,1-.17,2.77,2.69,2.69,0,0,0,.32,1.56,2.17,2.17,0,0,0,1.07,1l.46.18-1.9.87a1.45,1.45,0,0,0-.77,1.07c-2,9.35-5.16,15.28-9.57,18.12a12.38,12.38,0,0,1-2.76,1.33c-.32.12-.66.22-1,.32l-.07,0a1.78,1.78,0,0,0-.86,2.18l0,.14-1.06-1.13a1.59,1.59,0,0,0-1.35-.58c-.75.09-1.56.16-2.54.22-1.36.09-2.76.16-4.1.22l-1.58.07-1.5.09c-1.36.08-2.77.16-4.14.14A12.56,12.56,0,0,1,46,86.2a1.2,1.2,0,0,0-.75,0,1.38,1.38,0,0,0-.82.89L44,86A2.32,2.32,0,0,0,43,84.89a19.48,19.48,0,0,1-2.47-1.78,50.61,50.61,0,0,1-7.16-7.91,81.29,81.29,0,0,1-5.05-7.09,1.81,1.81,0,0,0-1.64-1l.09-.28A2.58,2.58,0,0,0,26.62,65c-.1-.2-.2-.4-.29-.61A26.68,26.68,0,0,1,24,53.28a45.25,45.25,0,0,1,1.45-11c.13-.51.26-1,.41-1.54a31.58,31.58,0,0,0,.95-4.42,17.78,17.78,0,0,0-.63-6.73,36.93,36.93,0,0,0-2.32-6,1.77,1.77,0,0,0-2-1.17.13.13,0,0,0-.08,0A1.88,1.88,0,0,0,21,24.77a19.43,19.43,0,0,1-.15,10.63c-.47,1.83-1.07,3.57-1.72,5.41a60.2,60.2,0,0,0-2.06,6.77c-2.06,9.27.63,19,3.25,25.55a53.87,53.87,0,0,0,7.26,13,41.19,41.19,0,0,0,8.18,8,35.61,35.61,0,0,0,19.44,7.08,33.37,33.37,0,0,0,12.36-1.88,39.39,39.39,0,0,0,7.94-3.83,48.59,48.59,0,0,0,8.58-6.88A33.53,33.53,0,0,0,91.5,78.23a47.67,47.67,0,0,0,3.2-12.79,40.25,40.25,0,0,0-.51-13.63A47.71,47.71,0,0,0,81.5,29.29ZM92.64,52a37.5,37.5,0,0,1,.46,12.78,45.47,45.47,0,0,1-3,12.25A31.91,31.91,0,0,1,82.93,87a46.56,46.56,0,0,1-8.36,6.7,39,39,0,0,1-7.7,3.72A32,32,0,0,1,55,99.18a34.2,34.2,0,0,1-18.59-6.75,38.93,38.93,0,0,1-7.74-7.56,51.16,51.16,0,0,1-6.9-12.36c-3-7.64-4.83-16.31-3.1-24.06.94-4.23,2.71-8,3.77-12.13a21.85,21.85,0,0,0,.08-12,33.88,33.88,0,0,1,2.15,5.58,15.31,15.31,0,0,1,.55,5.76,46.29,46.29,0,0,1-1.31,5.7,47.59,47.59,0,0,0-1.51,11.55A29.53,29.53,0,0,0,25,65.14c.1.22.2.44.31.66l-2.06,6.32,3.91-3a84,84,0,0,0,5.21,7.32,52.6,52.6,0,0,0,7.5,8.26,21,21,0,0,0,2.72,2l2.74,6.42.62-4.94a13.3,13.3,0,0,0,3.41.48c1.91,0,3.81-.13,5.72-.22s3.8-.17,5.69-.29c.87-.06,1.75-.13,2.61-.24l4.83,5.18-1.35-5.84q.56-.15,1.08-.33a13.94,13.94,0,0,0,3-1.46c5.7-3.68,8.54-11.49,10.2-19.11l6.19-2.82L82,61.44a23.52,23.52,0,0,0,.18-3A20.91,20.91,0,0,0,81,51.78c-.74-2.2-1.69-4.33-2.6-6.45-1-2.31-2-4.61-3.22-6.79l-.12-.22,1.42-6.68-4.37,2.2A18.77,18.77,0,0,0,67,29.18a14.57,14.57,0,0,0-9.23-1.6l-4.39-6.52.92,7.17c-.59.16-1.18.33-1.77.54A22,22,0,0,0,42,36.43l-4.73-1.21,3.46,3.13c-.25.43-.49.88-.72,1.34a27.39,27.39,0,0,0-1.85,18.93l-5.2,2.8,6.42.65c2,4.58,5.41,8.45,9.28,10.33l2.82,6.69.11-5.68a10.88,10.88,0,0,0,1.41.2,12.71,12.71,0,0,0,1.85,0,10.66,10.66,0,0,0,2.78-.58,13.25,13.25,0,0,0,4.32-2.56l4.78,2.42-1.92-5.44a37,37,0,0,0,3.61-5.63,16,16,0,0,0,2-8.42l4.25-2.24L70,50.42a20.39,20.39,0,0,0-5.8-9.34,9.29,9.29,0,0,0-3.26-2l-.41-3.66-1.75,3.4a6.91,6.91,0,0,0-1.56.35,13.41,13.41,0,0,0-2,1c-3,1.7-6.33,3.67-7.51,7.81a16.78,16.78,0,0,0-.57,4.68l-3.44.25L47.17,55c.17,1.79.64,3.78,2,4.65a2.06,2.06,0,0,0,1.73.3,1.39,1.39,0,0,0,.5-.31,2.75,2.75,0,0,0,.4-2.52c-.16-.84-.45-1.64-.63-2.48a14.23,14.23,0,0,1-.31-2.51c-.11-3.44,1-6.74,3.11-8.69a7.6,7.6,0,0,1,8-1.51A0,0,0,0,1,62,42a11.71,11.71,0,0,0-.65,1.44.55.55,0,0,0,0,.47,3.32,3.32,0,0,0,.23.37l.41.67,1.79,2.89s0,.05,0,.05a8.25,8.25,0,0,1-1.86-1.46,2,2,0,0,0-1.25-.51.69.69,0,0,0-.25,0,1.21,1.21,0,0,0-.67,1,16.33,16.33,0,0,0-.17,4.95,18.72,18.72,0,0,0,.39,2.34c.1.46.23.93.37,1.38a3.22,3.22,0,0,0,.18.55c.06.12,0,.16.15.14s.19-.21.2-.22A65.07,65.07,0,0,0,67,47.86c.46,3.77-.9,7.06-2.28,10C63,61.64,61.2,65.6,58.29,68.13A9.92,9.92,0,0,1,55.07,70a7.19,7.19,0,0,1-5.29-.15c-2.71-1.15-5-3.83-6.48-6.87a22.09,22.09,0,0,1-2.16-10.46,25,25,0,0,1,8.49-18,14.68,14.68,0,0,1,4.67-2.79,10.56,10.56,0,0,1,4.49-.55,15.69,15.69,0,0,1,8.6,4C73,40.13,75.89,48.41,76,56.2a32.59,32.59,0,0,1-7.88,21.39,19.25,19.25,0,0,1-4.42,4,11.59,11.59,0,0,1-2.28,1.08,13.67,13.67,0,0,1-2.69.63A20.78,20.78,0,0,1,48.81,82,31.06,31.06,0,0,1,32.57,67a29.17,29.17,0,0,1-3.2-12.67A43.16,43.16,0,0,1,31,42.07c2.13-7.66,6.28-14.16,11.87-18.17a24.79,24.79,0,0,1,6.33-3.29A24.09,24.09,0,0,1,62,19.77c6.7,1.37,13.19,5.43,18.64,11S90.8,43.7,92.64,52ZM57,29.2c-.42,0-.85.06-1.27.12a2.21,2.21,0,0,0,.1-1l-.1-.81.83,1.24A2.33,2.33,0,0,0,57,29.2ZM41.7,63.27a20,20,0,0,1-1-1.91,2.2,2.2,0,0,0-1.3-1.26,2.22,2.22,0,0,0,.22-1.8A25,25,0,0,1,41.4,41c.2-.42.43-.84.67-1.24a2.08,2.08,0,0,0,.24-1.28,1.44,1.44,0,0,0,.36-.07,1.18,1.18,0,0,0,.58-.44A20.32,20.32,0,0,1,48,33.34a27,27,0,0,0-8.5,18.76A24.9,24.9,0,0,0,41.7,63.27Zm22.14,6.14-1.56-.78a1.3,1.3,0,0,0-1-.1,1.26,1.26,0,0,0-.39.22,14.3,14.3,0,0,1-1.59,1.19l.09-.08c3.07-2.66,4.92-6.64,6.71-10.49l.12-.25a25,25,0,0,0,2.49-7.76,2.28,2.28,0,0,0,.46.59,2,2,0,0,0-.3,1.23A13.88,13.88,0,0,1,67,60.51a37,37,0,0,1-3.47,5.41A2.2,2.2,0,0,0,63.33,68ZM66.21,46a1.29,1.29,0,0,0-.5.46c-.17.26-.34.53-.52.79a2.27,2.27,0,0,0-.23-.47l-1.78-2.89,0-.08,0-.06c.09-.18.18-.35.26-.53a2.29,2.29,0,0,0,.12-.37A17.37,17.37,0,0,1,66.21,46ZM48.43,54a2.12,2.12,0,0,0,.24-1,14.74,14.74,0,0,1,.49-4.07,9.16,9.16,0,0,1,.56-1.44,16.1,16.1,0,0,0-.43,4.32,17.34,17.34,0,0,0,.37,3c.1.48.23.92.34,1.35s.22.75.28,1.09a1.49,1.49,0,0,1,0,.69.09.09,0,0,1-.06,0,.77.77,0,0,1-.56-.12c-.58-.36-.83-1.7-.93-2.75A2.79,2.79,0,0,0,48.43,54Zm15-4.27c-.72,1-1.46,1.93-2.21,2.84,0-.21-.06-.42-.08-.63a14.25,14.25,0,0,1,.07-3.9c.13.11.29.25.44.4A6.24,6.24,0,0,0,63.44,49.73Z"/><path class="cls-11" d="M87.54,93a37.22,37.22,0,0,1-12.13,9c-16.08,7.41-36.61,2.7-51.16-13.41C5.67,68,3.88,36.61,20.25,18.48S65,2.34,83.54,22.91,103.91,74.86,87.54,93Z"/><g class="cls-12"><path class="cls-5" d="M30.68,103.48l3.58-4.63-2-3L85.75,25.51A41.39,41.39,0,0,1,92.33,35.7L42.19,101.64,45,103.88l-3.5,4.91A43.26,43.26,0,0,1,30.68,103.48Z"/></g><g class="cls-12"><path class="cls-5" d="M87.59,25.79l3.18-4.06a59.77,59.77,0,0,1,7.84,13L95.11,39A55.43,55.43,0,0,0,87.59,25.79Z"/></g><g class="cls-12"><path class="cls-5" d="M94.44,40.34l-47.68,63a5.59,5.59,0,0,0,2.75,1.81l-3.59,4.94a29.27,29.27,0,0,0,4.93.93l3-5.21a16.58,16.58,0,0,1-3.31-1.44L95.75,43.86S94.66,40.83,94.44,40.34Z"/></g><g class="cls-12"><path class="cls-5" d="M96.68,43.3,100,38.1s.57,1.39,1.66,4.9l-3.59,5.51A45.23,45.23,0,0,0,96.68,43.3Z"/></g><g class="cls-13"><path class="cls-14" d="M48.33,41.66c-22,4.9-30.68,45-34.5,24.08C9,39,16,14.56,42.76,8.4,61.5,4.09,87.59,23.33,93.5,46.88,100.08,73.17,77.9,35.05,48.33,41.66Z"/></g></g></g></g></g></svg>