<svg xmlns="http://www.w3.org/2000/svg" xmlns:xlink="http://www.w3.org/1999/xlink" viewBox="0 0 112.06 113.52"><defs><style>.cls-1{isolation:isolate;}.cls-2{fill:#672f0f;}.cls-3{fill:url(#linear-gradient);}.cls-4{fill:url(#linear-gradient-2);}.cls-5{fill:#ffdc4d;}.cls-6{fill:url(#linear-gradient-3);}.cls-11,.cls-7{opacity:0.71;}.cls-11,.cls-13,.cls-7{mix-blend-mode:screen;}.cls-7{fill:url(#linear-gradient-4);}.cls-8{fill:url(#linear-gradient-5);}.cls-9{fill:url(#linear-gradient-6);}.cls-10{fill:#d28311;}.cls-11{fill:url(#linear-gradient-7);}.cls-12,.cls-13{opacity:0.39;}.cls-14{fill:url(#linear-gradient-8);}</style><linearGradient id="linear-gradient" x1="1180.75" y1="1021.48" x2="1256.82" y2="1097.55" gradientTransform="translate(1112.06 -1162.03) rotate(90)" gradientUnits="userSpaceOnUse"><stop offset="0" stop-color="#af6017"/><stop offset="1" stop-color="#7e3711"/></linearGradient><linearGradient id="linear-gradient-2" x1="85.2" y1="8.53" x2="29.5" y2="104.99" gradientUnits="userSpaceOnUse"><stop offset="0" stop-color="#ffdc4d"/><stop offset="0.24" stop-color="#fdd849"/><stop offset="0.48" stop-color="#f7cb3d"/><stop offset="0.74" stop-color="#ecb62a"/><stop offset="0.99" stop-color="#de990e"/><stop offset="1" stop-color="#dd980d"/></linearGradient><linearGradient id="linear-gradient-3" x1="86.28" y1="8.59" x2="30.65" y2="104.93" gradientUnits="userSpaceOnUse"><stop offset="0" stop-color="#d28311"/><stop offset="0.29" stop-color="#cf8011"/><stop offset="0.52" stop-color="#c57712"/><stop offset="0.72" stop-color="#b56813"/><stop offset="0.91" stop-color="#9e5314"/><stop offset="1" stop-color="#904615"/></linearGradient><linearGradient id="linear-gradient-4" x1="86.28" y1="8.59" x2="30.65" y2="104.93" gradientUnits="userSpaceOnUse"><stop offset="0" stop-color="#fdc712"/><stop offset="0.03" stop-color="#e7b610"/><stop offset="0.09" stop-color="#b7900d"/><stop offset="0.17" stop-color="#8b6e0a"/><stop offset="0.24" stop-color="#665007"/><stop offset="0.33" stop-color="#463705"/><stop offset="0.41" stop-color="#2c2303"/><stop offset="0.51" stop-color="#191302"/><stop offset="0.62" stop-color="#0b0801"/><stop offset="0.76" stop-color="#020200"/><stop offset="1"/></linearGradient><linearGradient id="linear-gradient-5" x1="84.69" y1="12.14" x2="33.17" y2="101.38" xlink:href="#linear-gradient-2"/><linearGradient id="linear-gradient-6" x1="12.55" y1="56.76" x2="106.75" y2="56.76" gradientUnits="userSpaceOnUse"><stop offset="0" stop-color="#af6017"/><stop offset="0.62" stop-color="#7e3711"/><stop offset="1" stop-color="#af6017"/></linearGradient><linearGradient id="linear-gradient-7" x1="82.33" y1="10.9" x2="35.6" y2="102.62" gradientUnits="userSpaceOnUse"><stop offset="0" stop-color="#fdc712"/><stop offset="0.06" stop-color="#d7a90f"/><stop offset="0.16" stop-color="#a5820c"/><stop offset="0.26" stop-color="#795f09"/><stop offset="0.36" stop-color="#534206"/><stop offset="0.47" stop-color="#352a04"/><stop offset="0.58" stop-color="#1e1702"/><stop offset="0.7" stop-color="#0d0a01"/><stop offset="0.83" stop-color="#030200"/><stop offset="1"/></linearGradient><linearGradient id="linear-gradient-8" x1="58.97" y1="7.36" x2="58.97" y2="65.84" gradientUnits="userSpaceOnUse"><stop offset="0" stop-color="#ffdc4d"/><stop offset="0.1" stop-color="#e1c244"/><stop offset="0.44" stop-color="#827027"/><stop offset="0.71" stop-color="#3c3412"/><stop offset="0.9" stop-color="#110e05"/><stop offset="1"/></linearGradient></defs><g class="cls-1"><g id="Capa_2" data-name="Capa 2"><g id="Capa_1-2" data-name="Capa 1"><ellipse class="cls-2" cx="50.64" cy="56.76" rx="50.64" ry="56.76"/><path class="cls-3" d="M63.33,113.52v-1.29c22.79-5.54,39.86-28.27,39.86-55.47S86.12,6.83,63.33,1.29V0H52.55C24.58,0,1.91,25.41,1.91,56.76s22.67,56.76,50.64,56.76H63.33Z"/><ellipse class="cls-4" cx="57.35" cy="56.76" rx="52.32" ry="56.76"/><ellipse class="cls-5" cx="62.3" cy="56.76" rx="49.75" ry="56.76"/><ellipse class="cls-6" cx="58.47" cy="56.76" rx="52.02" ry="56.76"/><ellipse class="cls-7" cx="58.47" cy="56.76" rx="52.02" ry="56.76"/><ellipse class="cls-8" cx="58.93" cy="56.76" rx="47.82" ry="52.68"/><ellipse class="cls-9" cx="59.65" cy="56.76" rx="47.1" ry="52.68"/><ellipse class="cls-10" cx="58.97" cy="56.76" rx="46.42" ry="52.68"/><path class="cls-5" d="M51.08,17.51a1.29,1.29,0,0,0-.64.16,1.63,1.63,0,0,0-.51.43c-.06.07-.08.16-.13.23a2.32,2.32,0,0,0-.22.41,2.52,2.52,0,0,0-.13.79,1.66,1.66,0,1,0,3.25,0A1.85,1.85,0,0,0,51.08,17.51Z"/><path class="cls-5" d="M78,62.7l-.31-.19c-.1.11-.09-.26-.09-.11A2.66,2.66,0,0,0,78,64.67c.2.27,5,4.49-.39,11.29-.19.23,0,1.23.26,1.44a.47.47,0,0,0,.33.14c.15,0,.16,0,.26-.08l.13-.12c6-7.57-.06-14.78-.12-14.85C78.22,62.28,78.21,62.47,78,62.7Z"/><path class="cls-5" d="M42.09,62.07c-.14,0-.26,1.51-.36,1.62a10.86,10.86,0,0,0-2.3,7.15,17.68,17.68,0,0,0,.39,3.32,19.41,19.41,0,0,0,1.32,4,.51.51,0,0,0,.45.29.43.43,0,0,0,.25-.07,3.47,3.47,0,0,0,.26-2s-.31.72-.61-.11a17.72,17.72,0,0,1-1.05-5.37,10.39,10.39,0,0,1,2.06-6.49,1.91,1.91,0,0,0,.11-1.67c0-.15-.07-.17-.17-.27S42.23,62.07,42.09,62.07Z"/><path class="cls-5" d="M59.36,11.6C36.05,11.6,17.08,32.42,17.08,58s18.92,46.35,42.2,46.4h.08c23.31,0,42.28-20.82,42.28-46.4S82.67,11.6,59.36,11.6Zm-1.45,90.92a37.35,37.35,0,0,1-5.49-.62L51,88.8ZM42.65,98.6a40,40,0,0,1-7.44-4.8l1.57-18.12ZM88.56,56.86l-6.4,7a2.84,2.84,0,0,0,0,3.76l6.11,6.71a2.29,2.29,0,0,0,1.71.78,2.33,2.33,0,0,0,1.72-.78l5.35-5.87a3.91,3.91,0,0,0,.3-.41,2.86,2.86,0,0,0-.3-3.36l-3.9-4.29c-.46-.5-1.05-1.24-1.7-1.24s-1.28.74-1.74,1.24l-3.67,4a3.08,3.08,0,0,0-.3.41,2.86,2.86,0,0,0,0,2.95,3.08,3.08,0,0,0,.3.41l2,2.16a2.92,2.92,0,0,0,.37.34,2.29,2.29,0,0,0,2.7,0,2.92,2.92,0,0,0,.37-.34l1.64-1.8a2.76,2.76,0,0,0,.71-1.88,3.36,3.36,0,0,0-.71-1.89c-1.43-2.07-2.49-1-3.44,0l-1.22,1.35a.61.61,0,0,0,0,.8l.93,1a.48.48,0,0,0,.36.16.52.52,0,0,0,.37-.16l1.17-1.29a.6.6,0,0,0,.15-.4.64.64,0,0,0-.15-.4.49.49,0,0,0-.73,0l-.81.88-.2-.21.86-.95a1.33,1.33,0,0,1,2,0,1.66,1.66,0,0,1,0,2.17l-1.64,1.8a1.31,1.31,0,0,1-2,0l-2-2.16a1.63,1.63,0,0,1-.4-1.09,1.6,1.6,0,0,1,.4-1.08l3.67-4a1.34,1.34,0,0,1,2,0l3.9,4.28a1.64,1.64,0,0,1,0,2.16L91,73.56a1.32,1.32,0,0,1-2,0l-6.11-6.71a1.62,1.62,0,0,1,0-2.16l6.4-7a1.3,1.3,0,0,1,1.92,0l8.14,8a46.76,46.76,0,0,1-5.56,15.91L84,72a.8.8,0,0,0-.79-.2.92.92,0,0,0-.58.63L76.06,97.22,69.65,85.43V82.55c.33,0,.61-1.54.61-1.85a.55.55,0,0,0-.52-.57s-.09-.14-.09-.14c4.51,0,8.16-4.08,8.16-9s-3.69-9-8.23-9H62v-3a.93.93,0,0,1,.89-1,.9.9,0,0,1,.84.66h-.84a.93.93,0,0,0,0,1.85h1.73a.89.89,0,0,0,.84-.92v-.62a2.58,2.58,0,1,0-5.14,0v3H58.63v-3a2.58,2.58,0,1,0-5.14,0v.62a.89.89,0,0,0,.84.92h1.73a.93.93,0,0,0,0-1.85h-.84a.9.9,0,0,1,.84-.66.93.93,0,0,1,.89,1v3H50.61c-4.53,0-8.23,4.06-8.23,9,0,4.57,3.08,8.39,7.2,9v.51a.55.55,0,0,0-.45.56c0,.29.19,1.53.45,1.57v2.91L44.16,97.65,37.71,72.47a.88.88,0,0,0-.58-.64.85.85,0,0,0-.23,0,.82.82,0,0,0-.56.23L25.54,82.62a46.6,46.6,0,0,1-6-16.2l8.91-8.81a1.3,1.3,0,0,1,1.92,0l6.4,7a1.63,1.63,0,0,1,0,2.16l-5.94,6c-.26.29-.9.81-.72.41.32-.76-.48-.26-.48-.26-.37,0-.61.06-.87-.23L23.3,67.68a1.64,1.64,0,0,1,0-2.16l3.9-4.28a1.34,1.34,0,0,1,2,0l3.67,4a1.6,1.6,0,0,1,.4,1.08,1.63,1.63,0,0,1-.4,1.09l-1.58,1.19a1.57,1.57,0,0,1-1.64.5c-.17-.07-.53.29-.66.14l-1.71-1.47a1.52,1.52,0,0,1-.3-.5,1.63,1.63,0,0,1-.08-.44,2,2,0,0,1,0-.25,1.51,1.51,0,0,1,.09-.47,1.46,1.46,0,0,1,.3-.51,1.32,1.32,0,0,1,2,0l.86.95-.19.21-.81-.88a.49.49,0,0,0-.73,0,.61.61,0,0,0,0,.8L29.53,68a.52.52,0,0,0,.37.16.48.48,0,0,0,.36-.16l.93-1a.61.61,0,0,0,0-.8L30,64.82c-1.65-2.21-2.48-1-3.43,0a2.86,2.86,0,0,0,0,3.77l1.64,1.8a2.33,2.33,0,0,0,1.72.78,2.29,2.29,0,0,0,1.71-.78l2-2.16a2.82,2.82,0,0,0,.71-1.89,2.85,2.85,0,0,0-.41-1.47,3.08,3.08,0,0,0-.3-.41l-3.67-4c-.46-.5-.94-1.37-1.58-1.37s-1.4.87-1.86,1.37l-3.9,4.29a2.76,2.76,0,0,0-.71,1.88,2.81,2.81,0,0,0,.71,1.89l5.35,5.87a2.28,2.28,0,0,0,3.43,0l6.11-6.71a2.84,2.84,0,0,0,0-3.76l-6.4-7c-1.51-2.1-2.38-1-3.34-.09L19.29,65.1A48.75,48.75,0,0,1,18.76,58,46.61,46.61,0,0,1,32.39,24.75L38,30.58a5.93,5.93,0,0,0,8.93,0,4.94,4.94,0,0,1,7.46,0l.25.26a5.91,5.91,0,0,0,8.92,0l.5-.54a5,5,0,0,1,7.46,0l.19.2a5.92,5.92,0,0,0,8.91,0l5.73-5.76A46.63,46.63,0,0,1,100,58a49.55,49.55,0,0,1-.41,6.32L91.9,56.77C90.31,54.65,89.48,55.86,88.56,56.86Zm-10.9,40.9L83.4,76.17,85.6,92c-.61.57-1.24,1.12-1.87,1.65A40.76,40.76,0,0,1,77.66,97.76Zm-7.18,3.09c-1.09.34-2.2.63-3.3.87l1.7-12.19ZM53.63,80v.92H51.26V80Zm-3-16.23h19c3.61,0,6.55,3.23,6.55,7.19s-2.94,7.19-6.55,7.19H66.1V77h3.33a6.12,6.12,0,0,0,0-12.18H51.07a6.12,6.12,0,0,0,0,12.18h2.56v1.1h-3c-3.61,0-6.55-3.23-6.55-7.19S47,63.76,50.61,63.76ZM69.43,75.19H66.1V66.71h3.33a4.26,4.26,0,0,1,0,8.48ZM51.07,66.71h2.56v8.48H51.07a4.26,4.26,0,0,1,0-8.48Zm8.8,15.84a.54.54,0,0,0,.51-.56V66.71h4V83.15a4.57,4.57,0,1,1-9.11,0V66.71h4V82A.54.54,0,0,0,59.87,82.55Zm-8.61,0h2.37v.6c0,3.77,2.8,6.84,6.24,6.84s6.23-3.07,6.23-6.84v-.6H68v3.13l-8.58,15.94L51.26,85.44ZM68,80v1H66.1V80ZM80.46,26.27c-1,1.1-2.36.7-3.78.7s-2.69.4-3.69-.7l-.18-.2c-1.19-1.31-2.71-2.76-4.4-2.76s-3.34,1.45-4.53,2.76l-.49.55c-1,1.09-2.35.5-3.76.5s-2.71.59-3.71-.5l-.24-.27c-1.19-1.31-2.65-3-4.34-3s-3.4,1.73-4.59,3c-1,1.09-2.35.72-3.76.72s-2.71.37-3.71-.72l-3.89-4.28a37.64,37.64,0,0,1,48.48.45Zm-33,.88a5,5,0,0,1,7.47,0l.24.27a5.94,5.94,0,0,0,8.93,0l.49-.55a5,5,0,0,1,7.47,0l.18.2a5.92,5.92,0,0,0,8.93,0l3.5-3.84c.29.25.58.52.87.78L79.9,29.7c-1,1.09-2.18.73-3.59.73s-2.88.36-3.87-.73l-1-1.39c-2.46-2.7-5.65-1.51-8.11,1.19l-.5.54c-1,1.1-2.22.46-3.63.46s-2.84.64-3.83-.46l-.25-.26c-1.19-1.31-2.79-2.91-4.48-2.91s-3.25,1.6-4.44,2.91c-1,1.09-2.15.75-3.57.75s-2.91.34-3.91-.77L33.17,24c.47-.43.93-.85,1.39-1.24l4,4.39A5.94,5.94,0,0,0,47.48,27.15ZM50.2,90.84l1.15,10.84c-.78-.17-1.56-.37-2.32-.59Zm17.63-1.27-1.72,12.37a38.15,38.15,0,0,1-5.25.58Zm7.27,9.5a36.49,36.49,0,0,1-3.62,1.46l-1.55-11Zm11.42-8L84.64,77.59l4,11.19C88,89.58,87.25,90.35,86.52,91.08ZM35.07,75.76,30.56,89.38a44.43,44.43,0,0,1-4-5.24Zm.52,1.74L34.25,93c-1-.86-2-1.78-2.87-2.74Zm13.61,13L48,100.78c-1-.32-2-.67-2.92-1.06Zm40.25-2.65L85,75.46l7.89,7.68A44.05,44.05,0,0,1,89.45,87.87Z"/><path class="cls-5" d="M36.71,46.39c0,1.7,4.16,2.32,6.95,2.32s7-.62,7-2.32-4.16-2.32-7-2.32S36.71,44.69,36.71,46.39Z"/><path class="cls-5" d="M69.73,46.39c0,1.7,4.16,2.32,7,2.32s6.95-.62,6.95-2.32-4.15-2.32-6.95-2.32S69.73,44.69,69.73,46.39Z"/><path class="cls-5" d="M90.67,44.6A37.08,37.08,0,0,1,85.93,52a12.18,12.18,0,0,0,.65-7.86l5.5-5.73a3,3,0,0,0,.68-1.87.68.68,0,0,0-.14-.41.5.5,0,0,0-.35-.18s-.26-.23-.08.51l-.28.22c-.14,0,.08-.69,0-.59L86.23,43a11.85,11.85,0,0,0-.53-1.24l3.55-3.68a2,2,0,0,0,.64-1.93.49.49,0,0,0-.72-.09l-4,4.72a10.05,10.05,0,0,0-8.48-4.92c-5.66,0-10.27,5.06-10.27,11.28S71,58.38,76.68,58.38a9.43,9.43,0,0,0,4.07-.93C87,55,91.44,45.53,91.59,45.11a2.08,2.08,0,0,0-.16-2C91.17,42.92,90.8,44.32,90.67,44.6Zm-5.4,2.51c0,5.19-3.85,9.42-8.59,9.42S68.1,52.3,68.1,47.11s3.85-9.43,8.58-9.43S85.27,41.91,85.27,47.11Z"/><path class="cls-5" d="M56.45,20.23a3.43,3.43,0,1,0,6.84,0c0-2.07-1.54-4.48-3.42-4.48S56.45,18.16,56.45,20.23Zm1,0a2.4,2.4,0,1,1,4.78,0c0,1.44-1.08,2-2.39,2S57.48,21.67,57.48,20.23Z"/><path class="cls-5" d="M42.83,19.06c-1.89,0-3.42,2.29-3.42,4.36a3.43,3.43,0,1,0,6.84,0C46.25,21.35,44.71,19.06,42.83,19.06Zm2.38,4.36c0,1.44-1.07,2-2.38,2s-2.39-.58-2.39-2a2.4,2.4,0,1,1,4.77,0Z"/><path class="cls-5" d="M76.68,27.17a3.6,3.6,0,0,0,3.43-3.75c0-2.07-1.54-4.39-3.43-4.39s-3.42,2.32-3.42,4.39A3.6,3.6,0,0,0,76.68,27.17ZM74.3,23.42a2.4,2.4,0,1,1,4.77,0c0,1.44-1.07,2.1-2.39,2.1S74.3,24.86,74.3,23.42Z"/><path class="cls-5" d="M69,21.6a1.84,1.84,0,0,0,1.62-2,1.66,1.66,0,1,0-3.25,0A1.84,1.84,0,0,0,69,21.6Z"/><path class="cls-5" d="M43.66,35.83c-3.5,0-6.77.7-8.68,3.93l-4.15-2.6a.49.49,0,0,0-.7.22,3.41,3.41,0,0,0,.26,2L34.52,42c-.15.34-.38-.34-.52.07l-6.12-4.26a.47.47,0,0,0-.38-.08.55.55,0,0,0-.33.25c-.07.13,0,0,0,.19a1.68,1.68,0,0,0,.51,1.55l6.07,4.5a12.18,12.18,0,0,0-.36,2.93A10,10,0,0,0,37,55c-4.68-2.91-8.89-9.39-8.94-9.46a.54.54,0,0,0-.34-.22.47.47,0,0,0-.39.12c-.11.09,0,.37-.07.28s-.43,1.14.62,2.61c.31.44,7.14,10.14,13.65,10.14a5.58,5.58,0,0,0,1.2-.13c.35,0,.62.05.89.05,5.66,0,10.27-5.06,10.27-11.27S49.32,35.83,43.66,35.83Zm8.59,11.28c0,5.19-3.86,9.42-8.59,9.42s-8.59-4.23-8.59-9.42,3.85-9.43,8.59-9.43S52.25,41.91,52.25,47.11Z"/><path class="cls-5" d="M62.46,42.78a.49.49,0,0,0-.39.08.64.64,0,0,0-.22.37c-1.22,7.36-2.19,7.44-2.2,7.44-.54,0-1.6-3.25-2.18-7.42a.59.59,0,0,0-.2-.38.48.48,0,0,0-.38-.09.44.44,0,0,0-.19.07.34.34,0,0,0-.12.12.47.47,0,0,0-.09.17.33.33,0,0,0,0,.06.79.79,0,0,0,0,.22c0,.31.1.68.16,1.08.45,2.8,1.42,7.28,3,7.31.93,0,2-1,3.24-8.37A.57.57,0,0,0,62.46,42.78Z"/><path class="cls-5" d="M59.64,45.75c.86,0,1.84-.84,2.77-6.77a.61.61,0,0,0-.09-.42.52.52,0,0,0-.33-.24.53.53,0,0,0-.6.47c-.9,5.74-1.74,5.82-1.75,5.82-.49,0-1.54-2.55-2.17-5.84a.56.56,0,0,0-.22-.36.87.87,0,0,0-.22,0,.51.51,0,0,0-.17,0,.53.53,0,0,0-.33.24.64.64,0,0,0-.07.43c.1.51.24,1.18.42,1.91C57.43,43.09,58.36,45.75,59.64,45.75Z"/><path class="cls-2" d="M51.08,17a1.53,1.53,0,0,0-.64.14,1.62,1.62,0,0,0-.51.38,1.48,1.48,0,0,0-.13.21,1.65,1.65,0,0,0-.22.36,2,2,0,0,0-.13.69A1.63,1.63,0,1,0,51.08,17Z"/><path class="cls-2" d="M77.71,62.24a.61.61,0,0,0-.15.41.6.6,0,0,0,.16.39c.23.24,5.39,5.78,0,12.58a.61.61,0,0,0,0,.8.49.49,0,0,0,.34.14.51.51,0,0,0,.39-.19,10.72,10.72,0,0,0,0-14.15A.49.49,0,0,0,77.71,62.24Z"/><path class="cls-2" d="M42.09,62.07a.47.47,0,0,0-.36.19,10.86,10.86,0,0,0-2.3,7.15,17.88,17.88,0,0,0,.39,3.32,19.18,19.18,0,0,0,1.32,4,.53.53,0,0,0,.45.3.52.52,0,0,0,.25-.07.61.61,0,0,0,.21-.77s-.26-.53-.56-1.35a17.72,17.72,0,0,1-1.05-5.37A9.8,9.8,0,0,1,42.5,63a.59.59,0,0,0,.13-.41.61.61,0,0,0-.17-.39A.5.5,0,0,0,42.09,62.07Z"/><path class="cls-2" d="M59.36,10.17c-23.31,0-42.28,20.81-42.28,46.4S36,102.93,59.28,103h.08c23.31,0,42.28-20.81,42.28-46.4S82.67,10.17,59.36,10.17Zm-1.45,90.91a37.35,37.35,0,0,1-5.49-.62L51,87.37ZM42.65,97.16a40,40,0,0,1-7.44-4.79l1.57-18.13ZM88.56,55.42l-6.4,7a2.86,2.86,0,0,0,0,3.77l6.11,6.7A2.29,2.29,0,0,0,90,73.7a2.33,2.33,0,0,0,1.72-.78l5.35-5.87a3.08,3.08,0,0,0,.3-.41,2.86,2.86,0,0,0-.3-3.36L93.15,59a2.29,2.29,0,0,0-3.44,0L86,63a3,3,0,0,0-.3.4,2.77,2.77,0,0,0-.41,1.48,2.82,2.82,0,0,0,.41,1.48,3,3,0,0,0,.3.4L88,69a3.8,3.8,0,0,0,.37.33,2.25,2.25,0,0,0,2.7,0,3.8,3.8,0,0,0,.37-.33l1.64-1.8a2.81,2.81,0,0,0,.71-1.89,2.76,2.76,0,0,0-.71-1.88,2.29,2.29,0,0,0-3.44,0l-1.22,1.34a.59.59,0,0,0-.15.4.55.55,0,0,0,.15.4l.93,1a.46.46,0,0,0,.36.17.5.5,0,0,0,.37-.17l1.17-1.28a.64.64,0,0,0,.15-.4.62.62,0,0,0-.15-.4.49.49,0,0,0-.73,0l-.81.88-.2-.22.86-.94a1.31,1.31,0,0,1,2,0,1.66,1.66,0,0,1,0,2.17l-1.64,1.8a1.33,1.33,0,0,1-2,0l-2-2.17a1.6,1.6,0,0,1-.4-1.08,1.58,1.58,0,0,1,.4-1.08l3.67-4a1.34,1.34,0,0,1,2,0l3.9,4.28a1.66,1.66,0,0,1,0,2.17L91,72.12a1.3,1.3,0,0,1-2,0l-6.11-6.7a1.63,1.63,0,0,1,0-2.17l6.4-7a1.31,1.31,0,0,1,1.92,0l8.14,8a46.76,46.76,0,0,1-5.56,15.91L84,70.59a.77.77,0,0,0-.79-.19.9.9,0,0,0-.58.63L76.06,95.78,69.65,84V81.12a.56.56,0,0,0,.56-.57A.55.55,0,0,0,69.7,80a13.67,13.67,0,0,1,0-1.43c4.51,0,8.16-4.08,8.16-9s-3.69-9-8.23-9H62v-3a.94.94,0,0,1,.89-1,.91.91,0,0,1,.84.67h-.84a.92.92,0,0,0,0,1.84h1.73a.88.88,0,0,0,.84-.92v-.61a2.58,2.58,0,1,0-5.14,0v3H58.63v-3a2.58,2.58,0,1,0-5.14,0v.61a.88.88,0,0,0,.84.92h1.73a.92.92,0,0,0,0-1.84h-.84a.91.91,0,0,1,.84-.67.94.94,0,0,1,.89,1v3H50.61c-4.53,0-8.23,4.05-8.23,9,0,4.58,3.08,8.4,7.2,9V80a.57.57,0,0,0,0,1.12V84L44.16,96.21,37.71,71a.88.88,0,0,0-.58-.64.59.59,0,0,0-.23,0,.79.79,0,0,0-.56.24L25.54,81.19a46.6,46.6,0,0,1-6-16.2l8.91-8.82a1.32,1.32,0,0,1,1.92,0l6.4,7a1.61,1.61,0,0,1,.41,1.08,1.64,1.64,0,0,1-.41,1.09l-6.11,6.7a1.3,1.3,0,0,1-2,0L23.3,66.25a1.66,1.66,0,0,1,0-2.17l3.9-4.28a1.34,1.34,0,0,1,2,0l3.67,4a1.58,1.58,0,0,1,.4,1.08,1.6,1.6,0,0,1-.4,1.08l-2,2.17a1.32,1.32,0,0,1-1.51.33,1.41,1.41,0,0,1-.46-.33l-1.64-1.8a1.56,1.56,0,0,1-.3-.51,1.49,1.49,0,0,1-.08-.43,2.18,2.18,0,0,1,0-.25,1.52,1.52,0,0,1,.39-1,1.3,1.3,0,0,1,2,0l.86.94-.19.22-.81-.88a.49.49,0,0,0-.73,0,.61.61,0,0,0,0,.8l1.17,1.28a.5.5,0,0,0,.37.17.46.46,0,0,0,.36-.17l.93-1a.55.55,0,0,0,.15-.4.59.59,0,0,0-.15-.4L30,63.39a2.28,2.28,0,0,0-3.43,0,2.76,2.76,0,0,0-.71,1.88,2.81,2.81,0,0,0,.71,1.89L28.17,69a2.33,2.33,0,0,0,1.72.78A2.29,2.29,0,0,0,31.6,69l2-2.17a2.81,2.81,0,0,0,.71-1.88,2.86,2.86,0,0,0-.41-1.48,3,3,0,0,0-.3-.4l-3.67-4a2.29,2.29,0,0,0-3.44,0l-3.9,4.28a2.86,2.86,0,0,0,0,3.77l5.35,5.87a2.28,2.28,0,0,0,3.43,0l6.11-6.7a2.86,2.86,0,0,0,0-3.77l-6.4-7a2.27,2.27,0,0,0-3.34-.09l-8.43,8.34a48.89,48.89,0,0,1-.53-7.1A46.61,46.61,0,0,1,32.39,23.31L38,29.14a5.93,5.93,0,0,0,8.93,0,4.94,4.94,0,0,1,7.46,0l.25.27a5.93,5.93,0,0,0,8.92,0l.5-.55a5,5,0,0,1,7.46,0l.19.21a5.93,5.93,0,0,0,8.91,0l5.73-5.75A46.61,46.61,0,0,1,100,56.57a49.71,49.71,0,0,1-.41,6.33L91.9,55.33A2.27,2.27,0,0,0,88.56,55.42ZM77.66,96.33,83.4,74.74l2.2,15.79c-.61.57-1.24,1.12-1.87,1.64A40.08,40.08,0,0,1,77.66,96.33Zm-7.18,3.08c-1.09.35-2.2.64-3.3.88l1.7-12.2ZM53.63,78.55V80H51.26V78.55Zm-3-16.22h19c3.61,0,6.55,3.22,6.55,7.18s-2.94,7.19-6.55,7.19H66.1V75.6h3.33a6.11,6.11,0,0,0,0-12.17H51.07a6.11,6.11,0,0,0,0,12.17h2.56v1.1h-3c-3.61,0-6.55-3.22-6.55-7.19S47,62.33,50.61,62.33ZM69.43,73.75H66.1V65.28h3.33a4.25,4.25,0,0,1,0,8.47ZM51.07,65.28h2.56v8.47H51.07a4.25,4.25,0,0,1,0-8.47Zm8.8,15.84a.55.55,0,0,0,.51-.57V65.28h4V81.71a4.57,4.57,0,1,1-9.11,0V65.28h4V80.55A.55.55,0,0,0,59.87,81.12Zm-8.61,0h2.37v.59c0,3.78,2.8,6.85,6.24,6.85s6.23-3.07,6.23-6.85v-.59H68v3.12l-8.58,16L51.26,84ZM68,78.55V80H66.1V78.55ZM80.46,24.84a5,5,0,0,1-7.47,0l-.18-.2a5.93,5.93,0,0,0-8.93,0l-.49.54a5,5,0,0,1-7.47,0l-.24-.27a5.94,5.94,0,0,0-8.93,0,5,5,0,0,1-7.47,0l-3.89-4.27a37.61,37.61,0,0,1,48.48.45Zm-33,.87a5,5,0,0,1,7.47,0l.24.27a5.93,5.93,0,0,0,8.93,0l.49-.54a5,5,0,0,1,7.47,0l.18.2a5.94,5.94,0,0,0,8.93,0l3.5-3.85.87.79L79.9,28.26a5,5,0,0,1-7.46,0l-.19-.21a5.92,5.92,0,0,0-8.92,0l-.5.55a5,5,0,0,1-7.46,0l-.25-.27a5.91,5.91,0,0,0-8.92,0,5,5,0,0,1-7.48,0l-5.55-5.76c.47-.44.93-.85,1.39-1.24l4,4.38A5.94,5.94,0,0,0,47.48,25.71ZM50.2,89.4l1.15,10.85c-.78-.18-1.56-.37-2.32-.59Zm17.63-1.27L66.11,100.5a36.66,36.66,0,0,1-5.25.58Zm7.27,9.51c-1.18.54-2.39,1-3.62,1.46l-1.55-11Zm11.42-8L84.64,76.16l4,11.19C88,88.15,87.25,88.92,86.52,89.65ZM35.07,74.32,30.56,87.94a45.15,45.15,0,0,1-4-5.23Zm.52,1.75L34.25,91.54c-1-.86-2-1.78-2.87-2.73Zm13.61,13L48,99.35c-1-.32-2-.68-2.92-1.07Zm40.25-2.65L85,74l7.89,7.68A44.18,44.18,0,0,1,89.45,86.44Z"/><path class="cls-2" d="M36.71,45.67c0,1.18,4.16,1.6,6.95,1.6s7-.42,7-1.6-4.16-1.6-7-1.6S36.71,44.49,36.71,45.67Z"/><path class="cls-2" d="M69.73,45.67c0,1.18,4.16,1.6,7,1.6s6.95-.42,6.95-1.6-4.15-1.6-6.95-1.6S69.73,44.49,69.73,45.67Z"/><path class="cls-2" d="M90.67,43.16a36.78,36.78,0,0,1-4.74,7.4,12.18,12.18,0,0,0,.65-7.86l6-6a.61.61,0,0,0,.17-.39.68.68,0,0,0-.14-.41.5.5,0,0,0-.35-.18.45.45,0,0,0-.38.14l-5.66,5.62a12.84,12.84,0,0,0-.53-1.24l4-3.51a.61.61,0,0,0,.08-.8.49.49,0,0,0-.72-.09l-3.94,3.43a10,10,0,0,0-8.48-4.92c-5.66,0-10.27,5.05-10.27,11.27S71,56.94,76.68,56.94A9.42,9.42,0,0,0,80.75,56C87,53.6,91.41,44.08,91.59,43.67a.59.59,0,0,0-.23-.76A.51.51,0,0,0,90.67,43.16Zm-5.4,2.51c0,5.2-3.85,9.42-8.59,9.42s-8.58-4.22-8.58-9.42,3.85-9.42,8.58-9.42S85.27,40.47,85.27,45.67Z"/><path class="cls-2" d="M56.45,18.79a3.44,3.44,0,1,0,6.84,0,3.43,3.43,0,1,0-6.84,0Zm1,0a2.4,2.4,0,1,1,4.78,0,2.4,2.4,0,1,1-4.78,0Z"/><path class="cls-2" d="M42.83,18.23A3.6,3.6,0,0,0,39.41,22a3.44,3.44,0,1,0,6.84,0A3.6,3.6,0,0,0,42.83,18.23ZM45.21,22a2.4,2.4,0,1,1-2.38-2.62A2.52,2.52,0,0,1,45.21,22Z"/><path class="cls-2" d="M76.68,25.74A3.61,3.61,0,0,0,80.11,22a3.44,3.44,0,1,0-6.85,0A3.61,3.61,0,0,0,76.68,25.74ZM74.3,22a2.4,2.4,0,1,1,2.38,2.62A2.51,2.51,0,0,1,74.3,22Z"/><path class="cls-2" d="M69,20.58a1.79,1.79,0,1,0-1.63-1.79A1.71,1.71,0,0,0,69,20.58Z"/><path class="cls-2" d="M43.66,34.4a10,10,0,0,0-8.61,5.15L30.9,37a.48.48,0,0,0-.7.21.59.59,0,0,0,.19.77l4.13,2.58c-.15.34-.3.71-.44,1.11L28,37.37a.5.5,0,0,0-.39-.07.51.51,0,0,0-.33.25.62.62,0,0,0-.06.42.54.54,0,0,0,.22.36l6.34,4.41a12.24,12.24,0,0,0-.36,2.93,11.74,11.74,0,0,0,3.74,8.68c-4.68-2.91-9-9-9-9a.49.49,0,0,0-.34-.22.5.5,0,0,0-.39.11.54.54,0,0,0-.19.38.62.62,0,0,0,.1.42c.31.44,7.78,11,14.29,11a5.58,5.58,0,0,0,1.2-.13,7.44,7.44,0,0,0,.89,0c5.66,0,10.27-5,10.27-11.27S49.32,34.4,43.66,34.4Zm8.59,11.27c0,5.2-3.86,9.42-8.59,9.42s-8.59-4.22-8.59-9.42,3.85-9.42,8.59-9.42S52.25,40.47,52.25,45.67Z"/><path class="cls-2" d="M62.46,41.34a.46.46,0,0,0-.39.09.61.61,0,0,0-.22.37c-1.22,7.35-2.19,7.44-2.2,7.44-.54,0-1.6-3.25-2.18-7.42a.57.57,0,0,0-.2-.38.48.48,0,0,0-.38-.1.62.62,0,0,0-.19.07l-.12.12a.47.47,0,0,0-.09.17l0,.06a.81.81,0,0,0,0,.22c0,.32.1.68.16,1.08.45,2.81,1.42,7.29,3,7.31.93,0,2-1,3.24-8.37A.57.57,0,0,0,62.46,41.34Z"/><path class="cls-2" d="M59.64,44.31c.86,0,1.84-.84,2.77-6.77a.61.61,0,0,0-.09-.42.51.51,0,0,0-.33-.23.52.52,0,0,0-.6.46c-.9,5.74-1.74,5.83-1.75,5.83-.49,0-1.54-2.56-2.17-5.85a.59.59,0,0,0-.22-.36.57.57,0,0,0-.22,0c-.06,0-.11,0-.17,0a.51.51,0,0,0-.33.25.62.62,0,0,0-.07.42c.1.51.24,1.19.42,1.91C57.43,41.66,58.36,44.31,59.64,44.31Z"/><path class="cls-11" d="M59,109.44a41.42,41.42,0,0,1-15.85-3.15C25.29,98.94,12.55,79.54,12.55,56.76,12.55,27.66,33.33,4.08,59,4.08s46.41,23.58,46.41,52.68S84.6,109.44,59,109.44Z"/><g class="cls-12"><path class="cls-5" d="M25.86,102.09l4.53-3.82-2.81-2.7,70.55-67.1a41.25,41.25,0,0,1,5.2,12.75L38.06,103.81l3.45,1.78-3.67,3.85A44.84,44.84,0,0,1,25.86,102.09Z"/></g><g class="cls-12"><path class="cls-5" d="M99.83,29.52l4.08-3.9a54.45,54.45,0,0,1,6.24,15.52l-4.51,4.24A60.9,60.9,0,0,0,99.83,29.52Z"/></g><g class="cls-12"><path class="cls-5" d="M104.58,47,43.12,106.29a19.87,19.87,0,0,0,3.53,1.28l-3.8,3.79a33.8,33.8,0,0,0,5.71,1.34L52,108.83s-3.49-.48-4.46-1.14l57.58-56.32A37.07,37.07,0,0,0,104.58,47Z"/></g><g class="cls-12"><path class="cls-5" d="M106.35,49.89,111,44.68a22.49,22.49,0,0,1,.81,5.83l-5.08,5.83A61.58,61.58,0,0,0,106.35,49.89Z"/></g><g class="cls-13"><path class="cls-14" d="M58.47,41.18c-23.73,0-43,36.94-43,15.58,0-27.28,19.49-49.4,43.53-49.4s43.52,22.12,43.52,49.4S90.39,41.18,58.47,41.18Z"/></g></g></g></g></svg>