<svg id="Capa_1" data-name="Capa 1" xmlns="http://www.w3.org/2000/svg" viewBox="0 0 500 500"><defs><style>.cls-1{fill:#f7db6e;}.cls-2{fill:#efbd3c;}.cls-3{fill:#e8c950;}.cls-4{fill:#e0ab21;}</style></defs><circle class="cls-1" cx="249.7" cy="250" r="250" transform="translate(-103.34 249.79) rotate(-45)"/><circle class="cls-2" cx="249.7" cy="250" r="209.77" transform="translate(-103.34 249.79) rotate(-45)"/><path class="cls-1" d="M235.34,172.46c9.12-6.92,22.82-8.89,35.75-5.15,10.76,3.11,18.68,9.55,21.73,17.68A16.66,16.66,0,0,0,324,173.27c-6.79-18.07-22.71-31.91-43.67-38a78.52,78.52,0,0,0-14-2.69V111.79a16.66,16.66,0,0,0-33.32,0v24.63a65.1,65.1,0,0,0-17.82,9.48c-21.65,16.38-30.78,41.85-23.85,66.46,5.2,18.53,18.83,33.95,38.42,43.43,5.25,2.52,10.88,4.82,16.33,7,26.42,10.78,38.92,17.66,39.41,34.1.6,20.88-18.06,35.17-35.7,36.45-7.56.55-33.06.77-44.25-19.52A16.66,16.66,0,1,0,176.4,330c11.24,20.36,31.71,33.19,56.64,36.22v22a16.66,16.66,0,0,0,33.32,0v-24c30.81-8.52,53.38-36.63,52.48-68.21-1.18-39.93-35.25-53.83-60.13-64-5.21-2.13-10.13-4.14-14.43-6.21-7.67-3.71-17.52-10.62-20.83-22.44C218.86,187.06,230.23,176.32,235.34,172.46Z" transform="translate(0.3)"/><path class="cls-3" d="M69.47,76.76A249.17,249.17,0,0,0-.3,250c0,138.07,111.93,250,250,250a249.15,249.15,0,0,0,173.23-69.77Z" transform="translate(0.3)"/><path class="cls-4" d="M97.92,105.21A209.07,209.07,0,0,0,39.94,250c0,115.85,93.91,209.77,209.77,209.77a209,209,0,0,0,144.78-58Z" transform="translate(0.3)"/><path class="cls-3" d="M191.37,212.36c5.2,18.53,18.83,33.95,38.42,43.43,5.25,2.52,10.88,4.82,16.33,7,6.41,2.61,12,5,16.78,7.35l-73.81-73.81A60.47,60.47,0,0,0,191.37,212.36Z" transform="translate(0.3)"/><path class="cls-3" d="M285,292.27a28.32,28.32,0,0,1,.55,4.67c.6,20.88-18.06,35.17-35.7,36.45-7.56.55-33.06.77-44.25-19.52A16.66,16.66,0,1,0,176.4,330c11.24,20.36,31.71,33.19,56.64,36.22v22a16.66,16.66,0,0,0,33.32,0v-24c22.09-6.11,39.94-22.29,47.94-42.59Z" transform="translate(0.3)"/></svg>