<svg xmlns="http://www.w3.org/2000/svg" xmlns:xlink="http://www.w3.org/1999/xlink" viewBox="0 0 104.23 115.41"><defs><style>.cls-1{isolation:isolate;}.cls-2{fill:#672f0f;}.cls-3{fill:url(#linear-gradient);}.cls-4{fill:url(#linear-gradient-2);}.cls-5{fill:#ffdc4d;}.cls-6{fill:url(#linear-gradient-3);}.cls-11,.cls-7{opacity:0.71;}.cls-11,.cls-13,.cls-7{mix-blend-mode:screen;}.cls-7{fill:url(#linear-gradient-4);}.cls-8{fill:url(#linear-gradient-5);}.cls-9{fill:url(#linear-gradient-6);}.cls-10{fill:#d28311;}.cls-11{fill:url(#linear-gradient-7);}.cls-12,.cls-13{opacity:0.39;}.cls-14{fill:url(#linear-gradient-8);}</style><linearGradient id="linear-gradient" x1="78.81" y1="438.18" x2="154.88" y2="514.25" gradientTransform="translate(303.91 -359.08) rotate(45)" gradientUnits="userSpaceOnUse"><stop offset="0" stop-color="#af6017"/><stop offset="1" stop-color="#7e3711"/></linearGradient><linearGradient id="linear-gradient-2" x1="856.42" y1="-886.46" x2="801.16" y2="-790.75" gradientTransform="translate(-329.47 1172.2) rotate(-25.74)" gradientUnits="userSpaceOnUse"><stop offset="0" stop-color="#ffdc4d"/><stop offset="0.24" stop-color="#fdd849"/><stop offset="0.48" stop-color="#f7cb3d"/><stop offset="0.74" stop-color="#ecb62a"/><stop offset="0.99" stop-color="#de990e"/><stop offset="1" stop-color="#dd980d"/></linearGradient><linearGradient id="linear-gradient-3" x1="857.44" y1="-886.44" x2="802.26" y2="-790.87" gradientTransform="translate(-348.49 1165.28) rotate(-24.77)" gradientUnits="userSpaceOnUse"><stop offset="0" stop-color="#d28311"/><stop offset="0.29" stop-color="#cf8011"/><stop offset="0.52" stop-color="#c57712"/><stop offset="0.72" stop-color="#b56813"/><stop offset="0.91" stop-color="#9e5314"/><stop offset="1" stop-color="#904615"/></linearGradient><linearGradient id="linear-gradient-4" x1="857.44" y1="-886.44" x2="802.26" y2="-790.87" gradientTransform="translate(-348.49 1165.28) rotate(-24.77)" gradientUnits="userSpaceOnUse"><stop offset="0" stop-color="#fdc712"/><stop offset="0.03" stop-color="#e7b610"/><stop offset="0.09" stop-color="#b7900d"/><stop offset="0.17" stop-color="#8b6e0a"/><stop offset="0.24" stop-color="#665007"/><stop offset="0.33" stop-color="#463705"/><stop offset="0.41" stop-color="#2c2303"/><stop offset="0.51" stop-color="#191302"/><stop offset="0.62" stop-color="#0b0801"/><stop offset="0.76" stop-color="#020200"/><stop offset="1"/></linearGradient><linearGradient id="linear-gradient-5" x1="855.84" y1="-882.93" x2="804.74" y2="-794.42" gradientTransform="matrix(0.92, -0.4, 0.4, 0.92, -377.01, 1154.43)" xlink:href="#linear-gradient-2"/><linearGradient id="linear-gradient-6" x1="786.08" y1="-838.71" x2="875.87" y2="-838.71" gradientTransform="translate(-416.69 1137.87) rotate(-21.22)" gradientUnits="userSpaceOnUse"><stop offset="0" stop-color="#af6017"/><stop offset="0.62" stop-color="#7e3711"/><stop offset="1" stop-color="#af6017"/></linearGradient><linearGradient id="linear-gradient-7" x1="853.42" y1="-884" x2="807.23" y2="-793.36" gradientTransform="translate(59.8 1235.89) rotate(-45)" gradientUnits="userSpaceOnUse"><stop offset="0" stop-color="#fdc712"/><stop offset="0.06" stop-color="#d7a90f"/><stop offset="0.16" stop-color="#a5820c"/><stop offset="0.26" stop-color="#795f09"/><stop offset="0.36" stop-color="#534206"/><stop offset="0.47" stop-color="#352a04"/><stop offset="0.58" stop-color="#1e1702"/><stop offset="0.7" stop-color="#0d0a01"/><stop offset="0.83" stop-color="#030200"/><stop offset="1"/></linearGradient><linearGradient id="linear-gradient-8" x1="252.38" y1="-278.5" x2="252.38" y2="-221.49" gradientTransform="matrix(1.03, -0.21, 0.2, 0.98, -159.8, 333.37)" gradientUnits="userSpaceOnUse"><stop offset="0" stop-color="#ffdc4d"/><stop offset="0.1" stop-color="#e1c244"/><stop offset="0.44" stop-color="#827027"/><stop offset="0.71" stop-color="#3c3412"/><stop offset="0.9" stop-color="#110e05"/><stop offset="1"/></linearGradient></defs><g class="cls-1"><g id="Capa_2" data-name="Capa 2"><g id="Capa_1-2" data-name="Capa 1"><ellipse class="cls-2" cx="48.58" cy="61.62" rx="47.2" ry="55" transform="translate(-20.88 25.12) rotate(-24.02)"/><path class="cls-3" d="M92.93,92.78l-.82-.92c11-20,7.4-48.17-10-67.4s-42.79-23.23-60.88-11l-.82-.91L13.66,20l-.11.11c-17.86,19.78-16.11,53.78,3.91,76s50.72,24.1,68.59,4.32a1,1,0,0,1,.1-.11Z"/><ellipse class="cls-4" cx="52.86" cy="56.87" rx="48.52" ry="55.28" transform="translate(-15.8 20.62) rotate(-19.26)"/><ellipse class="cls-5" cx="56.03" cy="53.37" rx="46.46" ry="54.89" transform="translate(-17.74 30.01) rotate(-26.04)"/><ellipse class="cls-6" cx="53.58" cy="56.09" rx="48.29" ry="55.22" transform="translate(-16.09 21.98) rotate(-20.23)"/><ellipse class="cls-7" cx="53.58" cy="56.09" rx="48.29" ry="55.22" transform="translate(-16.09 21.98) rotate(-20.23)"/><ellipse class="cls-8" cx="53.87" cy="55.76" rx="44.46" ry="51.18" transform="translate(-16.8 23.87) rotate(-21.7)"/><ellipse class="cls-9" cx="54.33" cy="55.25" rx="43.88" ry="51.07" transform="translate(-17.66 26.6) rotate(-23.78)"/><ellipse class="cls-10" cx="53.89" cy="55.73" rx="43.32" ry="50.98" transform="translate(-18.74 28.63) rotate(-25.5)"/><path class="cls-5" d="M92.89,50.42c-.29-.11-.54,1-.68,1.32,0,0-1.52,3.19-3.58,3.25-1.22,0-2.47-1-3.73-3.15a15.11,15.11,0,0,0-3.25-3.92,11,11,0,0,0-4.76-2.41A11.9,11.9,0,0,1,80.61,43a8.38,8.38,0,0,0,4.91-5.34c1.25-4.22-.83-8.71-.92-8.9a.63.63,0,0,0-.75-.39.7.7,0,0,0-.45.74s.27,3.72-1.43,5c-1,.77-2.49.6-4.51-.48a13.94,13.94,0,0,0-1.7-.78,9.92,9.92,0,0,0-8.69.59A13.73,13.73,0,0,1,69,27.92a10.46,10.46,0,0,0,1.29-7.75,12.7,12.7,0,0,0-5.1-7,.57.57,0,0,0-.79.14.85.85,0,0,0,0,.93s2,3,1.33,5.23c-.39,1.25-1.65,2.1-3.65,2.47l-.18,0a10.88,10.88,0,0,0-4.23,1.63,11,11,0,0,0-3.64,4,17.34,17.34,0,0,1-.68-5,10.91,10.91,0,0,0-2.54-7.57,10.08,10.08,0,0,0-7.43-3,.64.64,0,0,0-.58.61.81.81,0,0,0,.44.81c.12,0,3,1.4,3.48,3.64a4.51,4.51,0,0,1-1.21,3.82l0,.06c-.25.31-.47.55-.69.78a13.47,13.47,0,0,0-3.16,5.21q-.31-.64-.6-1.35c-1.2-2.94-2.91-4.88-5.07-5.76-3.67-1.5-7.28.59-7.68.83a.75.75,0,0,0-.28.85.7.7,0,0,0,.68.54s3.22-.22,4.51,1.76c.75,1.15.73,2.89,0,5.17a15.33,15.33,0,0,0,.22,10.89,13.29,13.29,0,0,1-4-2.28C27,35.62,24.67,35,22.49,35.52c-3.8,1-5.82,5.25-5.9,5.43a.85.85,0,0,0,.16.92.58.58,0,0,0,.81,0c.26-.21,2.62-2.11,4.51-1.21,1.14.55,1.93,2.08,2.36,4.56a17.07,17.07,0,0,0,1.8,5.31l-.75-.16c-2.75-.62-5-.16-6.77,1.37a11.57,11.57,0,0,0-3.51,7c0,.34.36,1.52.65,1.63a.59.59,0,0,0,.74-.32l.08-.17c.27-.51,1.69-3.1,3.56-3.09,1.2,0,2.43,1.07,3.67,3.16,2.54,4.27,5.71,5.81,8,6.33a11.9,11.9,0,0,1-3.72,2.48,8.32,8.32,0,0,0-4.9,5.33c-1.26,4.23.83,8.72.92,8.91a.64.64,0,0,0,.74.39.69.69,0,0,0,.45-.74s-.23-3.44,1.24-4.87a2.79,2.79,0,0,1,2.86-.45,8.54,8.54,0,0,1,1.84.77c4.51,2.43,8.11,1.48,10.4.18a14,14,0,0,1-1.9,5.59,10.49,10.49,0,0,0-1.29,7.74,12.79,12.79,0,0,0,5.1,7,.57.57,0,0,0,.79-.15.81.81,0,0,0,0-.92s-2-3-1.33-5.24c.41-1.31,1.73-2.18,3.83-2.5l.27-.05a10.53,10.53,0,0,0,7-4.57,3.29,3.29,0,0,0,.69-.64,18,18,0,0,1,.59,4.7A10.94,10.94,0,0,0,58,96.88a10.09,10.09,0,0,0,7.43,3h.08a.66.66,0,0,0,.5-.61c0-.34-.11-1.77-.4-1.9-.12,0-3.1-.33-3.55-2.67-.27-1.38.39-2.9,2-4.54A13.54,13.54,0,0,0,67.22,85q.32.65.6,1.35c2.14,5.26,5.49,6.33,7.93,6.3a10.34,10.34,0,0,0,4.81-1.37c.26-.16.14-1.82,0-2.15s-.14.75-.44.77c0,0-3.22.21-4.51-1.77-.74-1.14-.73-2.88,0-5.17a15.27,15.27,0,0,0-.23-10.89,13.35,13.35,0,0,1,4,2.29c4.39,3.44,7.75,2.09,9.79.35a12.52,12.52,0,0,0,2.92-3.84,3.77,3.77,0,0,0-.31-2c-.24-.23-.42.85-.66,1.06s-2.57,2.14-4.5,1.21c-1.15-.54-1.94-2.08-2.37-4.55a17.15,17.15,0,0,0-.83-3.15,15.09,15.09,0,0,0-1-2.16l.75.15c2.75.63,5,.17,6.77-1.36,3.06-2.69,3.32-7.64,3.33-7.85S93.18,50.52,92.89,50.42ZM83.51,60a16,16,0,0,0-2.26-.35.57.57,0,0,0-.59.38.85.85,0,0,0,.09.8,2.46,2.46,0,0,1,.17.27l.11.19c.69,3.65.27,5.11,0,6.17-.4,1.4-.54,2.24,1,4.81a4.13,4.13,0,0,0,2.88,2.18,5.48,5.48,0,0,0,3.7-1l-.08.07c-2.5,2.13-5.29,2-8.31-.35a12.72,12.72,0,0,0-5.51-2.76l-.2-14.7L79,62.36l-3.12,4.43v-5l.8,1.33a.37.37,0,0,0,.54.14.41.41,0,0,0,.15-.28.48.48,0,0,0-.06-.33l-1.5-2.49a.37.37,0,0,0-.43-.19.41.41,0,0,0-.26.4l0,7.7a.49.49,0,0,0,.26.44.35.35,0,0,0,.43-.12l4-5.68a.48.48,0,0,0,0-.55l-5.45-8a.38.38,0,0,0-.43-.17.43.43,0,0,0-.25.41l.22,16.07a.55.55,0,0,0-.16.18.82.82,0,0,0,0,.76c.18.35.36.73.52,1.13.23,1.58.23,5-2.27,10-1,2.11-1.17,3.89-.41,5.31,1.06,2,3.61,2.71,5.54,3l.22.08a8.31,8.31,0,0,1-1.69.21c-3,0-5.23-1.78-6.7-5.39a21.76,21.76,0,0,0-1.45-2.94.55.55,0,0,0-.12-.14l0-.11-.73-.31,0,.13a1.17,1.17,0,0,1,0,.2.89.89,0,0,0-.23.42,5.44,5.44,0,0,1-.15.54,2.08,2.08,0,0,0-.07.26,2.46,2.46,0,0,1-2.65,1.63c-1.43.08-3.21.18-5.1,3.51a5.56,5.56,0,0,0-.59,4.67,7.66,7.66,0,0,0,2.53,3.43,7,7,0,0,1-1.48-1.22,9.39,9.39,0,0,1-2.11-6.46,16.67,16.67,0,0,0-1.34-7.06.68.68,0,0,0-.58-.41h-.11a.59.59,0,0,0-.44.37,11,11,0,0,1-1.75,2.83,21.69,21.69,0,0,1-5.89,1.15c-3,.27-4.9,1.37-5.58,3.28a7.91,7.91,0,0,0,.49,5.31,9.19,9.19,0,0,1-1.77-3.55,8.9,8.9,0,0,1,1.14-6.58A14,14,0,0,0,43,77a.84.84,0,0,0-.36-.63.43.43,0,0,0-.14,0l-5.94-15a.42.42,0,0,0-.39-.28.38.38,0,0,0-.34.35L34.47,71.63a.49.49,0,0,0,.21.48l5.65,3.51a.34.34,0,0,0,.44-.06.47.47,0,0,0,.06-.51l-3.49-7.66a.39.39,0,0,0-.38-.25.34.34,0,0,0-.33.33l-.57,3.25a.48.48,0,0,0,.31.54.36.36,0,0,0,.45-.32l.35-2.06,2.42,5.31L35.27,71.5,36.42,63l5.36,13.54c-.88-.16-3.21-.79-9.09-3.12-2.81-1.12-5-1-6.41.34s-1.86,3.49-1.94,5.28a10,10,0,0,1,.16-4.39,7.12,7.12,0,0,1,4.21-4.51,11.83,11.83,0,0,0,5-3.89.79.79,0,0,0,.06-.75.69.69,0,0,0-.55-.46,9.26,9.26,0,0,1-1.8-.36c-1.31-.88-3.34-3-5.67-8.2-1.21-2.7-2.61-4.1-4.15-4.16a3.87,3.87,0,0,0-2.71,1.22,6.71,6.71,0,0,1,.59-.6,6.23,6.23,0,0,1,5.78-1.11,16.12,16.12,0,0,0,2.25.36.59.59,0,0,0,.59-.39.35.35,0,0,0,0-.14l.25,0,0-.15s-.7-3.22-1.63-10.79c-.23-1.86-.87-3.07-1.93-3.58a3.06,3.06,0,0,0-1.62-.24c1.7-.29,3.52.31,5.41,1.8a12.39,12.39,0,0,0,5.85,2.81.58.58,0,0,0,.59-.32.85.85,0,0,0,0-.76c-.08-.14-.15-.28-.22-.43a29.87,29.87,0,0,1,2.25-12.88c.76-1.78.79-3.26.09-4.42a4.63,4.63,0,0,0-2.7-1.9,5.4,5.4,0,0,1,1.08.32c1.8.73,3.24,2.4,4.28,4.94A22.51,22.51,0,0,0,41.28,29a.65.65,0,0,0,.64.33.64.64,0,0,0,.51-.53c0-.1,0-.2.08-.31l.06-.21c.9-1.17,3.29-4.24,6.34-7.83A3.88,3.88,0,0,0,50,16.78a4,4,0,0,0-1.26-1.85,6.92,6.92,0,0,1,1.18,1,9.42,9.42,0,0,1,2.12,6.46,16.91,16.91,0,0,0,1.26,6.9.77.77,0,0,0,.45.59.55.55,0,0,0,.5,0,.62.62,0,0,0,.26-.39c.1-.22.21-.46.36-.74a46.65,46.65,0,0,1,7.81-3.33c3.28-1.19,5.1-2.88,5.41-5a5.3,5.3,0,0,0-.37-2.76A9.05,9.05,0,0,1,69,20.5a8.91,8.91,0,0,1-1.15,6.58,14.45,14.45,0,0,0-2.11,7.18v.11a.82.82,0,0,0,.31.62l.26.22a.57.57,0,0,0,.68,0A9.21,9.21,0,0,1,69.56,34c2,.2,4.7,1.33,8.08,3.36,2.74,1.66,4.8,2,6.1,1.1a7.48,7.48,0,0,1-3.65,3.18,11.7,11.7,0,0,0-5,3.88.82.82,0,0,0-.07.76.69.69,0,0,0,.56.45l.15,0a9.34,9.34,0,0,1,1.71.38c1.51.78,2.07,1.86,3,3.66a33.66,33.66,0,0,0,3.69,5.88c1.37,1.76,2.75,2.52,4.09,2.27a4,4,0,0,0,2.28-1.5A5.9,5.9,0,0,1,83.51,60Zm1.42,13.58a3.35,3.35,0,0,1-2.31-1.78c-1.39-2.31-1.22-2.88-.9-4a10.57,10.57,0,0,0,.38-4.5c.09.21.18.44.27.67a16.81,16.81,0,0,1,.75,2.85c.52,3,1.59,4.95,3.18,5.71a3.69,3.69,0,0,0,1.59.34A4.62,4.62,0,0,1,84.93,73.54ZM74.64,89a4.42,4.42,0,0,0,.44.55,4.74,4.74,0,0,1-2.84-2.06c-.59-1.11-.45-2.59.45-4.41a22.79,22.79,0,0,0,2.4-7.75,14,14,0,0,1-.59,7.06C73.55,85.15,73.6,87.37,74.64,89ZM60.83,95a5.4,5.4,0,0,0,.92,2.11,8,8,0,0,1-3.22-3.73,4.67,4.67,0,0,1,.53-3.88c1.26-2.22,2.42-2.84,3.48-3a7.8,7.8,0,0,1,1.05-.11A4.1,4.1,0,0,0,65.33,86a11.92,11.92,0,0,1-2.17,3.1C61.24,91.08,60.46,93.07,60.83,95Zm-19-5c.49-1.36,1.76-2.23,3.79-2.61a10.2,10.2,0,0,1,1.18-.16,29.77,29.77,0,0,0,4.37-.67,9.83,9.83,0,0,1-4.3,1.9l-.23,0h-.07c-2.51.47-4.07,1.6-4.63,3.37a4.45,4.45,0,0,0-.18.91A5.28,5.28,0,0,1,41.78,89.93ZM25.11,56.87a28.59,28.59,0,0,0,4,6.78A12.7,12.7,0,0,1,25,59.2c-1.51-2.54-3.12-3.84-4.78-3.85a3.08,3.08,0,0,0-.61.06,4,4,0,0,0-1.73.82c.92-1.41,2.32-3.06,3.82-3C22.88,53.27,24.05,54.5,25.11,56.87ZM26,40.77c.54,4.39,1,7.34,1.29,9a15.25,15.25,0,0,1-1.61-4.71c-.51-3-1.59-4.94-3.18-5.7a3.77,3.77,0,0,0-2.27-.3c1.42-.92,3.14-1.7,4.34-1.13C25.34,38.3,25.82,39.25,26,40.77Zm8.16-17.92a4.74,4.74,0,0,0-1.89-1.64c1.52.16,3.49.64,4.28,1.94.52.86.47,2.05-.17,3.52A31,31,0,0,0,34,37.92a13.71,13.71,0,0,1,.26-8.46C35.25,26.67,35.2,24.44,34.16,22.85Zm13.77-6.22a5.42,5.42,0,0,0-.87-1.86A4.34,4.34,0,0,1,49.28,17a3,3,0,0,1-.94,2.78c-1.93,2.27-3.59,4.34-4.81,5.87a12.24,12.24,0,0,1,2.11-3c.26-.27.52-.56.8-.91,0,0,.05-.06.05-.07A6,6,0,0,0,47.93,16.63Zm35.56,21c-1,.94-2.88.62-5.52-1a30.92,30.92,0,0,0-6-2.94,9.32,9.32,0,0,1,3.5.64A10.91,10.91,0,0,1,77,35c2.46,1.32,4.4,1.45,5.76.39a5,5,0,0,0,1.66-2.9C84.59,34.32,84.57,36.58,83.49,37.58Zm1.16,18.54a32.77,32.77,0,0,1-3.59-5.73,20.17,20.17,0,0,0-1.17-2.06,8.7,8.7,0,0,1,1,.75,14,14,0,0,1,2.93,3.54c1.53,2.58,3.17,3.87,4.86,3.84a3.59,3.59,0,0,0,1.87-.62A4.42,4.42,0,0,1,88,58.09C87,58.29,85.82,57.63,84.65,56.12ZM55.78,27.28a9.79,9.79,0,0,1,2.53-2.41A9.91,9.91,0,0,1,62,23.43l.29-.06c2.52-.47,4.07-1.6,4.63-3.36a5.3,5.3,0,0,0,.21-1.81,4.3,4.3,0,0,1,.23,2c-.27,1.83-1.93,3.3-4.93,4.39S57.27,26.55,55.78,27.28Zm-24,49.52a10.37,10.37,0,0,0-2.09-.87,5,5,0,0,0-2.23-.16,3.42,3.42,0,0,0-1.74.91,3.3,3.3,0,0,0-.37.44,5.15,5.15,0,0,1,1.38-2.64c1.23-1.15,3.15-1.22,5.69-.21a86.7,86.7,0,0,0,8.26,2.93C38.75,78.22,35.68,78.88,31.83,76.8Z"/><path class="cls-5" d="M61.84,55.36,56,56.45,55.53,54a.76.76,0,0,1,.55-.94.73.73,0,0,1,.78.46l-.67.12a.7.7,0,0,0-.49.85.68.68,0,0,0,.76.6l1.33-.24a.71.71,0,0,0,.49-.85l-.09-.49a2,2,0,1,0-3.91.73l.46,2.49-1.33.25-.47-2.49a2,2,0,1,0-3.91.73l.1.5a.69.69,0,0,0,.76.61L51.22,56a.71.71,0,0,0,.49-.85.7.7,0,0,0-.77-.6l-.67.12a.74.74,0,0,1,.56-.71.78.78,0,0,1,.86.68l.47,2.49-4.89.92c-3.48.65-5.69,4.46-4.94,8.49s4.2,6.78,7.68,6.13l2.34-.44.08.43-3.09.58a.42.42,0,0,0-.3.5,1.56,1.56,0,0,0,1.8.93l1.9-.35.09.5C53.4,77.92,56,80,58.64,79.51s4.3-3.38,3.73-6.43l-.09-.51L64,72.26c1.14,0,1.25-1.51,1.21-1.75a.41.41,0,0,0-.46-.36l-2.78.52,0-.18L64.58,70c3.48-.65,5.69-4.46,4.94-8.49S65.32,54.71,61.84,55.36Zm-4.33,18.1a.41.41,0,0,0,.29-.5L55.47,60.53l3.15-.59,2.5,13.37a3.92,3.92,0,0,1-2.75,4.75,3.92,3.92,0,0,1-4.29-3.43l-2.5-13.37,3.14-.59L57.05,73.1A.42.42,0,0,0,57.51,73.46Zm3.66-6.82-1.3-6.93,2.57-.49a3.57,3.57,0,0,1,1.3,6.94Zm.27,1.45L64,67.61c2.33-.44,3.82-3,3.31-5.71s-2.82-4.56-5.16-4.13L48.06,60.42c-2.34.43-3.83,3-3.32,5.71s2.83,4.56,5.16,4.12l2-.37.17.94-2.33.44c-2.79.53-5.55-1.68-6.16-4.91s1.17-6.29,4-6.81l14.57-2.73c2.79-.53,5.55,1.68,6.16,4.91s-1.17,6.29-4,6.81L61.62,69ZM46,65.89a3.31,3.31,0,0,1,2.34-4l2-.38,1.3,6.94-2,.37A3.31,3.31,0,0,1,46,65.89Z"/><path class="cls-5" d="M39.19,56.92a.39.39,0,0,0-.36.44.43.43,0,0,0,.4.44,13.68,13.68,0,0,0,2.28-.24c1.78-.33,4.16-1.13,5.44-3a5,5,0,0,0,.78-2A4.4,4.4,0,0,0,48,50.08c-.42-2.24-2.68-3.91-5.5-4-4.17-1.57-7.13-1.43-8.81.42-2.87,3.16-1,9.94-.88,10.22a.4.4,0,0,0,.44.32.43.43,0,0,0,.28-.55c0-.07-1.81-6.57.7-9.34,1.21-1.32,3.25-1.61,6.07-.88-3.38.77-5.68,3.53-5.16,6.27s3.72,4.52,7.2,3.95A13.64,13.64,0,0,1,39.19,56.92Zm-2.8-4.66c-.37-2,1.64-4.12,4.5-4.65s5.5.71,5.87,2.7S45.08,54.44,42.27,55,36.77,54.28,36.39,52.26Z"/><path class="cls-5" d="M45.13,50.1c-.23-1.22-2.23-1.52-4-1.19s-3.52,1.34-3.29,2.55,2.23,1.52,4,1.19S45.35,51.31,45.13,50.1Z"/><path class="cls-5" d="M64.59,48.39c1.76-.33,3.52-1.34,3.29-2.55s-2.23-1.53-4-1.2S60.36,46,60.59,47.2,62.82,48.72,64.59,48.39Z"/><path class="cls-5" d="M44.16,44.78l2.16-.4A2.27,2.27,0,0,0,45.49,40l-2.12.4a.75.75,0,0,0,.27,1.45l2.13-.4a.78.78,0,0,1,.28,1.52l-2.16.4a2.17,2.17,0,0,1-.79-4.22L46,38.56c1.63-.3,3.2,1,3.57,2.93l2.36,8,0,.09.11-.08-.09.11a.34.34,0,0,0,.06.12l.08.07a.52.52,0,0,0,.11.1l.09,0a.55.55,0,0,0,.13.05h.2l.07,0a.63.63,0,0,0,.18-.11.19.19,0,0,0,.07-.06.48.48,0,0,0,.09-.13s0-.05,0-.08a1.16,1.16,0,0,0,0-.18s.11-8.51.11-8.51l0-.15a3.23,3.23,0,0,1,2.29-3.93l2.94-.55a2.17,2.17,0,0,1,.79,4.22l-2.16.4a.78.78,0,0,1-.29-1.51l2.13-.4a.75.75,0,0,0-.27-1.45l-2.13.4a2.27,2.27,0,0,0,.83,4.41l2.16-.4A3.41,3.41,0,0,0,62,37.76a3.4,3.4,0,0,0-3.73-3l-2.94.55c-2.27.42-3.74,2.91-3.28,5.51L52,45l-1.13-3.81c-.5-2.67-2.78-4.49-5.07-4.06l-2.94.55a3.42,3.42,0,0,0-2.41,4.14A3.41,3.41,0,0,0,44.16,44.78Z"/><path class="cls-5" d="M68.37,55.6a.49.49,0,0,0-.05.34.53.53,0,0,0,.18.28,8.06,8.06,0,0,1,1.89,10.25.51.51,0,0,0,.15.61.33.33,0,0,0,.27.06.34.34,0,0,0,.25-.2A9.18,9.18,0,0,0,68.9,55.49.36.36,0,0,0,68.37,55.6Z"/><path class="cls-5" d="M41.39,61.27a.49.49,0,0,0-.14-.61.34.34,0,0,0-.52.13c-2.8,5.49,1.7,11.79,1.75,11.85a.36.36,0,0,0,.37.16.38.38,0,0,0,.17-.08.5.5,0,0,0,0-.62C43,72,38.86,66.25,41.39,61.27Z"/><path class="cls-5" d="M70,39.76c-2.85-1.29-6.32.85-8.71,2.86-2.4,1.21-3.74,3.46-3.34,5.61A4.23,4.23,0,0,0,59,50.42,5,5,0,0,0,60.5,52c1.87,1.31,4.39,1.18,6.16.85a13.42,13.42,0,0,0,2.21-.6.43.43,0,0,0,.22-.55.39.39,0,0,0-.5-.29,13.65,13.65,0,0,1-3.13.71c3.46-.73,5.82-3.52,5.3-6.3s-3.59-4.45-7-4c1.77-1.12,4.06-2.09,5.92-1.25s3,3.36,3.53,7.51a.43.43,0,0,0,.43.41A.43.43,0,0,0,74,48C73.46,43.51,72.1,40.73,70,39.76Zm-.44,6.29c.38,2-1.68,4.12-4.49,4.65S59.53,50,59.15,48s1.63-4.11,4.49-4.64S69.14,44.06,69.51,46.05Z"/><path class="cls-2" d="M92.75,50.34a.59.59,0,0,0-.74.32s-1.53,3.17-3.59,3.24c-1.21,0-2.46-1-3.72-3.14a15.46,15.46,0,0,0-3.24-3.89,11.29,11.29,0,0,0-4.76-2.39A12.06,12.06,0,0,1,80.42,42a8.31,8.31,0,0,0,4.91-5.31c1.26-4.2-.82-8.66-.91-8.84a.61.61,0,0,0-.74-.39.68.68,0,0,0-.45.73s.26,3.7-1.44,5c-1,.76-2.49.6-4.5-.48A12.65,12.65,0,0,0,75.58,32a10,10,0,0,0-8.69.59A13.85,13.85,0,0,1,68.79,27a10.4,10.4,0,0,0,1.3-7.7,12.67,12.67,0,0,0-5.09-7,.57.57,0,0,0-.79.15.81.81,0,0,0,0,.92s2,3,1.32,5.2c-.39,1.24-1.65,2.09-3.65,2.46l-.18,0a11,11,0,0,0-4.23,1.63,11.15,11.15,0,0,0-3.65,3.93,17.14,17.14,0,0,1-.67-5,10.83,10.83,0,0,0-2.53-7.52,10.08,10.08,0,0,0-7.43-3,.61.61,0,0,0-.57.6.77.77,0,0,0,.43.8c.12.06,3,1.4,3.48,3.62a4.52,4.52,0,0,1-1.22,3.8s0,.05,0,.06c-.26.31-.47.55-.69.78A13.41,13.41,0,0,0,41.42,26c-.2-.43-.41-.88-.59-1.34-1.2-2.93-2.9-4.85-5.06-5.73-3.67-1.48-7.28.6-7.68.85a.73.73,0,0,0-.28.84.69.69,0,0,0,.68.53s3.22-.22,4.5,1.75c.75,1.14.73,2.87-.05,5.14a15.14,15.14,0,0,0,.21,10.82,13,13,0,0,1-4-2.26c-2.35-1.83-4.63-2.48-6.81-1.93-3.8,1-5.82,5.22-5.91,5.4a.85.85,0,0,0,.17.91.59.59,0,0,0,.81,0c.26-.22,2.61-2.11,4.5-1.21,1.14.54,1.94,2.06,2.36,4.52A16.79,16.79,0,0,0,26,49.57l-.75-.15a7.34,7.34,0,0,0-6.77,1.36c-3,2.67-3.32,7.59-3.33,7.8a.78.78,0,0,0,.47.77.57.57,0,0,0,.73-.32l.08-.16c.27-.52,1.7-3.09,3.57-3.08,1.19,0,2.43,1.06,3.67,3.14,2.53,4.24,5.69,5.77,8,6.28A12.06,12.06,0,0,1,28,67.68,8.36,8.36,0,0,0,23.07,73c-1.26,4.2.82,8.66.91,8.84a.66.66,0,0,0,.75.39.7.7,0,0,0,.45-.73s-.22-3.42,1.24-4.84a2.82,2.82,0,0,1,2.86-.46,9.18,9.18,0,0,1,1.84.77c4.51,2.41,8.11,1.46,10.39.17a13.54,13.54,0,0,1-1.9,5.55,10.39,10.39,0,0,0-1.29,7.7,12.57,12.57,0,0,0,5.09,7,.56.56,0,0,0,.78-.15.81.81,0,0,0,0-.92s-2-3-1.33-5.2c.42-1.3,1.73-2.16,3.84-2.49l.26,0A10.59,10.59,0,0,0,54,84a3,3,0,0,0,.69-.64,17.36,17.36,0,0,1,.58,4.68,10.83,10.83,0,0,0,2.53,7.52,10.09,10.09,0,0,0,7.43,3h.08a.65.65,0,0,0,.5-.6.8.8,0,0,0-.43-.8c-.13-.06-3.07-1.42-3.52-3.75-.26-1.36.4-2.88,2-4.51A13.38,13.38,0,0,0,67,83.74c.21.43.41.88.6,1.34,2.14,5.22,5.49,6.28,7.93,6.25A10.34,10.34,0,0,0,80.32,90a.75.75,0,0,0,.28-.84.69.69,0,0,0-.68-.53s-3.22.22-4.51-1.75c-.74-1.14-.73-2.86,0-5.14a15.09,15.09,0,0,0-.21-10.82,13,13,0,0,1,4,2.26c4.39,3.43,7.75,2.08,9.79.34A12.44,12.44,0,0,0,92,69.67a.83.83,0,0,0-.16-.91.58.58,0,0,0-.81-.05c-.1.09-2.58,2.13-4.51,1.21-1.14-.54-1.93-2.06-2.35-4.52a18.43,18.43,0,0,0-.83-3.13,15.48,15.48,0,0,0-1-2.15l.75.15a7.33,7.33,0,0,0,6.77-1.36c3.06-2.67,3.33-7.59,3.34-7.8A.78.78,0,0,0,92.75,50.34Zm-9.45,8.5A17.53,17.53,0,0,0,81,58.49a.59.59,0,0,0-.59.39.83.83,0,0,0,.09.78,2.61,2.61,0,0,1,.17.28l.11.19c.68,3.62.26,5.07,0,6.13-.4,1.39-.54,2.23,1,4.78a4.12,4.12,0,0,0,2.87,2.16,5.58,5.58,0,0,0,3.7-1l-.08.07C85.77,74.42,83,74.3,80,72a12.74,12.74,0,0,0-5.51-2.73l-.18-14.61,4.55,6.62L75.7,65.64l0-5,.8,1.32a.37.37,0,0,0,.54.14.41.41,0,0,0,.15-.28.48.48,0,0,0-.06-.33L75.66,59a.38.38,0,0,0-.43-.19.41.41,0,0,0-.27.4l0,7.65a.5.5,0,0,0,.25.44.35.35,0,0,0,.43-.12l4-5.65a.5.5,0,0,0,0-.55l-5.44-7.91a.39.39,0,0,0-.43-.16.41.41,0,0,0-.25.41l.2,16a.7.7,0,0,0-.16.19.82.82,0,0,0,0,.76,11.71,11.71,0,0,1,.52,1.12c.22,1.56.22,4.92-2.28,10-1,2.09-1.18,3.87-.42,5.27,1.06,2,3.61,2.69,5.53,3l.23.08a8.31,8.31,0,0,1-1.69.21c-3,0-5.23-1.76-6.69-5.35a22.07,22.07,0,0,0-1.45-2.92.87.87,0,0,0-.12-.14l0-.11L66.47,81l0,.14-.06.19a1,1,0,0,0-.23.42,5.36,5.36,0,0,1-.14.54l-.08.26a2.47,2.47,0,0,1-2.65,1.62c-1.42.08-3.2.18-5.1,3.5a5.52,5.52,0,0,0-.6,4.63,7.7,7.7,0,0,0,2.53,3.41,6.69,6.69,0,0,1-1.47-1.21,9.29,9.29,0,0,1-2.11-6.42,16.47,16.47,0,0,0-1.33-7,.68.68,0,0,0-.58-.41H54.5a.61.61,0,0,0-.44.37,11.13,11.13,0,0,1-1.75,2.82A22.22,22.22,0,0,1,46.42,85c-3,.27-4.9,1.37-5.58,3.27a7.77,7.77,0,0,0,.48,5.28,9.25,9.25,0,0,1-1.77-3.53,8.82,8.82,0,0,1,1.15-6.54,13.83,13.83,0,0,0,2.1-7.68.82.82,0,0,0-.36-.62.48.48,0,0,0-.14,0L36.38,60.26A.42.42,0,0,0,36,60a.37.37,0,0,0-.34.35L34.25,70.5a.49.49,0,0,0,.21.47l5.65,3.49a.34.34,0,0,0,.44-.07.45.45,0,0,0,.06-.5l-3.48-7.61a.38.38,0,0,0-.38-.25c-.17,0-.29.12-.33.33l-.57,3.23a.48.48,0,0,0,.3.54.37.37,0,0,0,.45-.32l.36-2L39.37,73l-4.31-2.67,1.16-8.43,5.34,13.46c-.88-.16-3.21-.78-9.09-3.1-2.8-1.1-5-1-6.41.35s-1.85,3.48-1.94,5.25a9.76,9.76,0,0,1,.17-4.37A7.09,7.09,0,0,1,28.5,69a11.8,11.8,0,0,0,5-3.87.82.82,0,0,0,.07-.75.69.69,0,0,0-.56-.45,9.41,9.41,0,0,1-1.8-.36c-1.3-.87-3.33-3-5.65-8.14-1.21-2.68-2.61-4.07-4.15-4.13a3.85,3.85,0,0,0-2.71,1.21q.29-.31.6-.6a6.27,6.27,0,0,1,5.77-1.1,17.65,17.65,0,0,0,2.25.35.58.58,0,0,0,.59-.39.65.65,0,0,0,0-.13l.24-.06,0-.14s-.69-3.21-1.61-10.73c-.23-1.85-.88-3-1.93-3.55A2.87,2.87,0,0,0,23,36c1.7-.29,3.52.31,5.41,1.78a12.27,12.27,0,0,0,5.84,2.79.59.59,0,0,0,.59-.32.8.8,0,0,0,0-.75c-.07-.14-.14-.29-.22-.43a29.78,29.78,0,0,1,2.26-12.81c.77-1.76.8-3.24.1-4.39a4.64,4.64,0,0,0-2.69-1.89,5.82,5.82,0,0,1,1.08.32c1.8.73,3.24,2.38,4.27,4.91a21.47,21.47,0,0,0,1.45,2.92.6.6,0,0,0,1.14-.19,2.81,2.81,0,0,1,.08-.31,1.72,1.72,0,0,0,.07-.21c.9-1.17,3.29-4.22,6.34-7.79A3.84,3.84,0,0,0,49.85,16a4,4,0,0,0-1.25-1.83,6.81,6.81,0,0,1,1.18,1,9.25,9.25,0,0,1,2.11,6.41,16.72,16.72,0,0,0,1.25,6.86.78.78,0,0,0,.45.59.56.56,0,0,0,.76-.42c.1-.22.21-.46.36-.74a47,47,0,0,1,7.81-3.31c3.28-1.19,5.11-2.88,5.42-5a5.35,5.35,0,0,0-.36-2.75,9.1,9.1,0,0,1,1.28,2.86,8.92,8.92,0,0,1-1.15,6.54,14.32,14.32,0,0,0-2.13,7.13,1.09,1.09,0,0,1,0,.12.79.79,0,0,0,.3.62l.26.21a.6.6,0,0,0,.69,0,9.12,9.12,0,0,1,2.54-1.21c2,.19,4.71,1.31,8.07,3.33,2.75,1.64,4.81,2,6.11,1.08a7.49,7.49,0,0,1-3.65,3.16,11.74,11.74,0,0,0-5,3.87.77.77,0,0,0-.07.75.69.69,0,0,0,.55.45l.16,0a9.27,9.27,0,0,1,1.71.37c1.5.78,2.06,1.85,3,3.64a33.64,33.64,0,0,0,3.69,5.84c1.36,1.75,2.74,2.5,4.09,2.25a4,4,0,0,0,2.28-1.5,5.93,5.93,0,0,1-7,2.5Zm1.41,13.49a3.35,3.35,0,0,1-2.32-1.76c-1.38-2.3-1.21-2.87-.89-4a10.32,10.32,0,0,0,.38-4.48,6.69,6.69,0,0,1,.27.67,16.34,16.34,0,0,1,.75,2.83c.52,3,1.59,4.91,3.18,5.67a3.65,3.65,0,0,0,1.58.34A4.58,4.58,0,0,1,84.71,72.33ZM74.4,87.68a4.42,4.42,0,0,0,.44.55,4.7,4.7,0,0,1-2.83-2c-.6-1.11-.45-2.58.44-4.38a22.75,22.75,0,0,0,2.42-7.71,13.77,13.77,0,0,1-.6,7C73.32,83.89,73.36,86.1,74.4,87.68Zm-13.82,6a5.32,5.32,0,0,0,.92,2.09,8,8,0,0,1-3.21-3.7,4.63,4.63,0,0,1,.53-3.86c1.27-2.21,2.42-2.82,3.48-3a7.8,7.8,0,0,1,1.05-.11,4.33,4.33,0,0,0,1.75-.34,12.41,12.41,0,0,1-2.17,3.08C61,89.8,60.22,91.77,60.58,93.68Zm-19-5c.48-1.35,1.76-2.23,3.79-2.61a10.26,10.26,0,0,1,1.18-.15,31.42,31.42,0,0,0,4.37-.67,10,10,0,0,1-4.3,1.89l-.23,0h-.07c-2.52.47-4.07,1.6-4.63,3.35a4.45,4.45,0,0,0-.19.91A5.09,5.09,0,0,1,41.55,88.68ZM24.92,55.84a28.57,28.57,0,0,0,4,6.73,12.66,12.66,0,0,1-4.18-4.42c-1.51-2.52-3.11-3.81-4.77-3.82a3.08,3.08,0,0,0-.61.06,4,4,0,0,0-1.73.82c.92-1.4,2.32-3.05,3.82-3C22.69,52.26,23.86,53.48,24.92,55.84Zm.91-16c.53,4.37,1,7.3,1.27,8.94a15.06,15.06,0,0,1-1.6-4.68c-.51-3-1.58-4.91-3.17-5.67a3.86,3.86,0,0,0-2.27-.29c1.42-.92,3.14-1.7,4.34-1.12C25.16,37.37,25.64,38.32,25.83,39.83ZM34,22a4.65,4.65,0,0,0-1.89-1.63c1.53.16,3.5.63,4.28,1.93.52.85.47,2-.17,3.49A30.53,30.53,0,0,0,33.87,37a13.49,13.49,0,0,1,.27-8.41C35.09,25.81,35,23.59,34,22Zm13.77-6.19A5.14,5.14,0,0,0,46.91,14a4.36,4.36,0,0,1,2.22,2.24A3,3,0,0,1,48.19,19c-1.93,2.27-3.61,4.32-4.82,5.85a12.18,12.18,0,0,1,2.11-2.94c.26-.27.52-.56.8-.91a.1.1,0,0,0,0-.07A5.88,5.88,0,0,0,47.77,15.82ZM83.31,36.59c-1,.94-2.88.62-5.53-1a31,31,0,0,0-6-2.92,9.5,9.5,0,0,1,3.5.63,13.73,13.73,0,0,1,1.55.7c2.46,1.31,4.39,1.44,5.76.38a5,5,0,0,0,1.67-2.88C84.41,33.35,84.39,35.6,83.31,36.59ZM84.45,55a32.75,32.75,0,0,1-3.59-5.7,21.11,21.11,0,0,0-1.16-2,11,11,0,0,1,1,.75,13.85,13.85,0,0,1,2.93,3.51c1.53,2.57,3.16,3.85,4.85,3.82a3.71,3.71,0,0,0,1.88-.62A4.48,4.48,0,0,1,87.81,57C86.75,57.18,85.62,56.52,84.45,55ZM55.62,26.39A9.44,9.44,0,0,1,58.15,24a10.29,10.29,0,0,1,3.67-1.44l.3-.05c2.51-.47,4.07-1.6,4.63-3.35A5.21,5.21,0,0,0,67,17.36a4.07,4.07,0,0,1,.22,2c-.26,1.82-1.92,3.29-4.92,4.37S57.1,25.67,55.62,26.39Zm-24,49.25a10.37,10.37,0,0,0-2.09-.87,5.11,5.11,0,0,0-2.23-.15A3.38,3.38,0,0,0,25.18,76a5.09,5.09,0,0,1,1.39-2.63c1.23-1.14,3.15-1.21,5.69-.21,3.6,1.42,6.5,2.44,8.25,2.91C38.53,77,35.46,77.7,31.61,75.64Z"/><path class="cls-2" d="M61.64,54.29l-5.85,1.09-.46-2.47a.78.78,0,0,1,.55-.94.75.75,0,0,1,.79.46l-.68.13a.69.69,0,0,0-.49.83.7.7,0,0,0,.76.61l1.33-.25a.69.69,0,0,0,.49-.84l-.09-.5a2,2,0,1,0-3.91.74l.46,2.47-1.33.25-.47-2.47a2,2,0,1,0-3.9.73l.09.49a.7.7,0,0,0,.76.61L51,55a.7.7,0,0,0,.49-.84.69.69,0,0,0-.76-.6l-.68.12a.75.75,0,0,1,.57-.71.77.77,0,0,1,.85.68L52,56.1,47.07,57c-3.48.65-5.7,4.44-5,8.45s4.19,6.73,7.67,6.08l2.34-.43.23,1.2-3.09.58a.44.44,0,0,0,.16.86l3.09-.57.09.5c.57,3,3.17,5.1,5.8,4.61s4.31-3.37,3.74-6.4l-.09-.5,2.78-.52a.41.41,0,0,0,.29-.5.42.42,0,0,0-.45-.37l-2.78.53-.23-1.21,2.69-.51c3.48-.65,5.7-4.44,5-8.44S65.12,53.64,61.64,54.29Zm-4.35,18a.41.41,0,0,0,.29-.5L55.27,59.44l3.14-.59L60.9,72.14a3.88,3.88,0,0,1-2.76,4.71,3.88,3.88,0,0,1-4.28-3.39L51.37,60.17l3.15-.59,2.31,12.35A.42.42,0,0,0,57.29,72.29ZM61,65.51l-1.29-6.89,2.58-.49A3.54,3.54,0,0,1,63.53,65ZM61.22,67l2.58-.48c2.34-.44,3.83-3,3.33-5.69S64.31,56.25,62,56.69L47.86,59.33c-2.34.44-3.83,3-3.33,5.69s2.82,4.53,5.16,4.09l2-.37.18.93-2.34.44c-2.79.53-5.54-1.66-6.15-4.88s1.18-6.25,4-6.77l14.57-2.73c2.79-.52,5.55,1.67,6.15,4.88s-1.18,6.25-4,6.77l-2.69.51ZM45.78,64.78a3.3,3.3,0,0,1,2.35-4l2-.38,1.29,6.89-2,.38A3.31,3.31,0,0,1,45.78,64.78Z"/><path class="cls-2" d="M39,55.87a.39.39,0,0,0-.36.44.44.44,0,0,0,.41.44,13.07,13.07,0,0,0,2.27-.25c1.78-.33,4.17-1.12,5.45-3a4.88,4.88,0,0,0,.77-2,4.24,4.24,0,0,0,.29-2.47c-.42-2.23-2.68-3.88-5.49-4-4.17-1.55-7.13-1.41-8.82.43-2.87,3.14-1,9.88-.89,10.16a.41.41,0,0,0,.44.32.44.44,0,0,0,.29-.55c0-.07-1.81-6.53.71-9.28,1.2-1.32,3.24-1.61,6.06-.89-3.38.77-5.68,3.51-5.17,6.24s3.73,4.49,7.2,3.92A14.22,14.22,0,0,1,39,55.87ZM36.2,51.24c-.37-2,1.64-4.09,4.5-4.63s5.5.7,5.87,2.68-1.69,4.1-4.5,4.63S36.58,53.25,36.2,51.24Z"/><path class="cls-2" d="M45,49.58c-.17-.88-2.13-1-3.9-.67s-3.55,1.16-3.39,2,2.13,1,3.9.67S45.2,50.47,45,49.58Z"/><path class="cls-2" d="M64.39,47.36c1.77-.33,3.56-1.16,3.39-2s-2.13-1-3.9-.68-3.55,1.16-3.39,2S62.63,47.69,64.39,47.36Z"/><path class="cls-2" d="M44,43.8l2.16-.4A2.26,2.26,0,0,0,45.32,39l-2.13.4a.68.68,0,0,0-.49.83.69.69,0,0,0,.76.61l2.12-.4A.78.78,0,0,1,45.87,42l-2.16.4a2.15,2.15,0,0,1-.79-4.19l2.94-.55c1.64-.31,3.2,1,3.57,2.9l2.35,7.91a.36.36,0,0,0,0,.09l.1-.08-.08.11a.34.34,0,0,0,.06.12l.07.07a.58.58,0,0,0,.12.1l.09,0,.13,0a.47.47,0,0,0,.2,0l.07,0a1,1,0,0,0,.18-.11l.07-.06a.85.85,0,0,0,.09-.14l0-.07a1.16,1.16,0,0,0,0-.18c0-.05.12-8.46.12-8.46l0-.15a3.22,3.22,0,0,1,2.29-3.91l2.94-.55a2.15,2.15,0,0,1,.79,4.19L57,39.88a.78.78,0,0,1-.28-1.51L58.8,38a.69.69,0,0,0,.49-.83.7.7,0,0,0-.76-.61l-2.13.4a2.26,2.26,0,0,0,.82,4.39l2.17-.4a3.39,3.39,0,0,0,2.4-4.12,3.38,3.38,0,0,0-3.73-3l-2.94.55c-2.26.42-3.74,2.9-3.28,5.48L51.79,44,50.66,40.2c-.5-2.65-2.77-4.46-5.07-4l-2.94.56a3.39,3.39,0,0,0-2.41,4.11A3.39,3.39,0,0,0,44,43.8Z"/><path class="cls-2" d="M68.17,54.53a.47.47,0,0,0,0,.33.51.51,0,0,0,.17.28,8,8,0,0,1,1.89,10.19.47.47,0,0,0,.15.6.31.31,0,0,0,.26.06.37.37,0,0,0,.26-.2,9.05,9.05,0,0,0-2.16-11.37A.34.34,0,0,0,68.17,54.53Z"/><path class="cls-2" d="M41.19,60.19a.49.49,0,0,0-.14-.6.36.36,0,0,0-.53.13c-2.79,5.45,1.69,11.71,1.74,11.77a.36.36,0,0,0,.37.16.38.38,0,0,0,.17-.08.48.48,0,0,0,0-.62C42.8,70.89,38.65,65.14,41.19,60.19Z"/><path class="cls-2" d="M69.76,38.78c-2.84-1.28-6.32.85-8.71,2.85-2.4,1.2-3.74,3.45-3.34,5.58a4.2,4.2,0,0,0,1.14,2.18A5.21,5.21,0,0,0,60.3,51c1.88,1.29,4.39,1.17,6.16.83a14.57,14.57,0,0,0,2.22-.59.45.45,0,0,0,.21-.56.38.38,0,0,0-.49-.28,14.32,14.32,0,0,1-3.13.7c3.45-.72,5.82-3.5,5.3-6.26s-3.59-4.42-7-4c1.78-1.12,4.07-2.08,5.92-1.25s3,3.34,3.53,7.47a.42.42,0,0,0,.42.4A.41.41,0,0,0,73.8,47C73.28,42.5,71.92,39.74,69.76,38.78ZM69.32,45c.37,2-1.69,4.1-4.5,4.63S59.33,49,59,47s1.64-4.08,4.49-4.62S69,43.05,69.32,45Z"/><path class="cls-11" d="M87.54,93a37.22,37.22,0,0,1-12.13,9c-16.08,7.41-36.61,2.7-51.16-13.41C5.67,68,3.88,36.61,20.25,18.48S65,2.34,83.54,22.91,103.91,74.86,87.54,93Z"/><g class="cls-12"><path class="cls-5" d="M30.68,103.48l3.58-4.63-2-3L85.75,25.51A41.39,41.39,0,0,1,92.33,35.7L42.19,101.64,45,103.88l-3.5,4.91A43.26,43.26,0,0,1,30.68,103.48Z"/></g><g class="cls-12"><path class="cls-5" d="M87.59,25.79l3.18-4.06a59.77,59.77,0,0,1,7.84,13L95.11,39A55.43,55.43,0,0,0,87.59,25.79Z"/></g><g class="cls-12"><path class="cls-5" d="M94.44,40.34l-47.68,63a5.59,5.59,0,0,0,2.75,1.81l-3.59,4.94a29.27,29.27,0,0,0,4.93.93l3-5.21a16.58,16.58,0,0,1-3.31-1.44L95.75,43.86S94.66,40.83,94.44,40.34Z"/></g><g class="cls-12"><path class="cls-5" d="M96.68,43.3,100,38.1s.57,1.39,1.66,4.9l-3.59,5.51A45.23,45.23,0,0,0,96.68,43.3Z"/></g><g class="cls-13"><path class="cls-14" d="M48.33,41.66c-22,4.9-30.68,45-34.5,24.08C9,39,16,14.56,42.76,8.4,61.5,4.09,87.59,23.33,93.5,46.88,100.08,73.17,77.9,35.05,48.33,41.66Z"/></g></g></g></g></svg>