<svg xmlns="http://www.w3.org/2000/svg" viewBox="0 0 517.07 381.13"><defs><style>.cls-1{isolation:isolate;}.cls-2{fill:#ff405d;}.cls-3{fill:#dd243c;}.cls-4{fill:#adb2b6;}.cls-5{fill:#d4d9de;}.cls-6{opacity:0.2;}.cls-13,.cls-6{mix-blend-mode:multiply;}.cls-7{fill:#6d0c19;}.cls-8{fill:#4b060f;}.cls-9{fill:#00dea6;}.cls-10{fill:#fff;}.cls-11{fill:#fff74e;}.cls-12{fill:#ce62e1;}.cls-13{opacity:0.3;}</style></defs><g class="cls-1"><g id="Capa_2" data-name="Capa 2"><g id="Capa_1-2" data-name="Capa 1"><polygon class="cls-2" points="271.03 381.13 107.04 381.13 62.78 213.44 271.03 282.25 271.03 381.13"/><polygon class="cls-3" points="271.03 381.13 435.02 381.13 479.28 213.44 271.03 282.25 271.03 381.13"/><polygon class="cls-4" points="386.2 381.13 355.34 381.13 356.51 254 395.82 241.02 386.2 381.13"/><polygon class="cls-5" points="155.85 381.13 186.71 381.13 185.54 254 146.24 241.02 155.85 381.13"/><polygon class="cls-6" points="271.03 381.13 107.04 381.13 62.78 213.44 110.1 365.72 261.9 373.33 271.03 282.25 271.03 381.13"/><polygon class="cls-6" points="271.03 381.13 435.02 381.13 479.28 213.44 431.96 365.72 280.15 373.33 271.03 282.25 271.03 381.13"/><polygon class="cls-7" points="271.03 282.25 479.27 213.44 271.03 151.41 62.78 213.43 271.03 282.25"/><polygon class="cls-8" points="271.03 151.41 62.78 213.43 271.03 282.25 271.03 151.41"/><path class="cls-2" d="M349.12,251.13a16.89,16.89,0,0,0-10.55-9.27l-9.18,8.91s7-2.63,8.26,6.67Z"/><path class="cls-9" d="M298.42,241.77s1.77,8.79,8,10.22L301,256.15s-8.37-5.61-7.08-13.59Z"/><path class="cls-9" d="M301.89,207.87s13.61,4.69,17.67,9.54l-4,5.42s-15.52-11-23.72-12Z"/><polygon class="cls-10" points="306.55 226.21 313.18 231.85 310.34 235.71 299.72 230.09 306.55 226.21"/><path class="cls-2" d="M278.9,224.88s1.2,5.31,8.51,7.69c0,0-2.91,4.39-7.44,4.06,0,0-10.06-9-6.41-16.85A12.66,12.66,0,0,0,278.9,224.88Z"/><path class="cls-2" d="M281.93,256a35.14,35.14,0,0,1,10.64,7.91l-10.36,2.76s-2.21-6.79-11.37-10.92Z"/><path class="cls-10" d="M346.25,219.15a17.63,17.63,0,0,0,13.36-3.25l-3.08-11.4s-1.26,6.6-9.95,2.83Z"/><path class="cls-9" d="M385.14,211.07s-8.51-3.11-12.91.87l-.83-6.23s9.09-3.45,15.35,1.55Z"/><polygon class="cls-11" points="384.1 236.17 375.87 238.3 373.95 234.22 384.19 229.08 384.1 236.17"/><path class="cls-11" d="M387.57,193.84s-5.2-1.78-11,2.51c0,0-2.33-4.4.25-7.64,0,0,12.85-3,17.83,3.7A13.37,13.37,0,0,0,387.57,193.84Z"/><path class="cls-11" d="M345.16,228.85s5.2,1.79,11-2.48c0,0,2.32,4.41-.26,7.64,0,0-12.86,3-17.82-3.74A13.42,13.42,0,0,0,345.16,228.85Z"/><path class="cls-2" d="M365.16,182.17a35.09,35.09,0,0,1-12.23,4l2.84-9.19s7,1.77,15.21-3Z"/><path class="cls-12" d="M339.36,201.44s-1.86-4.85-5.12-5.23c0,0-.84,5.46-10,9.9,0,0,.65,4.11,3.85,5.37C328.13,211.48,334.73,209.4,339.36,201.44Z"/><path class="cls-2" d="M216.56,196.35a15.42,15.42,0,0,0-1.72,13.42L228,211.34s-6.44-3.69.85-10.15Z"/><path class="cls-9" d="M237.25,232.8s6.53-6.56,4-12.1l6.86,1.64s.13,9.61-7.52,13.39Z"/><path class="cls-9" d="M203.53,248.87s-4-13-2.27-18.91l7-.24s-.28,18.17,3.76,24.89Z"/><polygon class="cls-10" points="219.53 231.92 220.46 223.6 225.48 223.43 226.94 234.73 219.53 231.92"/><path class="cls-2" d="M238,262.48s3.87-4.06,1.58-10.94c0,0,5.52-.43,7.93,3.15,0,0-1.75,12.87-10.73,14.82A11.55,11.55,0,0,0,238,262.48Z"/><path class="cls-2" d="M255.9,241.36a30.67,30.67,0,0,1,.5-12.67l8.55,6.12s-4.56,5.7-2.68,15Z"/><path class="cls-12" d="M246.24,209.6s5.79.17,7.44-2.65c0,0-5.4-2.85-6.55-12.87,0,0-4.57-1-7.11,1.44C240,195.52,239.66,202.33,246.24,209.6Z"/><path class="cls-11" d="M205.47,212a16.35,16.35,0,0,0-10.75-8.09l-8,9.09s6.45-3,8.36,5.77Z"/><path class="cls-9" d="M166.16,210.09s2.38,8.22,8.43,9.15l-4.88,4.33s-8.39-4.76-7.8-12.42Z"/><path class="cls-12" d="M182.59,184.61s13.29,3.53,17.52,7.86l-3.34,5.41s-15.6-9.4-23.46-9.75Z"/><polygon class="cls-11" points="175.28 196.45 182.01 201.35 179.63 205.22 169.1 200.6 175.28 196.45"/><path class="cls-11" d="M143.21,204.26s1.56,5,8.68,6.71c0,0-2.42,4.37-6.74,4.37,0,0-10.26-7.82-7.41-15.56A12.24,12.24,0,0,0,143.21,204.26Z"/><path class="cls-2" d="M146.13,228.21A34,34,0,0,1,156.85,235l-9.62,3.33s-2.63-6.3-11.64-9.6Z"/><path class="cls-12" d="M173.85,230.74s-3.07,4.27-1.46,6.93c0,0,5.2-2.61,14.46,1.58,0,0,3.16-2.93,2.34-6.07C189.19,233.18,183.48,229.47,173.85,230.74Z"/><polygon class="cls-13" points="271.03 255.64 62.78 213.43 271.03 282.25 479.27 213.44 271.03 255.64"/><path class="cls-2" d="M449.67,154.15a16.19,16.19,0,0,0,8.14,11.19l11-6.84s-7.45,1.14-6.5-8.19Z"/><path class="cls-9" d="M486.9,172.7s.32-8.94-5.46-11.61l6.33-3s6.86,7.17,3.75,14.7Z"/><path class="cls-9" d="M465.73,197.9s-12.19-7.34-15-12.89l5.14-4.49s12.58,13.89,20.36,16.49Z"/><polygon class="cls-10" points="470.16 185.17 465 178.32 468.67 175.12 477.73 182.76 470.16 185.17"/><path class="cls-2" d="M501.36,187.09s.06-5.42-6.51-9.22c0,0,3.86-3.7,8.2-2.46,0,0,7.74,10.78,2.34,17.74A12.14,12.14,0,0,0,501.36,187.09Z"/><path class="cls-2" d="M506.3,162.19a33.65,33.65,0,0,1-8.54-9.87l10.76-.61s.57,7.09,8.55,13Z"/><path class="cls-12" d="M479.28,151.75s4.49-3.41,3.75-6.55c0,0-6.08,1.14-14-5.71,0,0-4.15,2-4.36,5.43C464.67,144.92,469.2,150.28,479.28,151.75Z"/><path class="cls-11" d="M443.45,178.86a17.8,17.8,0,0,0-13.8.47l.35,11.75s2.77-6.19,10.37-.75Z"/><path class="cls-9" d="M408.57,197.47s7.58,4.76,12.81,1.76l-.65,6.26s-9.67,1.53-14.62-4.62Z"/><path class="cls-12" d="M397.45,168.82s12.51-5.46,18.75-4.77c0,0,.74,3.5,1.29,6.12,0,0-18.39,2.44-24.58,7Z"/><polygon class="cls-11" points="406.23 178.58 414.77 178.17 415.69 182.54 404.49 185.49 406.23 178.58"/><path class="cls-11" d="M388.79,201.07s4.67,2.78,11.28-.24c0,0,1.25,4.78-2,7.41,0,0-13.26.37-16.55-7.21A13.52,13.52,0,0,0,388.79,201.07Z"/><path class="cls-2" d="M407.86,217.37a35.7,35.7,0,0,1,12.87-1.43l-4.92,8.39s-6.42-3.15-15.55-.13Z"/><path class="cls-12" d="M430.56,202.34s.69,5.1,3.78,6.13c0,0,2.09-5.15,12-7.64,0,0,.32-4.15-2.51-6C443.86,194.81,436.93,195.5,430.56,202.34Z"/><path class="cls-12" d="M384.38,249.66s-10.95,7.86-17.2,8.45l-2.68-5.72s17.38-6.1,22.36-11.77Z"/><path class="cls-12" d="M321.07,274.17s-3.59,4.24-2.14,7.15c0,0,5.67-2.34,15,2.75,0,0,3.57-2.84,3-6.19C336.92,277.88,331.25,273.56,321.07,274.17Z"/><path class="cls-2" d="M113.15,169a15.43,15.43,0,0,0-2.26,13.35l13.07,2s-6.29-3.91,1.26-10.11Z"/><path class="cls-9" d="M126.72,206.19s6.79-6.32,4.53-11.94l6.79,1.87s-.25,9.61-8,13.12Z"/><path class="cls-9" d="M201.58,277.17s6.79-6.33,4.53-11.95l6.78,1.87s-.25,9.61-8,13.12Z"/><path class="cls-9" d="M92.78,211.11s-3.51-13.11-1.5-19h7s-1,18.15,2.76,25Z"/><polygon class="cls-10" points="105.36 204.64 106.61 196.36 111.64 196.36 112.65 207.7 105.36 204.64"/><path class="cls-2" d="M126.72,225.91s4-3.92,2-10.88c0,0,5.53-.24,7.79,3.43,0,0-2.26,12.8-11.31,14.44A11.61,11.61,0,0,0,126.72,225.91Z"/><path class="cls-2" d="M148.6,210.88a30.66,30.66,0,0,1,1-12.65l8.3,6.41s-4.78,5.54-3.27,14.91Z"/><path class="cls-12" d="M136.53,186.05s5.78.37,7.54-2.39c0,0-5.28-3-6-13.09,0,0-4.53-1.15-7.17,1.19C130.87,171.76,130.24,178.56,136.53,186.05Z"/><path class="cls-11" d="M90.48,183a16.21,16.21,0,0,0-10.42-8.45l-8.36,8.8s6.56-2.75,8.12,6.06Z"/><path class="cls-9" d="M51.37,174.41s2,8.3,8.05,9.44L54.37,188s-8.19-5-7.29-12.68Z"/><path class="cls-12" d="M64.27,146.41s13.13,4,17.19,8.46l-3.56,5.29s-15.21-9.93-23.05-10.56Z"/><polygon class="cls-11" points="63.52 159.13 70.05 164.26 67.51 168.04 57.18 163.06 63.52 159.13"/><path class="cls-11" d="M34.29,164.44s1.36,5,8.41,7c0,0-2.59,4.28-6.91,4.13,0,0-9.94-8.17-6.79-15.8A12.15,12.15,0,0,0,34.29,164.44Z"/><path class="cls-11" d="M142.82,245.68s1.36,5,8.41,7c0,0-2.59,4.27-6.91,4.12,0,0-9.94-8.17-6.79-15.8A12.22,12.22,0,0,0,142.82,245.68Z"/><path class="cls-2" d="M36.25,188.48a33.84,33.84,0,0,1,10.45,7.15l-9.75,3s-2.38-6.39-11.26-10Z"/><path class="cls-12" d="M63.85,192s-3.24,4.16-1.74,6.88c0,0,5.31-2.43,14.39,2.08,0,0,3.28-2.82,2.59-6C79.09,194.93,73.52,191,63.85,192Z"/><path class="cls-2" d="M87.28,56A17.17,17.17,0,0,0,77,65.51l9.27,8.82s-2.6-6.61,7.42-7.47Z"/><path class="cls-9" d="M82.05,113.84s9.48-1.38,11.21-7.16l4.3,5.24s-6.28,7.62-14.8,6.18Z"/><path class="cls-9" d="M34.46,88.14S39.92,75.61,45.25,72l5.68,3.87S38.64,90,37.34,97.56Z"/><polygon class="cls-10" points="62.99 93.82 69.25 87.82 73.31 90.59 66.95 100.3 62.99 93.82"/><path class="cls-2" d="M53.51,120.71s5.73-.95,8.51-7.68c0,0,4.62,2.85,4.12,7,0,0-9.93,9.09-18.27,5.45A13,13,0,0,0,53.51,120.71Z"/><path class="cls-2" d="M97.71,136.22s2.45-4.72,8.82-9.67l2.64,9.74s-7.36,1.84-12.07,10.24Z"/><path class="cls-12" d="M97.64,94s4.43,3.48,7.6,2.22c0,0-2.34-5.36,3.41-13.89,0,0-2.92-3.41-6.54-3C102.11,79.34,97.3,84.48,97.64,94Z"/><path class="cls-11" d="M72.42,51.25A14.7,14.7,0,0,0,69.35,38.7L57,41.21s7,1.39,2.73,9.36Z"/><path class="cls-9" d="M45.53,38.91s-3.6,7.82.54,12.05l-6.72.58S35.93,43,41.49,37.29Z"/><path class="cls-12" d="M74.59,2.6S82.68,13,83.13,18.87L76.9,21.19S70.91,4.82,65,0Z"/><polygon class="cls-11" points="49.8 15.12 51.83 22.86 47.38 24.51 42.19 14.81 49.8 15.12"/><path class="cls-11" d="M20.82,12.62s-2.07,4.79,2.35,10.28c0,0-4.8,2-8.19-.46,0,0-2.86-12.06,4.52-16.49A10.93,10.93,0,0,0,20.82,12.62Z"/><path class="cls-2" d="M8.62,56.85a29.86,29.86,0,0,1,3.91,11.52L2.77,65.43S4.89,59,0,51.18Z"/><path class="cls-12" d="M16.47,87s-5.25,1.58-5.76,4.6c0,0,5.82,1,10.3,9.59,0,0,4.44-.48,5.88-3.42C26.89,97.74,24.87,91.53,16.47,87Z"/><path class="cls-2" d="M426.57,56a17.2,17.2,0,0,1,10.28,9.54l-9.28,8.82s2.6-6.61-7.41-7.47Z"/><path class="cls-9" d="M431.8,113.84s-9.49-1.38-11.22-7.16l-4.29,5.24s6.28,7.62,14.8,6.18Z"/><path class="cls-9" d="M479.38,88.14S473.92,75.61,468.59,72l-5.68,3.87S475.21,90,476.5,97.56Z"/><polygon class="cls-10" points="450.85 93.82 444.59 87.82 440.53 90.59 446.9 100.3 450.85 93.82"/><path class="cls-2" d="M460.34,120.71s-5.73-.95-8.51-7.68c0,0-4.62,2.85-4.13,7,0,0,9.93,9.09,18.28,5.45A13,13,0,0,1,460.34,120.71Z"/><path class="cls-2" d="M416.13,136.22s-2.45-4.72-8.82-9.67l-2.64,9.74s7.36,1.84,12.07,10.24Z"/><path class="cls-12" d="M416.21,94s-4.44,3.48-7.61,2.22c0,0,2.34-5.36-3.41-13.89,0,0,2.93-3.41,6.54-3C411.73,79.34,416.54,84.48,416.21,94Z"/><path class="cls-11" d="M441.43,51.25a14.68,14.68,0,0,1,3.06-12.55l12.33,2.51s-7,1.39-2.72,9.36Z"/><path class="cls-9" d="M468.31,38.91s3.6,7.82-.53,12.05l6.71.58s3.42-8.58-2.14-14.25Z"/><path class="cls-12" d="M439.25,2.6S431.16,13,430.72,18.87l6.22,2.32s6-16.37,11.93-21.19Z"/><polygon class="cls-11" points="464.05 15.12 462.02 22.86 466.46 24.51 471.66 14.81 464.05 15.12"/><path class="cls-11" d="M493,12.62s2.07,4.79-2.35,10.28c0,0,4.8,2,8.19-.46,0,0,2.85-12.06-4.53-16.49A11,11,0,0,1,493,12.62Z"/><path class="cls-2" d="M505.22,56.85a30.07,30.07,0,0,0-3.91,11.52l9.77-2.94S509,59,513.84,51.18Z"/><path class="cls-12" d="M497.38,87s5.25,1.58,5.76,4.6c0,0-5.83,1-10.31,9.59,0,0-4.43-.48-5.88-3.42C487,97.74,489,91.53,497.38,87Z"/><path class="cls-2" d="M394.41,124.6a16.89,16.89,0,0,0-10.55-9.27l-9.18,8.91s7-2.63,8.26,6.67Z"/><path class="cls-9" d="M198.43,130.35s1.77,8.78,8,10.22L201,144.73s-8.37-5.61-7.09-13.59Z"/><polygon class="cls-10" points="235.66 118.36 242.29 124 239.45 127.87 228.83 122.25 235.66 118.36"/><path class="cls-2" d="M139.75,125.77s1.21,5.31,8.51,7.69c0,0-2.91,4.39-7.43,4.06,0,0-10.07-9-6.42-16.85A12.66,12.66,0,0,0,139.75,125.77Z"/><path class="cls-12" d="M235,178.7s-3.59,4.24-2.14,7.15c0,0,5.68-2.34,15,2.75,0,0,3.57-2.84,3-6.19C250.88,182.41,245.22,178.09,235,178.7Z"/><path class="cls-11" d="M262.34,133.15a17.71,17.71,0,0,0,13.37-3.25l-3.09-11.4s-1.26,6.6-9.94,2.83Z"/><path class="cls-11" d="M307.57,195.6a17.67,17.67,0,0,0,13.37-3.24L317.86,181s-1.27,6.6-9.95,2.83Z"/><path class="cls-11" d="M421.89,159.08a15.61,15.61,0,0,0-7.25,11l10.7,6.24s-4-5.58,5.08-8.45Z"/><path class="cls-9" d="M293.93,109.51s-8.51-3.11-12.92.87l-.83-6.23s9.09-3.46,15.35,1.54Z"/><path class="cls-9" d="M273.14,195.59s7.47,4.91,12.76,2l-.79,6.24s-9.71,1.33-14.51-4.91Z"/><polygon class="cls-11" points="305.63 128.42 297.39 130.55 295.47 126.47 305.71 121.33 305.63 128.42"/><path class="cls-11" d="M322,89.54s-5.2-1.78-11,2.51c0,0-2.33-4.41.24-7.64,0,0,12.85-3,17.84,3.69A13.32,13.32,0,0,0,322,89.54Z"/><path class="cls-2" d="M288.78,79.52a35.09,35.09,0,0,1-12.23,4l2.84-9.18s7,1.77,15.21-3Z"/><path class="cls-2" d="M339.91,183.13s-1.76,4.71-7.2,10l-3.65-8.93s6.74-2.51,10.21-10.93Z"/><path class="cls-2" d="M359.48,169.15a34.37,34.37,0,0,1,11.25,6l-9.32,4s-3.14-6.1-12.4-8.74Z"/><path class="cls-12" d="M253.25,96.18s4.15,8,2.72,11.5a17.18,17.18,0,0,0-16.23-3.48s-4.05-5.92-3.59-10.52C236.15,93.68,242.1,90.21,253.25,96.18Z"/><path class="cls-12" d="M291.59,177.21s4.15,8,2.72,11.5a17.17,17.17,0,0,0-16.23-3.49s-4.05-5.91-3.59-10.51C274.49,174.71,280.44,171.24,291.59,177.21Z"/></g></g></g></svg>