<svg xmlns="http://www.w3.org/2000/svg" viewBox="0 0 434.59 203.87"><defs><style>.cls-1{isolation:isolate;}.cls-2{fill:#fff;}.cls-3{fill:#ff405d;}.cls-4{fill:#b81c30;}.cls-5{fill:#aaafb4;}.cls-6{opacity:0.2;}.cls-6,.cls-9{mix-blend-mode:multiply;}.cls-7{fill:#dd243c;}.cls-8{fill:#d4d9de;}.cls-9{opacity:0.1;}</style></defs><g class="cls-1"><g id="Capa_2" data-name="Capa 2"><g id="Capa_1-2" data-name="Capa 1"><polyline class="cls-2" points="417.28 65.43 409.95 148.15 393.55 118.72 374.95 140.97 374.95 64.35"/><polygon class="cls-3" points="224.73 155.13 434.59 68.75 209.86 25.69 0 112.08 224.73 155.13"/><polygon class="cls-4" points="426.32 105.23 434.59 68.75 224.73 155.13 0 112.09 16.37 146.1 228.36 186.72 426.32 105.23"/><polygon class="cls-5" points="317.36 150.08 356.72 133.88 357.81 100.35 315.44 117.79 317.36 150.08"/><polygon class="cls-2" points="95.24 72.87 315.44 117.79 322.4 114.93 357.81 100.35 134.81 56.58 95.24 72.87"/><polygon class="cls-2" points="332.6 49.2 127.59 136.53 120.14 135.1 82.22 127.84 290.22 41.08 332.6 49.2"/><path class="cls-6" d="M40,119.75l44.62,8.55C112.87,121,193.32,107,219.12,90h-38.9S69.52,106,40,119.75Z"/><polygon class="cls-7" points="224.73 155.13 0 112.09 16.37 146.1 228.36 186.72 224.73 155.13"/><polygon class="cls-8" points="90.91 160.38 133.05 168.46 127.59 136.53 82.22 127.84 90.91 160.38"/><polygon class="cls-9" points="419.44 94.66 227.43 178.65 23.79 136.53 0 112.09 16.37 146.1 228.36 186.72 426.32 105.23 434.59 68.75 419.44 94.66"/><path class="cls-2" d="M178.5,87.19s-119,17.19-143.12,31.25c-15.42,9.29.3,68.28,22.65,85.43-4-13.94-3.53-23.65-3.53-30.06,0,0,8.44,16.12,23.71,22.82,0,0-14.85-48.81-.57-69.67,21.51-6.73,112.08-21.54,139.76-39.77Z"/><path class="cls-6" d="M420.11,66h0L365.75,55.56C321.07,61.45,256.6,76.3,256.6,76.3l-34.88,9C257.57,97.5,391.06,69.41,420.11,66Z"/><path class="cls-2" d="M415.22,65l-49.47-9.48C322,62.11,257,73.09,257,73.09l-35.89,14C254.22,93.94,343.9,75,366.54,73.5Z"/><path class="cls-6" d="M91.83,94.3c30,14,112.18-4.83,112.18-4.83L197.35,65c-13.81.73-65.44,12.3-80.61,8-6.54-1.85-6.77-2.36-9.1-5.57l-24,10.21C82.22,84.77,85.37,91.29,91.83,94.3Z"/><path class="cls-8" d="M192.49,59.3l-6-15.7s-3.54-1.82-9.7-4.3L151.12,49.87C168.81,53.26,185.92,57.59,192.49,59.3Z"/><path class="cls-2" d="M111,73.66C96.25,66.76,89.5,42.43,113,40.06,133.5,38,183.5,50.57,195.89,53.81l-6-15.71s-43.11-22.17-90.7-17.37-33.93,54.1-4,68.08S207.41,84,207.41,84l-5.52-14.46C183.31,72,123.5,79.47,111,73.66Z"/><path class="cls-8" d="M103,67.42C94.76,57.56,94.4,41.94,113,40.06,133.5,38,183.5,50.57,195.89,53.81l-6-15.71s-43.11-22.17-90.7-17.37a47,47,0,0,0-16.9,4.62C84.39,55.87,103,67.42,103,67.42Z"/><path class="cls-6" d="M339.39,71.29a46.63,46.63,0,0,0,14.6-18l-29-5.55c-1.56,2-9.27,4.57-12,5.15-19.34,4.11-63.71,7.39-82.46,8.31l-2.17,25.73S312.92,90.45,339.39,71.29Z"/><path class="cls-2" d="M319.31,53.25c13.07-9.46,18.17-33.51-5.37-31.56C293.4,23.39,247,44.81,235.51,50.24l2.6-16.5S275.75,4.16,323.43.22s44.61,46.88,18.14,66-111,15.65-111,15.65l2.39-15.18C251.67,65.81,308.31,61.21,319.31,53.25Z"/><path class="cls-8" d="M329.43,46.7c6.06-11.17,3.14-26.56-15.49-25C293.4,23.39,247,44.81,235.51,50.24l2.6-16.5S275.75,4.16,323.43.22A47.45,47.45,0,0,1,341,1.67C345.3,32,329.43,46.7,329.43,46.7Z"/><ellipse class="cls-2" cx="214.72" cy="57.9" rx="36.23" ry="33.75"/><path class="cls-8" d="M225.07,25.55C234.46,30,240.91,39,240.91,49.49c0,14.8-12.87,26.8-28.76,26.8s-28.76-12-28.76-26.8a25.27,25.27,0,0,1,4.2-13.94A32.3,32.3,0,0,0,178.5,57.9c0,18.64,16.22,33.75,36.22,33.75S251,76.54,251,57.9C251,42.61,240,29.7,225.07,25.55Z"/></g></g></g></svg>