<svg xmlns="http://www.w3.org/2000/svg" xmlns:xlink="http://www.w3.org/1999/xlink" viewBox="0 0 1024.39 817"><defs><style>.cls-1{fill:url(#Degradado_sin_nombre_16);}.cls-2{fill:url(#Degradado_sin_nombre_16-2);}.cls-3{fill:url(#Degradado_sin_nombre_16-3);}.cls-4{fill:url(#Degradado_sin_nombre_16-4);}.cls-5{fill:url(#Degradado_sin_nombre_16-5);}.cls-6{fill:url(#Degradado_sin_nombre_16-6);}.cls-7{fill:url(#Degradado_sin_nombre_16-7);}.cls-8{fill:url(#Degradado_sin_nombre_16-8);}.cls-9{fill:url(#Degradado_sin_nombre_16-9);}.cls-10{fill:url(#Degradado_sin_nombre_16-10);}.cls-11{fill:url(#Degradado_sin_nombre_16-11);}.cls-12{fill:url(#Degradado_sin_nombre_16-12);}.cls-13{fill:url(#Degradado_sin_nombre_16-13);}.cls-14{fill:url(#Degradado_sin_nombre_16-14);}.cls-15{fill:url(#Degradado_sin_nombre_16-15);}.cls-16{fill:url(#Degradado_sin_nombre_16-16);}</style><radialGradient id="Degradado_sin_nombre_16" cx="695.59" cy="337.34" r="432.06" gradientTransform="matrix(0.98, 0.18, 0.18, -0.98, -226.15, 614.21)" gradientUnits="userSpaceOnUse"><stop offset="0" stop-color="#feac37"/><stop offset="0.28" stop-color="#feb237"/><stop offset="0.66" stop-color="#fec437"/><stop offset="1" stop-color="#feda37"/></radialGradient><radialGradient id="Degradado_sin_nombre_16-2" cx="695.59" cy="337.34" r="432.07" xlink:href="#Degradado_sin_nombre_16"/><radialGradient id="Degradado_sin_nombre_16-3" cx="695.59" cy="337.34" r="432.08" xlink:href="#Degradado_sin_nombre_16"/><radialGradient id="Degradado_sin_nombre_16-4" cx="695.59" cy="337.34" r="432.07" xlink:href="#Degradado_sin_nombre_16"/><radialGradient id="Degradado_sin_nombre_16-5" cx="695.59" cy="337.34" r="432.07" xlink:href="#Degradado_sin_nombre_16"/><radialGradient id="Degradado_sin_nombre_16-6" cx="695.59" cy="337.34" r="432.07" xlink:href="#Degradado_sin_nombre_16"/><radialGradient id="Degradado_sin_nombre_16-7" cx="695.59" cy="337.34" r="432.07" xlink:href="#Degradado_sin_nombre_16"/><radialGradient id="Degradado_sin_nombre_16-8" cx="695.59" cy="337.34" r="432.07" xlink:href="#Degradado_sin_nombre_16"/><radialGradient id="Degradado_sin_nombre_16-9" cx="695.59" cy="337.34" r="432.06" xlink:href="#Degradado_sin_nombre_16"/><radialGradient id="Degradado_sin_nombre_16-10" cx="695.59" cy="337.34" r="432.06" xlink:href="#Degradado_sin_nombre_16"/><radialGradient id="Degradado_sin_nombre_16-11" cx="695.59" cy="337.34" r="432.07" xlink:href="#Degradado_sin_nombre_16"/><radialGradient id="Degradado_sin_nombre_16-12" cx="695.59" cy="337.34" r="432.07" xlink:href="#Degradado_sin_nombre_16"/><radialGradient id="Degradado_sin_nombre_16-13" cx="695.59" cy="337.34" r="432.04" xlink:href="#Degradado_sin_nombre_16"/><radialGradient id="Degradado_sin_nombre_16-14" cx="695.59" cy="337.34" r="432.07" xlink:href="#Degradado_sin_nombre_16"/><radialGradient id="Degradado_sin_nombre_16-15" cx="695.59" cy="337.34" r="432.07" xlink:href="#Degradado_sin_nombre_16"/><radialGradient id="Degradado_sin_nombre_16-16" cx="695.59" cy="337.34" r="432.07" xlink:href="#Degradado_sin_nombre_16"/></defs><g id="Capa_2" data-name="Capa 2"><g id="Capa_1-2" data-name="Capa 1"><path class="cls-1" d="M512.73,397.81,582.43,10A654.66,654.66,0,0,0,481.49,0Z"/><path class="cls-2" d="M250.07,740.64a618.38,618.38,0,0,0,89.78,39.66l-1.23-.57L507.18,417.28Z"/><path class="cls-3" d="M684.53,36.7l1.23.57L518,398.62,774.32,76.36A618.5,618.5,0,0,0,684.53,36.7Z"/><path class="cls-4" d="M512.72,418.14,442,807a654.54,654.54,0,0,0,100.93,10Z"/><path class="cls-5" d="M1023.4,418.9l-494-9.65,490.15,89a323,323,0,0,0,3.9-80.77h0Z"/><path class="cls-6" d="M973.14,262.71,528.37,403.9l478.49-67.76a387.06,387.06,0,0,0-34.14-74.74h0Z"/><path class="cls-7" d="M855.94,130.27l-327.78,267,392.28-207a512.12,512.12,0,0,0-65.36-61.08h0Z"/><path class="cls-8" d="M735,790.12,518.46,419,644.93,810.53l-1.29.42A573.06,573.06,0,0,0,735,790.12Z"/><path class="cls-9" d="M502.08,397,203.21,63.35l1-.91a447.36,447.36,0,0,0-71.41,46.94Z"/><path class="cls-10" d="M51.25,554.29l446-143.15L17.52,480.85a387.66,387.66,0,0,0,34.14,74.74h0Z"/><path class="cls-11" d="M531.1,415.62,952.25,646.3l-.66,1.2h0A342,342,0,0,0,994,579.29Z"/><path class="cls-12" d="M524.4,417.94,821.19,753.66l-1,.91a447.9,447.9,0,0,0,71.42-46.94Z"/><path class="cls-13" d="M1,398.1l495.26,7.69L4.86,318.7A323,323,0,0,0,1,399.47H1Z"/><path class="cls-14" d="M104,626.71a512.12,512.12,0,0,0,65.36,61.08l-.86-1.06L501.59,415.2Z"/><path class="cls-15" d="M379.46,6.48l1.29-.43a571.71,571.71,0,0,0-91.39,20.82L508,395.87Z"/><path class="cls-16" d="M497.61,400.51,72.14,170.7l.65-1.21h0A342.29,342.29,0,0,0,30.4,237.7Z"/></g></g></svg>